<?xml version="1.0" encoding="UTF-8"?>
<svg xmlns="http://www.w3.org/2000/svg"
     viewBox="0 0 420 420"
     width="420" height="420">

  <!-- FOND — changer fill pour la couleur de fond -->
  <rect id="fond" x="0" y="0" width="420" height="420" fill="white"/>

  <!-- SPIRALE — changer stroke pour la couleur, stroke-width pour l'épaisseur -->
  <path id="spirale"
        d="M 406.0,210.0 L 405.8,205.5 L 405.6,201.0 L 405.2,196.5 L 404.7,192.0 L 404.1,187.5 L 403.5,183.1 L 402.7,178.7 L 401.8,174.2 L 400.8,169.9 L 399.7,165.5 L 398.5,161.2 L 397.3,156.9 L 395.9,152.6 L 394.4,148.4 L 392.8,144.2 L 391.2,140.0 L 389.4,135.9 L 387.5,131.8 L 385.6,127.8 L 383.6,123.8 L 381.4,119.9 L 379.2,116.1 L 376.9,112.2 L 374.5,108.5 L 372.0,104.8 L 369.5,101.1 L 366.8,97.6 L 364.1,94.0 L 361.3,90.6 L 358.4,87.2 L 355.5,83.9 L 352.5,80.7 L 349.4,77.5 L 346.2,74.4 L 342.9,71.4 L 339.6,68.4 L 336.3,65.6 L 332.8,62.8 L 329.3,60.1 L 325.8,57.4 L 322.2,54.9 L 318.5,52.5 L 314.8,50.1 L 311.0,47.8 L 307.2,45.6 L 303.3,43.5 L 299.4,41.5 L 295.5,39.6 L 291.5,37.8 L 287.4,36.1 L 283.4,34.4 L 279.3,32.9 L 275.1,31.4 L 271.0,30.1 L 266.8,28.8 L 262.6,27.7 L 258.3,26.6 L 254.0,25.7 L 249.8,24.8 L 245.5,24.1 L 241.2,23.4 L 236.8,22.9 L 232.5,22.4 L 228.2,22.0 L 223.8,21.8 L 219.5,21.6 L 215.1,21.6 L 210.8,21.6 L 206.5,21.8 L 202.1,22.0 L 197.8,22.3 L 193.5,22.8 L 189.2,23.3 L 184.9,24.0 L 180.7,24.7 L 176.4,25.5 L 172.2,26.5 L 168.0,27.5 L 163.8,28.6 L 159.7,29.9 L 155.6,31.2 L 151.5,32.6 L 147.5,34.1 L 143.5,35.7 L 139.5,37.3 L 135.6,39.1 L 131.8,41.0 L 127.9,42.9 L 124.2,45.0 L 120.4,47.1 L 116.8,49.3 L 113.1,51.6 L 109.6,53.9 L 106.1,56.4 L 102.6,58.9 L 99.2,61.5 L 95.9,64.2 L 92.7,66.9 L 89.5,69.8 L 86.3,72.7 L 83.3,75.6 L 80.3,78.7 L 77.4,81.8 L 74.6,84.9 L 71.8,88.2 L 69.1,91.4 L 66.5,94.8 L 64.0,98.2 L 61.5,101.7 L 59.2,105.2 L 56.9,108.7 L 54.7,112.3 L 52.6,116.0 L 50.6,119.7 L 48.6,123.5 L 46.8,127.3 L 45.0,131.1 L 43.3,135.0 L 41.8,138.9 L 40.3,142.8 L 38.9,146.8 L 37.6,150.8 L 36.3,154.8 L 35.2,158.8 L 34.2,162.9 L 33.3,167.0 L 32.4,171.1 L 31.7,175.2 L 31.1,179.3 L 30.5,183.5 L 30.1,187.7 L 29.7,191.8 L 29.4,196.0 L 29.3,200.1 L 29.2,204.3 L 29.2,208.5 L 29.4,212.6 L 29.6,216.8 L 29.9,221.0 L 30.3,225.1 L 30.8,229.2 L 31.4,233.3 L 32.1,237.4 L 32.9,241.5 L 33.8,245.5 L 34.8,249.6 L 35.8,253.6 L 37.0,257.5 L 38.2,261.5 L 39.6,265.4 L 41.0,269.3 L 42.5,273.1 L 44.1,276.9 L 45.8,280.6 L 47.6,284.4 L 49.4,288.0 L 51.4,291.7 L 53.4,295.2 L 55.5,298.8 L 57.7,302.3 L 59.9,305.7 L 62.3,309.0 L 64.7,312.4 L 67.2,315.6 L 69.7,318.8 L 72.4,321.9 L 75.1,325.0 L 77.8,328.0 L 80.7,330.9 L 83.6,333.8 L 86.5,336.6 L 89.6,339.3 L 92.6,342.0 L 95.8,344.6 L 99.0,347.1 L 102.2,349.5 L 105.6,351.9 L 108.9,354.2 L 112.3,356.3 L 115.8,358.5 L 119.3,360.5 L 122.8,362.5 L 126.4,364.3 L 130.0,366.1 L 133.7,367.8 L 137.4,369.4 L 141.2,370.9 L 144.9,372.4 L 148.7,373.7 L 152.5,375.0 L 156.4,376.2 L 160.3,377.3 L 164.2,378.3 L 168.1,379.2 L 172.0,380.0 L 176.0,380.7 L 179.9,381.3 L 183.9,381.9 L 187.9,382.3 L 191.9,382.6 L 195.8,382.9 L 199.8,383.1 L 203.8,383.2 L 207.8,383.1 L 211.8,383.0 L 215.8,382.8 L 219.8,382.5 L 223.7,382.2 L 227.7,381.7 L 231.6,381.1 L 235.5,380.5 L 239.4,379.7 L 243.3,378.9 L 247.2,378.0 L 251.0,377.0 L 254.8,375.9 L 258.6,374.7 L 262.3,373.4 L 266.1,372.1 L 269.7,370.6 L 273.4,369.1 L 277.0,367.5 L 280.5,365.8 L 284.1,364.0 L 287.5,362.2 L 291.0,360.3 L 294.4,358.3 L 297.7,356.2 L 301.0,354.0 L 304.2,351.8 L 307.4,349.5 L 310.5,347.1 L 313.6,344.7 L 316.6,342.2 L 319.5,339.6 L 322.4,337.0 L 325.2,334.3 L 328.0,331.5 L 330.7,328.7 L 333.3,325.8 L 335.8,322.8 L 338.3,319.8 L 340.7,316.8 L 343.1,313.7 L 345.3,310.5 L 347.5,307.3 L 349.6,304.0 L 351.7,300.7 L 353.6,297.4 L 355.5,294.0 L 357.3,290.6 L 359.0,287.1 L 360.6,283.6 L 362.2,280.1 L 363.7,276.5 L 365.1,272.9 L 366.4,269.3 L 367.6,265.6 L 368.7,261.9 L 369.8,258.2 L 370.7,254.5 L 371.6,250.8 L 372.4,247.0 L 373.1,243.2 L 373.7,239.5 L 374.2,235.7 L 374.7,231.9 L 375.0,228.0 L 375.3,224.2 L 375.4,220.4 L 375.5,216.6 L 375.5,212.8 L 375.4,209.0 L 375.2,205.2 L 375.0,201.4 L 374.6,197.6 L 374.2,193.8 L 373.6,190.0 L 373.0,186.3 L 372.3,182.5 L 371.5,178.8 L 370.7,175.1 L 369.7,171.5 L 368.7,167.8 L 367.6,164.2 L 366.4,160.6 L 365.1,157.1 L 363.7,153.6 L 362.3,150.1 L 360.7,146.6 L 359.1,143.2 L 357.5,139.9 L 355.7,136.5 L 353.9,133.2 L 352.0,130.0 L 350.0,126.8 L 347.9,123.7 L 345.8,120.6 L 343.6,117.5 L 341.4,114.5 L 339.1,111.6 L 336.7,108.7 L 334.2,105.9 L 331.7,103.2 L 329.1,100.5 L 326.5,97.8 L 323.8,95.2 L 321.0,92.7 L 318.2,90.3 L 315.4,87.9 L 312.5,85.6 L 309.5,83.4 L 306.5,81.2 L 303.4,79.1 L 300.3,77.1 L 297.2,75.1 L 294.0,73.2 L 290.8,71.4 L 287.5,69.7 L 284.2,68.1 L 280.9,66.5 L 277.5,65.0 L 274.1,63.6 L 270.7,62.3 L 267.2,61.0 L 263.7,59.8 L 260.2,58.7 L 256.7,57.7 L 253.1,56.8 L 249.6,56.0 L 246.0,55.2 L 242.4,54.5 L 238.8,53.9 L 235.1,53.4 L 231.5,53.0 L 227.9,52.6 L 224.2,52.4 L 220.6,52.2 L 216.9,52.1 L 213.3,52.1 L 209.7,52.2 L 206.0,52.4 L 202.4,52.6 L 198.8,52.9 L 195.2,53.3 L 191.6,53.8 L 188.0,54.4 L 184.5,55.1 L 180.9,55.8 L 177.4,56.6 L 173.9,57.5 L 170.4,58.5 L 167.0,59.6 L 163.6,60.7 L 160.2,61.9 L 156.8,63.2 L 153.5,64.6 L 150.2,66.0 L 146.9,67.5 L 143.7,69.1 L 140.5,70.8 L 137.4,72.5 L 134.3,74.3 L 131.3,76.2 L 128.3,78.2 L 125.3,80.2 L 122.4,82.3 L 119.5,84.4 L 116.7,86.6 L 114.0,88.9 L 111.3,91.2 L 108.7,93.6 L 106.1,96.0 L 103.6,98.5 L 101.1,101.1 L 98.7,103.7 L 96.4,106.4 L 94.1,109.1 L 91.9,111.9 L 89.8,114.7 L 87.7,117.6 L 85.7,120.5 L 83.7,123.4 L 81.9,126.4 L 80.1,129.4 L 78.3,132.5 L 76.7,135.6 L 75.1,138.8 L 73.6,141.9 L 72.2,145.1 L 70.8,148.4 L 69.5,151.6 L 68.3,154.9 L 67.2,158.3 L 66.2,161.6 L 65.2,165.0 L 64.3,168.3 L 63.5,171.7 L 62.8,175.1 L 62.1,178.6 L 61.5,182.0 L 61.0,185.4 L 60.6,188.9 L 60.3,192.4 L 60.0,195.8 L 59.9,199.3 L 59.8,202.8 L 59.7,206.2 L 59.8,209.7 L 60.0,213.1 L 60.2,216.6 L 60.5,220.0 L 60.9,223.5 L 61.3,226.9 L 61.9,230.3 L 62.5,233.7 L 63.2,237.1 L 63.9,240.4 L 64.8,243.7 L 65.7,247.0 L 66.7,250.3 L 67.8,253.6 L 68.9,256.8 L 70.2,260.0 L 71.5,263.2 L 72.8,266.3 L 74.3,269.4 L 75.8,272.5 L 77.3,275.5 L 79.0,278.5 L 80.7,281.4 L 82.5,284.3 L 84.3,287.2 L 86.2,290.0 L 88.2,292.8 L 90.2,295.5 L 92.3,298.2 L 94.5,300.8 L 96.7,303.4 L 98.9,305.9 L 101.3,308.3 L 103.6,310.7 L 106.1,313.1 L 108.5,315.4 L 111.1,317.6 L 113.6,319.8 L 116.3,321.9 L 118.9,323.9 L 121.7,325.9 L 124.4,327.8 L 127.2,329.6 L 130.1,331.4 L 132.9,333.1 L 135.9,334.8 L 138.8,336.4 L 141.8,337.9 L 144.8,339.3 L 147.8,340.7 L 150.9,342.0 L 154.0,343.2 L 157.1,344.3 L 160.3,345.4 L 163.5,346.4 L 166.6,347.4 L 169.8,348.2 L 173.1,349.0 L 176.3,349.7 L 179.6,350.3 L 182.8,350.9 L 186.1,351.4 L 189.4,351.8 L 192.7,352.1 L 195.9,352.3 L 199.2,352.5 L 202.5,352.6 L 205.8,352.6 L 209.1,352.6 L 212.4,352.4 L 215.7,352.2 L 218.9,352.0 L 222.2,351.6 L 225.4,351.2 L 228.7,350.7 L 231.9,350.1 L 235.1,349.4 L 238.3,348.7 L 241.4,347.9 L 244.6,347.0 L 247.7,346.1 L 250.8,345.1 L 253.9,344.0 L 256.9,342.9 L 259.9,341.6 L 262.9,340.4 L 265.8,339.0 L 268.7,337.6 L 271.6,336.1 L 274.4,334.5 L 277.2,332.9 L 280.0,331.2 L 282.7,329.5 L 285.4,327.7 L 288.0,325.8 L 290.6,323.9 L 293.1,321.9 L 295.6,319.9 L 298.1,317.8 L 300.5,315.7 L 302.8,313.5 L 305.1,311.2 L 307.3,308.9 L 309.5,306.6 L 311.6,304.2 L 313.6,301.8 L 315.6,299.3 L 317.6,296.8 L 319.5,294.2 L 321.3,291.6 L 323.0,288.9 L 324.7,286.2 L 326.4,283.5 L 327.9,280.8 L 329.4,278.0 L 330.9,275.1 L 332.2,272.3 L 333.5,269.4 L 334.8,266.5 L 335.9,263.6 L 337.0,260.6 L 338.1,257.6 L 339.0,254.6 L 339.9,251.6 L 340.7,248.6 L 341.5,245.5 L 342.2,242.5 L 342.8,239.4 L 343.3,236.3 L 343.7,233.2 L 344.1,230.1 L 344.5,227.0 L 344.7,223.9 L 344.9,220.8 L 345.0,217.6 L 345.0,214.5 L 345.0,211.4 L 344.8,208.3 L 344.7,205.2 L 344.4,202.1 L 344.1,199.0 L 343.7,196.0 L 343.2,192.9 L 342.7,189.8 L 342.0,186.8 L 341.4,183.8 L 340.6,180.8 L 339.8,177.8 L 338.9,174.9 L 338.0,171.9 L 336.9,169.0 L 335.9,166.2 L 334.7,163.3 L 333.5,160.5 L 332.2,157.7 L 330.9,155.0 L 329.5,152.2 L 328.0,149.5 L 326.5,146.9 L 324.9,144.3 L 323.3,141.7 L 321.6,139.2 L 319.8,136.7 L 318.0,134.2 L 316.2,131.8 L 314.2,129.5 L 312.3,127.2 L 310.3,124.9 L 308.2,122.7 L 306.1,120.5 L 303.9,118.4 L 301.7,116.4 L 299.4,114.4 L 297.1,112.4 L 294.8,110.5 L 292.4,108.7 L 290.0,106.9 L 287.5,105.2 L 285.0,103.5 L 282.5,101.9 L 279.9,100.4 L 277.3,98.9 L 274.7,97.4 L 272.0,96.1 L 269.3,94.8 L 266.6,93.6 L 263.9,92.4 L 261.1,91.3 L 258.3,90.2 L 255.5,89.3 L 252.6,88.3 L 249.8,87.5 L 246.9,86.7 L 244.1,86.0 L 241.2,85.4 L 238.3,84.8 L 235.3,84.3 L 232.4,83.8 L 229.5,83.5 L 226.6,83.2 L 223.6,82.9 L 220.7,82.8 L 217.7,82.7 L 214.8,82.6 L 211.9,82.7 L 208.9,82.8 L 206.0,82.9 L 203.1,83.2 L 200.2,83.5 L 197.3,83.9 L 194.4,84.3 L 191.5,84.8 L 188.7,85.4 L 185.8,86.0 L 183.0,86.7 L 180.2,87.5 L 177.4,88.3 L 174.6,89.2 L 171.9,90.1 L 169.2,91.2 L 166.5,92.2 L 163.8,93.4 L 161.2,94.6 L 158.6,95.8 L 156.0,97.1 L 153.5,98.5 L 151.0,99.9 L 148.5,101.4 L 146.1,103.0 L 143.7,104.6 L 141.4,106.2 L 139.0,107.9 L 136.8,109.7 L 134.6,111.5 L 132.4,113.3 L 130.2,115.2 L 128.2,117.2 L 126.1,119.2 L 124.1,121.2 L 122.2,123.3 L 120.3,125.4 L 118.4,127.6 L 116.7,129.8 L 114.9,132.0 L 113.2,134.3 L 111.6,136.6 L 110.0,139.0 L 108.5,141.3 L 107.1,143.8 L 105.7,146.2 L 104.3,148.7 L 103.0,151.2 L 101.8,153.7 L 100.6,156.3 L 99.5,158.9 L 98.5,161.5 L 97.5,164.1 L 96.6,166.7 L 95.7,169.4 L 94.9,172.1 L 94.2,174.8 L 93.5,177.5 L 92.9,180.2 L 92.3,182.9 L 91.9,185.7 L 91.4,188.4 L 91.1,191.2 L 90.8,193.9 L 90.6,196.7 L 90.4,199.5 L 90.3,202.2 L 90.3,205.0 L 90.3,207.7 L 90.4,210.5 L 90.5,213.3 L 90.8,216.0 L 91.0,218.7 L 91.4,221.5 L 91.8,224.2 L 92.3,226.9 L 92.8,229.6 L 93.4,232.2 L 94.0,234.9 L 94.7,237.5 L 95.5,240.2 L 96.4,242.8 L 97.2,245.3 L 98.2,247.9 L 99.2,250.4 L 100.3,252.9 L 101.4,255.4 L 102.6,257.8 L 103.8,260.2 L 105.1,262.6 L 106.4,265.0 L 107.8,267.3 L 109.3,269.6 L 110.8,271.8 L 112.3,274.0 L 113.9,276.2 L 115.5,278.3 L 117.2,280.4 L 119.0,282.5 L 120.7,284.5 L 122.6,286.4 L 124.4,288.4 L 126.3,290.2 L 128.3,292.1 L 130.3,293.8 L 132.3,295.6 L 134.4,297.3 L 136.5,298.9 L 138.6,300.5 L 140.8,302.0 L 143.0,303.5 L 145.2,304.9 L 147.5,306.3 L 149.8,307.6 L 152.1,308.9 L 154.4,310.1 L 156.8,311.2 L 159.2,312.3 L 161.6,313.4 L 164.1,314.4 L 166.5,315.3 L 169.0,316.1 L 171.5,317.0 L 174.0,317.7 L 176.5,318.4 L 179.1,319.0 L 181.6,319.6 L 184.2,320.1 L 186.7,320.6 L 189.3,321.0 L 191.9,321.3 L 194.5,321.6 L 197.1,321.8 L 199.7,322.0 L 202.2,322.1 L 204.8,322.1 L 207.4,322.1 L 210.0,322.0 L 212.6,321.9 L 215.1,321.7 L 217.7,321.4 L 220.3,321.1 L 222.8,320.7 L 225.3,320.3 L 227.9,319.8 L 230.4,319.2 L 232.8,318.6 L 235.3,318.0 L 237.8,317.2 L 240.2,316.5 L 242.6,315.6 L 245.0,314.7 L 247.4,313.8 L 249.7,312.8 L 252.0,311.8 L 254.3,310.7 L 256.6,309.5 L 258.8,308.3 L 261.0,307.1 L 263.2,305.8 L 265.3,304.4 L 267.4,303.0 L 269.5,301.6 L 271.5,300.1 L 273.5,298.6 L 275.5,297.0 L 277.4,295.4 L 279.2,293.7 L 281.1,292.0 L 282.9,290.3 L 284.6,288.5 L 286.3,286.7 L 288.0,284.8 L 289.6,282.9 L 291.2,281.0 L 292.7,279.0 L 294.2,277.0 L 295.6,275.0 L 297.0,273.0 L 298.4,270.9 L 299.6,268.8 L 300.9,266.6 L 302.1,264.4 L 303.2,262.3 L 304.3,260.0 L 305.3,257.8 L 306.3,255.6 L 307.2,253.3 L 308.1,251.0 L 308.9,248.7 L 309.6,246.3 L 310.3,244.0 L 311.0,241.7 L 311.6,239.3 L 312.1,236.9 L 312.6,234.5 L 313.0,232.1 L 313.4,229.7 L 313.7,227.3 L 314.0,224.9 L 314.2,222.5 L 314.3,220.1 L 314.4,217.7 L 314.5,215.3 L 314.5,212.8 L 314.4,210.4 L 314.3,208.0 L 314.1,205.6 L 313.8,203.2 L 313.5,200.9 L 313.2,198.5 L 312.8,196.1 L 312.3,193.8 L 311.8,191.5 L 311.3,189.1 L 310.6,186.8 L 310.0,184.6 L 309.2,182.3 L 308.5,180.0 L 307.6,177.8 L 306.8,175.6 L 305.9,173.4 L 304.9,171.3 L 303.9,169.1 L 302.8,167.0 L 301.7,165.0 L 300.5,162.9 L 299.3,160.9 L 298.1,158.9 L 296.8,157.0 L 295.4,155.0 L 294.0,153.1 L 292.6,151.3 L 291.2,149.5 L 289.7,147.7 L 288.1,145.9 L 286.5,144.2 L 284.9,142.6 L 283.3,140.9 L 281.6,139.3 L 279.8,137.8 L 278.1,136.3 L 276.3,134.8 L 274.5,133.4 L 272.6,132.0 L 270.7,130.7 L 268.8,129.4 L 266.9,128.1 L 264.9,127.0 L 262.9,125.8 L 260.9,124.7 L 258.9,123.6 L 256.8,122.6 L 254.8,121.7 L 252.7,120.8 L 250.6,119.9 L 248.4,119.1 L 246.3,118.4 L 244.1,117.7 L 242.0,117.0 L 239.8,116.4 L 237.6,115.8 L 235.4,115.3 L 233.2,114.9 L 230.9,114.5 L 228.7,114.1 L 226.5,113.8 L 224.2,113.6 L 222.0,113.4 L 219.8,113.3 L 217.5,113.2 L 215.3,113.2 L 213.0,113.2 L 210.8,113.2 L 208.6,113.4 L 206.4,113.5 L 204.1,113.7 L 201.9,114.0 L 199.7,114.3 L 197.6,114.7 L 195.4,115.1 L 193.2,115.6 L 191.1,116.1 L 188.9,116.7 L 186.8,117.3 L 184.7,118.0 L 182.6,118.7 L 180.6,119.5 L 178.5,120.3 L 176.5,121.1 L 174.5,122.0 L 172.6,123.0 L 170.6,123.9 L 168.7,125.0 L 166.8,126.1 L 164.9,127.2 L 163.1,128.3 L 161.3,129.5 L 159.5,130.8 L 157.7,132.0 L 156.0,133.4 L 154.3,134.7 L 152.7,136.1 L 151.1,137.5 L 149.5,139.0 L 147.9,140.5 L 146.4,142.0 L 145.0,143.6 L 143.5,145.2 L 142.1,146.8 L 140.8,148.5 L 139.5,150.1 L 138.2,151.9 L 137.0,153.6 L 135.8,155.4 L 134.6,157.1 L 133.5,159.0 L 132.5,160.8 L 131.4,162.6 L 130.5,164.5 L 129.5,166.4 L 128.7,168.3 L 127.8,170.3 L 127.0,172.2 L 126.3,174.2 L 125.6,176.2 L 124.9,178.2 L 124.3,180.2 L 123.8,182.2 L 123.3,184.2 L 122.8,186.2 L 122.4,188.3 L 122.0,190.3 L 121.7,192.4 L 121.4,194.4 L 121.2,196.5 L 121.0,198.6 L 120.9,200.6 L 120.8,202.7 L 120.8,204.8 L 120.8,206.8 L 120.9,208.9 L 121.0,210.9 L 121.1,213.0 L 121.3,215.0 L 121.6,217.1 L 121.9,219.1 L 122.2,221.1 L 122.6,223.1 L 123.0,225.1 L 123.5,227.1 L 124.0,229.0 L 124.6,231.0 L 125.2,232.9 L 125.9,234.8 L 126.6,236.7 L 127.3,238.6 L 128.1,240.5 L 128.9,242.3 L 129.8,244.1 L 130.7,245.9 L 131.7,247.7 L 132.7,249.4 L 133.7,251.1 L 134.8,252.8 L 135.9,254.5 L 137.0,256.1 L 138.2,257.7 L 139.4,259.3 L 140.6,260.8 L 141.9,262.4 L 143.2,263.9 L 144.6,265.3 L 145.9,266.7 L 147.3,268.1 L 148.8,269.5 L 150.2,270.8 L 151.7,272.0 L 153.3,273.3 L 154.8,274.5 L 156.4,275.7 L 158.0,276.8 L 159.6,277.9 L 161.2,278.9 L 162.9,280.0 L 164.6,280.9 L 166.3,281.9 L 168.0,282.7 L 169.7,283.6 L 171.5,284.4 L 173.3,285.2 L 175.1,285.9 L 176.9,286.6 L 178.7,287.2 L 180.5,287.8 L 182.3,288.4 L 184.2,288.9 L 186.0,289.3 L 187.9,289.8 L 189.8,290.1 L 191.7,290.5 L 193.5,290.8 L 195.4,291.0 L 197.3,291.2 L 199.2,291.4 L 201.1,291.5 L 203.0,291.6 L 204.9,291.6 L 206.8,291.6 L 208.6,291.5 L 210.5,291.4 L 212.4,291.3 L 214.2,291.1 L 216.1,290.9 L 218.0,290.6 L 219.8,290.3 L 221.6,289.9 L 223.4,289.5 L 225.3,289.1 L 227.0,288.6 L 228.8,288.1 L 230.6,287.5 L 232.3,286.9 L 234.1,286.3 L 235.8,285.6 L 237.5,284.9 L 239.2,284.1 L 240.8,283.3 L 242.5,282.5 L 244.1,281.6 L 245.7,280.7 L 247.2,279.8 L 248.8,278.8 L 250.3,277.8 L 251.8,276.7 L 253.2,275.7 L 254.7,274.6 L 256.1,273.4 L 257.5,272.3 L 258.8,271.1 L 260.1,269.8 L 261.4,268.6 L 262.7,267.3 L 263.9,266.0 L 265.1,264.7 L 266.3,263.3 L 267.4,261.9 L 268.5,260.5 L 269.6,259.1 L 270.6,257.6 L 271.6,256.1 L 272.5,254.6 L 273.5,253.1 L 274.3,251.6 L 275.2,250.0 L 276.0,248.5 L 276.8,246.9 L 277.5,245.3 L 278.2,243.7 L 278.8,242.0 L 279.5,240.4 L 280.0,238.8 L 280.6,237.1 L 281.1,235.4 L 281.5,233.7 L 282.0,232.1 L 282.3,230.4 L 282.7,228.7 L 283.0,227.0 L 283.2,225.2 L 283.5,223.5 L 283.6,221.8 L 283.8,220.1 L 283.9,218.4 L 284.0,216.7 L 284.0,215.0 L 284.0,213.3 L 283.9,211.5 L 283.8,209.8 L 283.7,208.1 L 283.5,206.5 L 283.3,204.8 L 283.0,203.1 L 282.7,201.4 L 282.4,199.8 L 282.1,198.1 L 281.6,196.5 L 281.2,194.9 L 280.7,193.3 L 280.2,191.7 L 279.7,190.1 L 279.1,188.5 L 278.5,187.0 L 277.8,185.4 L 277.1,183.9 L 276.4,182.4 L 275.6,180.9 L 274.9,179.5 L 274.0,178.0 L 273.2,176.6 L 272.3,175.2 L 271.4,173.9 L 270.4,172.5 L 269.5,171.2 L 268.5,169.9 L 267.4,168.6 L 266.4,167.4 L 265.3,166.2 L 264.2,165.0 L 263.1,163.8 L 261.9,162.7 L 260.7,161.6 L 259.5,160.5 L 258.3,159.5 L 257.0,158.4 L 255.7,157.5 L 254.4,156.5 L 253.1,155.6 L 251.8,154.7 L 250.4,153.8 L 249.1,153.0 L 247.7,152.2 L 246.3,151.5 L 244.9,150.7 L 243.5,150.0 L 242.0,149.4 L 240.6,148.8 L 239.1,148.2 L 237.6,147.6 L 236.1,147.1 L 234.6,146.6 L 233.1,146.2 L 231.6,145.8 L 230.1,145.4 L 228.6,145.1 L 227.0,144.8 L 225.5,144.5 L 224.0,144.3 L 222.4,144.1 L 220.9,143.9 L 219.4,143.8 L 217.8,143.7 L 216.3,143.7 L 214.7,143.6 L 213.2,143.7 L 211.7,143.7 L 210.1,143.8 L 208.6,143.9 L 207.1,144.1 L 205.6,144.3 L 204.1,144.5 L 202.6,144.8 L 201.1,145.1 L 199.6,145.4 L 198.2,145.8 L 196.7,146.2 L 195.3,146.6 L 193.8,147.1 L 192.4,147.6 L 191.0,148.1 L 189.6,148.7 L 188.3,149.3 L 186.9,149.9 L 185.6,150.5 L 184.3,151.2 L 183.0,151.9 L 181.7,152.7 L 180.4,153.4 L 179.2,154.2 L 178.0,155.0 L 176.8,155.9 L 175.6,156.8 L 174.4,157.7 L 173.3,158.6 L 172.2,159.5 L 171.1,160.5 L 170.1,161.5 L 169.0,162.5 L 168.0,163.6 L 167.0,164.6 L 166.1,165.7 L 165.1,166.8 L 164.2,167.9 L 163.4,169.1 L 162.5,170.2 L 161.7,171.4 L 160.9,172.6 L 160.2,173.8 L 159.4,175.0 L 158.7,176.2 L 158.1,177.5 L 157.4,178.8 L 156.8,180.0 L 156.2,181.3 L 155.7,182.6 L 155.2,183.9 L 154.7,185.2 L 154.2,186.6 L 153.8,187.9 L 153.4,189.2 L 153.1,190.6 L 152.8,191.9 L 152.5,193.3 L 152.2,194.6 L 152.0,196.0 L 151.8,197.4 L 151.6,198.7 L 151.5,200.1 L 151.4,201.5 L 151.3,202.8 L 151.3,204.2 L 151.3,205.6 L 151.3,206.9 L 151.3,208.3 L 151.4,209.6 L 151.5,211.0 L 151.7,212.3 L 151.9,213.7 L 152.1,215.0 L 152.3,216.3 L 152.6,217.6 L 152.9,218.9 L 153.2,220.2 L 153.6,221.5 L 154.0,222.8 L 154.4,224.0 L 154.8,225.3 L 155.3,226.5 L 155.8,227.7 L 156.3,228.9 L 156.9,230.1 L 157.5,231.3 L 158.1,232.5 L 158.7,233.6 L 159.4,234.7 L 160.1,235.8 L 160.8,236.9 L 161.5,238.0 L 162.3,239.1 L 163.0,240.1 L 163.8,241.1 L 164.7,242.1 L 165.5,243.1 L 166.4,244.0 L 167.2,244.9 L 168.1,245.8 L 169.1,246.7 L 170.0,247.6 L 171.0,248.4 L 171.9,249.2 L 172.9,250.0 L 173.9,250.8 L 174.9,251.5 L 176.0,252.2 L 177.0,252.9 L 178.1,253.5 L 179.2,254.2 L 180.2,254.8 L 181.3,255.4 L 182.5,255.9 L 183.6,256.4 L 184.7,256.9 L 185.8,257.4 L 187.0,257.8 L 188.1,258.3 L 189.3,258.6 L 190.5,259.0 L 191.7,259.3 L 192.8,259.6 L 194.0,259.9 L 195.2,260.2 L 196.4,260.4 L 197.6,260.6 L 198.8,260.7 L 200.0,260.9 L 201.2,261.0 L 202.4,261.1 L 203.5,261.1 L 204.7,261.1 L 205.9,261.1 L 207.1,261.1 L 208.3,261.0 L 209.5,261.0 L 210.6,260.8 L 211.8,260.7 L 213.0,260.5 L 214.1,260.3 L 215.3,260.1 L 216.4,259.9 L 217.5,259.6 L 218.7,259.3 L 219.8,259.0 L 220.9,258.6 L 222.0,258.3 L 223.0,257.9 L 224.1,257.5 L 225.2,257.0 L 226.2,256.5 L 227.2,256.0 L 228.2,255.5 L 229.2,255.0 L 230.2,254.4 L 231.2,253.9 L 232.2,253.3 L 233.1,252.6 L 234.0,252.0 L 234.9,251.3 L 235.8,250.7 L 236.7,250.0 L 237.5,249.2 L 238.4,248.5 L 239.2,247.8 L 240.0,247.0 L 240.7,246.2 L 241.5,245.4 L 242.2,244.6 L 242.9,243.8 L 243.6,242.9 L 244.3,242.1 L 244.9,241.2 L 245.5,240.3 L 246.1,239.4 L 246.7,238.5 L 247.3,237.6 L 247.8,236.6 L 248.3,235.7 L 248.8,234.7 L 249.3,233.8 L 249.7,232.8 L 250.1,231.8 L 250.5,230.9 L 250.9,229.9 L 251.2,228.9 L 251.6,227.9 L 251.9,226.9 L 252.1,225.9 L 252.4,224.9 L 252.6,223.8 L 252.8,222.8 L 253.0,221.8 L 253.1,220.8 L 253.3,219.8 L 253.4,218.7 L 253.4,217.7 L 253.5,216.7 L 253.5,215.7 L 253.5,214.7 L 253.5,213.7 L 253.5,212.6 L 253.4,211.6 L 253.3,210.6 L 253.2,209.6 L 253.1,208.6 L 252.9,207.7 L 252.8,206.7 L 252.6,205.7 L 252.3,204.7 L 252.1,203.8 L 251.8,202.8 L 251.6,201.9 L 251.2,201.0 L 250.9,200.0 L 250.6,199.1 L 250.2,198.2 L 249.8,197.3 L 249.4,196.5 L 249.0,195.6 L 248.5,194.7 L 248.1,193.9 L 247.6,193.1 L 247.1,192.3 L 246.6,191.5 L 246.0,190.7 L 245.5,189.9 L 244.9,189.2 L 244.3,188.4 L 243.7,187.7 L 243.1,187.0 L 242.5,186.3 L 241.8,185.6 L 241.2,185.0 L 240.5,184.3 L 239.8,183.7 L 239.1,183.1 L 238.4,182.5 L 237.7,181.9 L 237.0,181.4 L 236.2,180.9 L 235.5,180.4 L 234.7,179.9 L 233.9,179.4 L 233.2,178.9 L 232.4,178.5 L 231.6,178.1 L 230.8,177.7 L 230.0,177.3 L 229.2,177.0 L 228.3,176.6 L 227.5,176.3 L 226.7,176.0 L 225.9,175.7 L 225.0,175.5 L 224.2,175.3 L 223.3,175.0 L 222.5,174.9 L 221.6,174.7 L 220.8,174.5 L 219.9,174.4 L 219.1,174.3 L 218.2,174.2 L 217.4,174.1 L 216.5,174.1 L 215.7,174.0 L 214.8,174.0 L 214.0,174.0 L 213.2,174.1 L 212.3,174.1 L 211.5,174.2 L 210.7,174.3 L 209.9,174.4 L 209.0,174.5 L 208.2,174.7 L 207.4,174.8 L 206.6,175.0 L 205.8,175.2 L 205.0,175.4 L 204.3,175.6 L 203.5,175.9 L 202.7,176.2 L 202.0,176.4 L 201.2,176.8 L 200.5,177.1 L 199.8,177.4 L 199.1,177.8 L 198.4,178.1 L 197.7,178.5 L 197.0,178.9 L 196.3,179.3 L 195.7,179.7 L 195.0,180.2 L 194.4,180.6 L 193.8,181.1 L 193.2,181.6 L 192.6,182.1 L 192.0,182.6 L 191.4,183.1 L 190.9,183.6 L 190.4,184.1 L 189.8,184.7 L 189.3,185.2 L 188.8,185.8 L 188.4,186.4 L 187.9,187.0 L 187.5,187.6 L 187.0,188.2 L 186.6,188.8 L 186.2,189.4 L 185.8,190.0 L 185.5,190.6 L 185.1,191.3 L 184.8,191.9 L 184.5,192.6 L 184.2,193.2 L 183.9,193.9 L 183.6,194.5 L 183.4,195.2 L 183.1,195.9 L 182.9,196.6 L 182.7,197.2 L 182.5,197.9 L 182.4,198.6 L 182.2,199.3 L 182.1,199.9 L 182.0,200.6 L 181.9,201.3 L 181.8,202.0 L 181.7,202.7 L 181.6,203.4 L 181.6,204.0 L 181.6,204.7 L 181.6,205.4 L 181.6,206.0 L 181.6,206.7 L 181.7,207.4 L 181.7,208.0 L 181.8,208.7 L 181.9,209.4 L 182.0,210.0"
        fill="none"
        stroke="black"
        stroke-width="2.5"
        stroke-linecap="round"
        stroke-linejoin="round"/>

  <!-- POINT DE DEPART (extrémité extérieure droite) -->
  <circle id="point-depart"
          cx="406.0"
          cy="210.0"
          r="5.5"
          fill="black"/>

  <!-- FLECHE DIRECTION (extrémité intérieure) -->
  <polygon id="fleche"
           points="182.0,210.0 178.8,199.5 187.7,200.7"
           fill="black"/>

  <!-- TEXTE MOFTAL — changer fill, font-size, font-family librement -->
  <text id="texte-moftal"
        x="210"
        y="210"
        text-anchor="middle"
        dominant-baseline="middle"
        font-family="Arial, Helvetica, sans-serif"
        font-size="30"
        font-weight="bold"
        fill="#16a34a">Moftal</text>

</svg>