<svg xmlns="http://www.w3.org/2000/svg" viewBox="0 0 100 100" width="100" height="100">
  <!-- Cercle vert -->
  <circle cx="50" cy="50" r="50" fill="#16a34a"/>

  <defs>
    <marker id="arr" markerWidth="5" markerHeight="4" refX="5" refY="2" orient="auto">
      <polygon points="0 0, 5 2, 0 4" fill="white"/>
    </marker>
  </defs>

  <!-- Spirale blanche - lignes plus épaisses et espacées -->
  <path d="M 92.00,50.00 L 91.97,49.12 L 91.93,48.24 L 91.86,47.37 L 91.78,46.49 L 91.68,45.62 L 91.56,44.75 L 91.42,43.88 L 91.26,43.02 L 91.09,42.16 L 90.90,41.31 L 90.69,40.46 L 90.46,39.61 L 90.22,38.77 L 89.96,37.94 L 89.68,37.11 L 89.38,36.29 L 89.07,35.47 L 88.74,34.66 L 88.39,33.86 L 88.03,33.07 L 87.65,32.28 L 87.25,31.51 L 86.84,30.74 L 86.41,29.98 L 85.97,29.23 L 85.51,28.49 L 85.04,27.77 L 84.55,27.05 L 84.04,26.34 L 83.53,25.64 L 82.99,24.96 L 82.45,24.28 L 81.89,23.62 L 81.31,22.97 L 80.73,22.33 L 80.13,21.71 L 79.51,21.10 L 78.89,20.50 L 78.25,19.91 L 77.60,19.34 L 76.94,18.79 L 76.27,18.24 L 75.59,17.71 L 74.90,17.20 L 74.19,16.70 L 73.48,16.22 L 72.76,15.75 L 72.02,15.29 L 71.28,14.86 L 70.53,14.44 L 69.78,14.03 L 69.01,13.64 L 68.23,13.27 L 67.45,12.91 L 66.67,12.57 L 65.87,12.25 L 65.07,11.94 L 64.26,11.65 L 63.45,11.38 L 62.63,11.12 L 61.81,10.88 L 60.98,10.66 L 60.15,10.46 L 59.32,10.27 L 58.48,10.10 L 57.64,9.95 L 56.80,9.82 L 55.95,9.71 L 55.10,9.61 L 54.25,9.53 L 53.40,9.47 L 52.55,9.42 L 51.70,9.40 L 50.85,9.39 L 50.00,9.40 L 49.15,9.43 L 48.30,9.47 L 47.45,9.54 L 46.61,9.62 L 45.77,9.72 L 44.93,9.83 L 44.09,9.96 L 43.25,10.12 L 42.42,10.28 L 41.60,10.47 L 40.78,10.67 L 39.96,10.89 L 39.15,11.13 L 38.34,11.38 L 37.54,11.65 L 36.75,11.94 L 35.96,12.24 L 35.18,12.56 L 34.40,12.90 L 33.64,13.25 L 32.88,13.62 L 32.13,14.00 L 31.39,14.40 L 30.66,14.81 L 29.93,15.24 L 29.22,15.69 L 28.52,16.15 L 27.82,16.62 L 27.14,17.11 L 26.47,17.61 L 25.80,18.12 L 25.15,18.65 L 24.51,19.19 L 23.89,19.75 L 23.27,20.31 L 22.67,20.89 L 22.08,21.49 L 21.50,22.09 L 20.93,22.71 L 20.38,23.33 L 19.85,23.97 L 19.32,24.62 L 18.81,25.28 L 18.32,25.95 L 17.83,26.63 L 17.37,27.32 L 16.91,28.02 L 16.48,28.73 L 16.05,29.44 L 15.65,30.17 L 15.26,30.90 L 14.88,31.64 L 14.52,32.39 L 14.18,33.14 L 13.85,33.90 L 13.54,34.67 L 13.24,35.45 L 12.96,36.23 L 12.70,37.01 L 12.45,37.80 L 12.22,38.59 L 12.01,39.39 L 11.81,40.20 L 11.64,41.00 L 11.47,41.81 L 11.33,42.62 L 11.20,43.44 L 11.09,44.25 L 11.00,45.07 L 10.92,45.89 L 10.86,46.71 L 10.82,47.54 L 10.80,48.36 L 10.79,49.18 L 10.80,50.00 L 10.83,50.82 L 10.87,51.64 L 10.93,52.46 L 11.01,53.27 L 11.11,54.09 L 11.22,54.90 L 11.35,55.71 L 11.50,56.51 L 11.66,57.31 L 11.84,58.11 L 12.04,58.90 L 12.25,59.69 L 12.48,60.48 L 12.72,61.25 L 12.98,62.03 L 13.26,62.79 L 13.56,63.55 L 13.87,64.31 L 14.19,65.05 L 14.53,65.79 L 14.89,66.52 L 15.26,67.25 L 15.64,67.96 L 16.04,68.67 L 16.46,69.37 L 16.88,70.06 L 17.33,70.73 L 17.78,71.40 L 18.26,72.06 L 18.74,72.71 L 19.24,73.35 L 19.75,73.98 L 20.27,74.59 L 20.81,75.20 L 21.35,75.79 L 21.91,76.37 L 22.49,76.94 L 23.07,77.50 L 23.66,78.04 L 24.27,78.58 L 24.89,79.09 L 25.51,79.60 L 26.15,80.09 L 26.80,80.57 L 27.45,81.03 L 28.12,81.48 L 28.79,81.92 L 29.48,82.34 L 30.17,82.75 L 30.87,83.14 L 31.57,83.52 L 32.29,83.88 L 33.01,84.23 L 33.74,84.56 L 34.47,84.87 L 35.21,85.17 L 35.96,85.46 L 36.71,85.73 L 37.47,85.98 L 38.23,86.22 L 39.00,86.44 L 39.77,86.64 L 40.54,86.83 L 41.32,87.00 L 42.10,87.16 L 42.89,87.30 L 43.67,87.42 L 44.46,87.52 L 45.25,87.61 L 46.04,87.69 L 46.83,87.74 L 47.62,87.78 L 48.42,87.80 L 49.21,87.81 L 50.00,87.80 L 50.79,87.77 L 51.58,87.73 L 52.37,87.67 L 53.16,87.59 L 53.94,87.50 L 54.72,87.39 L 55.50,87.27 L 56.28,87.12 L 57.05,86.97 L 57.82,86.79 L 58.58,86.60 L 59.34,86.40 L 60.10,86.17 L 60.85,85.94 L 61.59,85.68 L 62.33,85.42 L 63.07,85.13 L 63.79,84.83 L 64.51,84.52 L 65.22,84.19 L 65.93,83.85 L 66.62,83.49 L 67.31,83.12 L 67.99,82.73 L 68.67,82.33 L 69.33,81.92 L 69.98,81.49 L 70.63,81.05 L 71.26,80.59 L 71.89,80.13 L 72.50,79.65 L 73.11,79.16 L 73.70,78.65 L 74.28,78.13 L 74.86,77.61 L 75.42,77.07 L 75.96,76.51 L 76.50,75.95 L 77.02,75.38 L 77.54,74.79 L 78.04,74.20 L 78.52,73.59 L 78.99,72.98 L 79.45,72.36 L 79.90,71.72 L 80.33,71.08 L 80.75,70.43 L 81.16,69.77 L 81.55,69.11 L 81.93,68.43 L 82.29,67.75 L 82.64,67.06 L 82.97,66.37 L 83.29,65.67 L 83.59,64.96 L 83.88,64.24 L 84.16,63.52 L 84.41,62.80 L 84.66,62.07 L 84.88,61.33 L 85.10,60.60 L 85.29,59.85 L 85.47,59.11 L 85.64,58.36 L 85.79,57.61 L 85.92,56.85 L 86.04,56.10 L 86.14,55.34 L 86.22,54.58 L 86.29,53.81 L 86.35,53.05 L 86.38,52.29 L 86.41,51.53 L 86.41,50.76 L 86.40,50.00 L 86.37,49.24 L 86.33,48.48 L 86.27,47.72 L 86.20,46.96 L 86.11,46.20 L 86.00,45.45 L 85.88,44.70 L 85.74,43.95 L 85.59,43.21 L 85.42,42.47 L 85.24,41.73 L 85.04,41.00 L 84.83,40.28 L 84.60,39.55 L 84.35,38.84 L 84.09,38.13 L 83.82,37.42 L 83.53,36.72 L 83.23,36.03 L 82.91,35.35 L 82.58,34.67 L 82.24,34.00 L 81.88,33.33 L 81.50,32.68 L 81.12,32.03 L 80.72,31.40 L 80.31,30.77 L 79.88,30.15 L 79.45,29.53 L 79.00,28.93 L 78.53,28.34 L 78.06,27.76 L 77.57,27.19 L 77.07,26.63 L 76.56,26.08 L 76.04,25.54 L 75.51,25.02 L 74.97,24.50 L 74.42,24.00 L 73.86,23.50 L 73.28,23.02 L 72.70,22.56 L 72.11,22.10 L 71.51,21.66 L 70.90,21.23 L 70.28,20.82 L 69.66,20.41 L 69.02,20.02 L 68.38,19.65 L 67.73,19.28 L 67.08,18.94 L 66.41,18.60 L 65.74,18.28 L 65.07,17.98 L 64.39,17.68 L 63.70,17.41 L 63.01,17.15 L 62.31,16.90 L 61.61,16.66 L 60.90,16.45 L 60.19,16.24 L 59.48,16.06 L 58.76,15.88 L 58.04,15.72 L 57.32,15.58 L 56.59,15.45 L 55.86,15.34 L 55.13,15.25 L 54.40,15.16 L 53.67,15.10 L 52.93,15.05 L 52.20,15.01 L 51.47,14.99 L 50.73,14.99 L 50.00,15.00 L 49.27,15.03 L 48.54,15.07 L 47.81,15.12 L 47.08,15.20 L 46.35,15.28 L 45.63,15.39 L 44.91,15.50 L 44.19,15.64 L 43.47,15.78 L 42.76,15.95 L 42.05,16.12 L 41.35,16.32 L 40.65,16.52 L 39.96,16.74 L 39.27,16.98 L 38.59,17.23 L 37.91,17.49 L 37.24,17.77 L 36.57,18.06 L 35.92,18.37 L 35.26,18.69 L 34.62,19.02 L 33.98,19.36 L 33.35,19.72 L 32.73,20.09 L 32.12,20.48 L 31.52,20.87 L 30.92,21.28 L 30.33,21.70 L 29.76,22.14 L 29.19,22.58 L 28.63,23.04 L 28.08,23.51 L 27.54,23.99 L 27.02,24.48 L 26.50,24.98 L 26.00,25.49 L 25.50,26.01 L 25.02,26.54 L 24.54,27.08 L 24.08,27.63 L 23.64,28.19 L 23.20,28.76 L 22.78,29.34 L 22.36,29.92 L 21.96,30.52 L 21.58,31.12 L 21.21,31.73 L 20.84,32.34 L 20.50,32.97 L 20.16,33.60 L 19.84,34.23 L 19.54,34.88 L 19.24,35.53 L 18.96,36.18 L 18.70,36.84 L 18.45,37.51 L 18.21,38.18 L 17.99,38.85 L 17.78,39.53 L 17.58,40.21 L 17.40,40.90 L 17.24,41.59 L 17.09,42.28 L 16.95,42.98 L 16.83,43.67 L 16.72,44.37 L 16.63,45.07 L 16.55,45.77 L 16.49,46.48 L 16.44,47.18 L 16.41,47.89 L 16.39,48.59 L 16.39,49.30 L 16.40,50.00 L 16.43,50.70 L 16.47,51.41 L 16.52,52.11 L 16.59,52.81 L 16.68,53.50 L 16.78,54.20 L 16.89,54.89 L 17.02,55.58 L 17.16,56.26 L 17.32,56.95 L 17.49,57.63 L 17.67,58.30 L 17.87,58.97 L 18.08,59.64 L 18.31,60.30 L 18.55,60.95 L 18.80,61.60 L 19.07,62.25 L 19.35,62.88 L 19.65,63.51 L 19.95,64.14 L 20.27,64.76 L 20.60,65.37 L 20.95,65.97 L 21.31,66.57 L 21.67,67.15 L 22.06,67.73 L 22.45,68.30 L 22.85,68.87 L 23.27,69.42 L 23.70,69.96 L 24.14,70.50 L 24.59,71.02 L 25.05,71.54 L 25.52,72.05 L 26.00,72.54 L 26.49,73.03 L 26.99,73.50 L 27.50,73.96 L 28.02,74.41 L 28.55,74.86 L 29.08,75.29 L 29.63,75.70 L 30.18,76.11 L 30.74,76.50 L 31.31,76.89 L 31.89,77.26 L 32.48,77.61 L 33.07,77.96 L 33.67,78.29 L 34.27,78.61 L 34.88,78.92 L 35.50,79.21 L 36.12,79.49 L 36.75,79.76 L 37.38,80.01 L 38.02,80.25 L 38.67,80.48 L 39.31,80.69 L 39.96,80.89 L 40.62,81.08 L 41.28,81.25 L 41.94,81.41 L 42.60,81.55 L 43.27,81.68 L 43.93,81.79 L 44.61,81.90 L 45.28,81.98 L 45.95,82.06 L 46.62,82.12 L 47.30,82.16 L 47.97,82.19 L 48.65,82.21 L 49.33,82.21 L 50.00,82.20 L 50.67,82.17 L 51.35,82.13 L 52.02,82.08 L 52.69,82.01 L 53.36,81.93 L 54.02,81.83 L 54.68,81.73 L 55.35,81.60 L 56.00,81.46 L 56.66,81.31 L 57.31,81.15 L 57.95,80.97 L 58.59,80.78 L 59.23,80.58 L 59.86,80.36 L 60.49,80.13 L 61.11,79.88 L 61.73,79.63 L 62.34,79.36 L 62.95,79.08 L 63.54,78.78 L 64.13,78.47 L 64.72,78.16 L 65.30,77.82 L 65.87,77.48 L 66.43,77.13 L 66.98,76.76 L 67.53,76.38 L 68.07,76.00 L 68.60,75.60 L 69.12,75.19 L 69.63,74.77 L 70.13,74.34 L 70.63,73.89 L 71.11,73.44 L 71.58,72.98 L 72.05,72.51 L 72.50,72.03 L 72.94,71.54 L 73.37,71.05 L 73.80,70.54 L 74.21,70.03 L 74.61,69.50 L 74.99,68.97 L 75.37,68.43 L 75.74,67.89 L 76.09,67.33 L 76.43,66.77 L 76.76,66.21 L 77.08,65.63 L 77.38,65.05 L 77.68,64.47 L 77.96,63.88 L 78.22,63.28 L 78.48,62.68 L 78.72,62.07 L 78.95,61.46 L 79.17,60.85 L 79.37,60.23 L 79.56,59.60 L 79.74,58.98 L 79.90,58.35 L 80.05,57.72 L 80.19,57.08 L 80.31,56.44 L 80.42,55.80 L 80.52,55.16 L 80.60,54.52 L 80.67,53.87 L 80.72,53.23 L 80.77,52.58 L 80.80,51.94 L 80.81,51.29 L 80.81,50.65 L 80.80,50.00 L 80.77,49.36 L 80.74,48.71 L 80.68,48.07 L 80.62,47.43 L 80.54,46.79 L 80.45,46.15 L 80.34,45.52 L 80.22,44.89 L 80.09,44.26 L 79.94,43.64 L 79.79,43.01 L 79.62,42.40 L 79.43,41.78 L 79.24,41.17 L 79.03,40.57 L 78.80,39.97 L 78.57,39.37 L 78.32,38.79 L 78.07,38.20 L 77.80,37.62 L 77.51,37.05 L 77.22,36.49 L 76.91,35.93 L 76.60,35.38 L 76.27,34.83 L 75.93,34.30 L 75.58,33.77 L 75.22,33.24 L 74.85,32.73 L 74.46,32.23 L 74.07,31.73 L 73.67,31.24 L 73.26,30.76 L 72.84,30.29 L 72.40,29.83 L 71.96,29.38 L 71.51,28.93 L 71.05,28.50 L 70.59,28.08 L 70.11,27.67 L 69.63,27.26 L 69.13,26.87 L 68.63,26.49 L 68.13,26.12 L 67.61,25.76 L 67.09,25.41 L 66.56,25.08 L 66.02,24.75 L 65.48,24.44 L 64.93,24.13 L 64.38,23.84 L 63.82,23.57 L 63.25,23.30 L 62.68,23.04 L 62.11,22.80 L 61.53,22.57 L 60.95,22.35 L 60.36,22.15 L 59.77,21.95 L 59.17,21.77 L 58.57,21.60 L 57.97,21.45 L 57.37,21.31 L 56.76,21.18 L 56.15,21.06 L 55.54,20.96 L 54.93,20.86 L 54.31,20.79 L 53.70,20.72 L 53.08,20.67 L 52.47,20.63 L 51.85,20.60 L 51.23,20.59 L 50.62,20.59 L 50.00,20.60 L 49.38,20.63 L 48.77,20.66 L 48.16,20.71 L 47.55,20.78 L 46.94,20.85 L 46.33,20.94 L 45.72,21.04 L 45.12,21.16 L 44.52,21.29 L 43.93,21.43 L 43.33,21.58 L 42.74,21.74 L 42.16,21.92 L 41.58,22.10 L 41.00,22.31 L 40.43,22.52 L 39.86,22.74 L 39.30,22.98 L 38.74,23.22 L 38.19,23.48 L 37.65,23.75 L 37.11,24.03 L 36.58,24.33 L 36.05,24.63 L 35.53,24.94 L 35.02,25.27 L 34.52,25.60 L 34.02,25.95 L 33.53,26.30 L 33.05,26.67 L 32.57,27.04 L 32.11,27.43 L 31.65,27.82 L 31.20,28.22 L 30.76,28.64 L 30.33,29.06 L 29.91,29.49 L 29.50,29.93 L 29.10,30.37 L 28.71,30.83 L 28.32,31.29 L 27.95,31.76 L 27.59,32.24 L 27.24,32.72 L 26.89,33.21 L 26.56,33.71 L 26.24,34.22 L 25.93,34.73 L 25.63,35.24 L 25.35,35.77 L 25.07,36.30 L 24.81,36.83 L 24.55,37.37 L 24.31,37.91 L 24.08,38.46 L 23.86,39.01 L 23.65,39.57 L 23.46,40.13 L 23.28,40.69 L 23.10,41.26 L 22.94,41.83 L 22.80,42.40 L 22.66,42.98 L 22.54,43.56 L 22.43,44.14 L 22.33,44.72 L 22.24,45.31 L 22.17,45.89 L 22.11,46.48 L 22.06,47.06 L 22.02,47.65 L 22.00,48.24 L 21.99,48.83 L 21.99,49.41 L 22.00,50.00 L 22.02,50.59 L 22.06,51.17 L 22.11,51.75 L 22.17,52.34 L 22.25,52.92 L 22.33,53.50 L 22.43,54.07 L 22.54,54.64 L 22.66,55.22 L 22.79,55.78 L 22.94,56.35 L 23.10,56.91 L 23.27,57.46 L 23.45,58.02 L 23.64,58.57 L 23.84,59.11 L 24.05,59.65 L 24.28,60.18 L 24.51,60.71 L 24.76,61.24 L 25.02,61.75 L 25.29,62.27 L 25.57,62.77 L 25.86,63.27 L 26.16,63.77 L 26.46,64.25 L 26.78,64.73 L 27.11,65.21 L 27.45,65.67 L 27.80,66.13 L 28.16,66.58 L 28.52,67.02 L 28.90,67.46 L 29.28,67.88 L 29.68,68.30 L 30.08,68.71 L 30.49,69.11 L 30.91,69.50 L 31.33,69.88 L 31.76,70.25 L 32.20,70.62 L 32.65,70.97 L 33.11,71.31 L 33.57,71.65 L 34.04,71.97 L 34.51,72.29 L 34.99,72.59 L 35.48,72.88 L 35.97,73.17 L 36.47,73.44 L 36.97,73.70 L 37.48,73.95 L 37.99,74.19 L 38.51,74.42 L 39.03,74.64 L 39.55,74.85 L 40.08,75.04 L 40.62,75.23 L 41.15,75.40 L 41.69,75.56 L 42.24,75.71 L 42.78,75.85 L 43.33,75.98 L 43.88,76.10 L 44.43,76.20 L 44.98,76.29 L 45.54,76.37 L 46.10,76.44 L 46.65,76.50 L 47.21,76.55 L 47.77,76.58 L 48.33,76.60 L 48.88,76.61 L 49.44,76.61 L 50.00,76.60 L 50.56,76.58 L 51.11,76.54 L 51.67,76.49 L 52.22,76.43 L 52.77,76.36 L 53.32,76.28 L 53.87,76.19 L 54.41,76.08 L 54.95,75.96 L 55.49,75.84 L 56.03,75.70 L 56.56,75.55 L 57.09,75.39 L 57.61,75.21 L 58.13,75.03 L 58.65,74.84 L 59.16,74.63 L 59.67,74.42 L 60.17,74.19 L 60.67,73.96 L 61.16,73.71 L 61.64,73.46 L 62.12,73.19 L 62.60,72.92 L 63.07,72.63 L 63.53,72.34 L 63.98,72.03 L 64.43,71.72 L 64.87,71.40 L 65.31,71.07 L 65.73,70.73 L 66.15,70.38 L 66.56,70.02 L 66.97,69.66 L 67.36,69.28 L 67.75,68.90 L 68.13,68.51 L 68.50,68.11 L 68.86,67.71 L 69.21,67.30 L 69.56,66.88 L 69.89,66.46 L 70.22,66.02 L 70.53,65.59 L 70.84,65.14 L 71.14,64.69 L 71.42,64.23 L 71.70,63.77 L 71.97,63.31 L 72.23,62.83 L 72.48,62.36 L 72.71,61.87 L 72.94,61.39 L 73.16,60.90 L 73.36,60.40 L 73.56,59.90 L 73.74,59.40 L 73.92,58.89 L 74.08,58.39 L 74.23,57.87 L 74.37,57.36 L 74.51,56.84 L 74.63,56.32 L 74.73,55.80 L 74.83,55.28 L 74.92,54.75 L 74.99,54.23 L 75.06,53.70 L 75.11,53.17 L 75.15,52.64 L 75.19,52.11 L 75.21,51.59 L 75.22,51.06 L 75.21,50.53 L 75.20,50.00 L 75.18,49.47 L 75.14,48.95 L 75.09,48.42 L 75.04,47.90 L 74.97,47.38 L 74.89,46.86 L 74.80,46.34 L 74.70,45.82 L 74.59,45.31 L 74.47,44.80 L 74.33,44.29 L 74.19,43.79 L 74.04,43.29 L 73.87,42.79 L 73.70,42.30 L 73.52,41.81 L 73.32,41.33 L 73.12,40.85 L 72.90,40.37 L 72.68,39.90 L 72.45,39.44 L 72.20,38.98 L 71.95,38.52 L 71.69,38.08 L 71.42,37.63 L 71.14,37.20 L 70.85,36.77 L 70.55,36.34 L 70.25,35.93 L 69.93,35.52 L 69.61,35.11 L 69.28,34.72 L 68.94,34.33 L 68.60,33.95 L 68.24,33.58 L 67.88,33.21 L 67.51,32.85 L 67.14,32.50 L 66.75,32.16 L 66.36,31.83 L 65.97,31.50 L 65.56,31.19 L 65.15,30.88 L 64.74,30.58 L 64.32,30.29 L 63.89,30.01 L 63.46,29.74 L 63.02,29.48 L 62.58,29.23 L 62.13,28.98 L 61.68,28.75 L 61.23,28.53 L 60.76,28.31 L 60.30,28.11 L 59.83,27.92 L 59.36,27.73 L 58.89,27.56 L 58.41,27.40 L 57.93,27.24 L 57.44,27.10 L 56.95,26.97 L 56.47,26.84 L 55.97,26.73 L 55.48,26.63 L 54.99,26.54 L 54.49,26.46 L 53.99,26.39 L 53.50,26.33 L 53.00,26.28 L 52.50,26.24 L 52.00,26.21 L 51.50,26.19 L 51.00,26.18 L 50.50,26.19 L 50.00,26.20 L 49.50,26.22 L 49.00,26.26 L 48.51,26.30 L 48.01,26.36 L 47.52,26.42 L 47.03,26.50 L 46.54,26.58 L 46.06,26.68 L 45.57,26.79 L 45.09,26.90 L 44.61,27.03 L 44.14,27.16 L 43.66,27.31 L 43.20,27.47 L 42.73,27.63 L 42.27,27.81 L 41.81,27.99 L 41.36,28.18 L 40.91,28.39 L 40.47,28.60 L 40.03,28.82 L 39.60,29.05 L 39.17,29.29 L 38.75,29.54 L 38.33,29.79 L 37.92,30.06 L 37.52,30.33 L 37.12,30.61 L 36.73,30.90 L 36.34,31.20 L 35.96,31.50 L 35.59,31.82 L 35.22,32.14 L 34.86,32.46 L 34.51,32.80 L 34.17,33.14 L 33.83,33.49 L 33.50,33.84 L 33.18,34.21 L 32.87,34.57 L 32.56,34.95 L 32.27,35.33 L 31.98,35.72 L 31.70,36.11 L 31.42,36.50 L 31.16,36.91 L 30.91,37.31 L 30.66,37.73 L 30.42,38.14 L 30.20,38.57 L 29.98,38.99 L 29.77,39.42 L 29.57,39.86 L 29.38,40.30 L 29.20,40.74 L 29.02,41.18 L 28.86,41.63 L 28.71,42.08 L 28.56,42.54 L 28.43,42.99 L 28.31,43.45 L 28.19,43.91 L 28.09,44.37 L 27.99,44.84 L 27.91,45.30 L 27.83,45.77 L 27.77,46.24 L 27.71,46.71 L 27.67,47.18 L 27.63,47.65 L 27.60,48.12 L 27.59,48.59 L 27.58,49.06 L 27.59,49.53 L 27.60,50.00 L 27.62,50.47 L 27.66,50.94 L 27.70,51.40 L 27.75,51.87 L 27.82,52.33 L 27.89,52.79 L 27.97,53.25 L 28.06,53.71 L 28.16,54.17 L 28.27,54.62 L 28.39,55.07 L 28.52,55.51 L 28.66,55.96 L 28.81,56.40 L 28.96,56.84 L 29.13,57.27 L 29.30,57.70 L 29.49,58.12 L 29.68,58.54 L 29.88,58.96 L 30.09,59.37 L 30.30,59.78 L 30.53,60.18 L 30.76,60.58 L 31.01,60.97 L 31.25,61.35 L 31.51,61.73 L 31.78,62.11 L 32.05,62.48 L 32.33,62.84 L 32.62,63.19 L 32.91,63.54 L 33.22,63.89 L 33.52,64.22 L 33.84,64.55 L 34.16,64.87 L 34.49,65.19 L 34.82,65.50 L 35.16,65.80 L 35.51,66.09 L 35.86,66.38 L 36.22,66.66 L 36.58,66.93 L 36.95,67.19 L 37.33,67.44 L 37.71,67.69 L 38.09,67.93 L 38.48,68.16 L 38.87,68.38 L 39.27,68.59 L 39.67,68.80 L 40.07,68.99 L 40.48,69.18 L 40.89,69.36 L 41.31,69.53 L 41.72,69.69 L 42.15,69.84 L 42.57,69.98 L 43.00,70.11 L 43.42,70.24 L 43.85,70.35 L 44.29,70.46 L 44.72,70.56 L 45.16,70.65 L 45.60,70.72 L 46.03,70.79 L 46.47,70.85 L 46.91,70.90 L 47.35,70.95 L 47.80,70.98 L 48.24,71.00 L 48.68,71.01 L 49.12,71.02 L 49.56,71.01 L 50.00,71.00 L 50.44,70.98 L 50.88,70.94 L 51.32,70.90 L 51.75,70.85 L 52.19,70.79 L 52.62,70.72 L 53.05,70.65 L 53.48,70.56 L 53.90,70.46 L 54.33,70.36 L 54.75,70.25 L 55.17,70.12 L 55.58,69.99 L 55.99,69.85 L 56.40,69.71 L 56.81,69.55 L 57.21,69.39 L 57.61,69.21 L 58.00,69.03 L 58.39,68.84 L 58.77,68.65 L 59.15,68.44 L 59.53,68.23 L 59.90,68.01 L 60.27,67.78 L 60.63,67.55 L 60.98,67.31 L 61.33,67.06 L 61.68,66.80 L 62.01,66.54 L 62.35,66.27 L 62.67,65.99 L 62.99,65.71 L 63.31,65.42 L 63.61,65.12 L 63.92,64.82 L 64.21,64.51 L 64.50,64.20 L 64.78,63.88 L 65.05,63.55 L 65.32,63.22 L 65.58,62.89 L 65.83,62.55 L 66.07,62.20 L 66.31,61.85 L 66.54,61.49 L 66.76,61.14 L 66.97,60.77 L 67.18,60.40 L 67.38,60.03 L 67.57,59.66 L 67.75,59.28 L 67.92,58.90 L 68.09,58.51 L 68.25,58.12 L 68.40,57.73 L 68.54,57.34 L 68.67,56.94 L 68.79,56.54 L 68.91,56.14 L 69.01,55.74 L 69.11,55.34 L 69.20,54.93 L 69.28,54.52 L 69.35,54.11 L 69.42,53.70 L 69.47,53.29 L 69.52,52.88 L 69.56,52.47 L 69.59,52.06 L 69.61,51.65 L 69.62,51.23 L 69.62,50.82 L 69.61,50.41 L 69.60,50.00 L 69.58,49.59 L 69.55,49.18 L 69.51,48.77 L 69.46,48.37 L 69.40,47.96 L 69.33,47.56 L 69.26,47.16 L 69.18,46.76 L 69.09,46.36 L 68.99,45.96 L 68.88,45.57 L 68.77,45.18 L 68.64,44.79 L 68.51,44.41 L 68.37,44.03 L 68.23,43.65 L 68.07,43.28 L 67.91,42.91 L 67.74,42.54 L 67.56,42.18 L 67.38,41.82 L 67.19,41.47 L 66.99,41.12 L 66.78,40.77 L 66.57,40.43 L 66.35,40.10 L 66.12,39.77 L 65.89,39.44 L 65.65,39.12 L 65.40,38.81 L 65.15,38.50 L 64.89,38.20 L 64.63,37.90 L 64.36,37.61 L 64.08,37.32 L 63.80,37.04 L 63.51,36.77 L 63.22,36.50 L 62.92,36.24 L 62.62,35.99 L 62.31,35.74 L 61.99,35.50 L 61.68,35.27 L 61.35,35.04 L 61.03,34.82 L 60.70,34.61 L 60.36,34.41 L 60.02,34.21 L 59.68,34.02 L 59.33,33.83 L 58.98,33.66 L 58.63,33.49 L 58.27,33.33 L 57.92,33.18 L 57.55,33.03 L 57.19,32.90 L 56.82,32.77 L 56.45,32.64 L 56.08,32.53 L 55.71,32.42 L 55.34,32.33 L 54.96,32.24 L 54.58,32.15 L 54.20,32.08 L 53.82,32.02 L 53.44,31.96 L 53.06,31.91 L 52.68,31.87 L 52.30,31.83 L 51.91,31.81 L 51.53,31.79 L 51.15,31.78 L 50.76,31.78 L 50.38,31.79 L 50.00,31.80 L 49.62,31.82 L 49.24,31.85 L 48.86,31.89 L 48.48,31.94 L 48.11,31.99 L 47.73,32.05 L 47.36,32.12 L 46.99,32.20 L 46.62,32.29 L 46.25,32.38 L 45.89,32.48 L 45.53,32.59 L 45.17,32.70 L 44.82,32.83 L 44.46,32.96 L 44.11,33.09 L 43.77,33.24 L 43.42,33.39 L 43.08,33.55 L 42.75,33.71 L 42.42,33.89 L 42.09,34.07 L 41.77,34.25 L 41.45,34.44 L 41.13,34.64 L 40.82,34.85 L 40.52,35.06 L 40.22,35.28 L 39.92,35.50 L 39.63,35.73 L 39.35,35.96 L 39.07,36.20 L 38.79,36.45 L 38.52,36.70 L 38.26,36.96 L 38.00,37.22 L 37.75,37.49 L 37.50,37.76 L 37.26,38.04 L 37.03,38.32 L 36.80,38.61 L 36.58,38.90 L 36.37,39.19 L 36.16,39.49 L 35.96,39.80 L 35.76,40.10 L 35.57,40.41 L 35.39,40.73 L 35.21,41.05 L 35.05,41.37 L 34.89,41.69 L 34.73,42.02 L 34.58,42.35 L 34.44,42.68 L 34.31,43.01 L 34.19,43.35 L 34.07,43.69 L 33.96,44.03 L 33.85,44.38 L 33.76,44.72 L 33.67,45.07 L 33.59,45.42 L 33.51,45.77 L 33.44,46.12 L 33.38,46.47 L 33.33,46.82 L 33.29,47.17 L 33.25,47.53 L 33.22,47.88 L 33.20,48.23 L 33.18,48.59 L 33.18,48.94 L 33.18,49.29 L 33.19,49.65 L 33.20,50.00 L 33.22,50.35 L 33.25,50.70 L 33.29,51.05 L 33.33,51.40 L 33.38,51.75 L 33.44,52.09 L 33.51,52.44 L 33.58,52.78 L 33.66,53.12 L 33.75,53.45 L 33.84,53.79 L 33.94,54.12 L 34.05,54.45 L 34.17,54.78 L 34.29,55.10 L 34.42,55.43 L 34.55,55.75 L 34.69,56.06 L 34.84,56.37 L 34.99,56.68 L 35.15,56.99 L 35.32,57.29 L 35.49,57.58 L 35.67,57.88 L 35.85,58.17 L 36.05,58.45 L 36.24,58.73 L 36.44,59.01 L 36.65,59.28 L 36.86,59.55 L 37.08,59.81 L 37.30,60.06 L 37.53,60.32 L 37.76,60.56 L 38.00,60.80 L 38.24,61.04 L 38.49,61.27 L 38.74,61.50 L 39.00,61.72 L 39.26,61.93 L 39.52,62.14 L 39.79,62.34 L 40.06,62.54 L 40.34,62.73 L 40.62,62.91 L 40.90,63.09 L 41.19,63.26 L 41.48,63.43 L 41.77,63.59 L 42.07,63.74 L 42.37,63.89 L 42.67,64.03 L 42.97,64.16 L 43.28,64.29 L 43.58,64.41 L 43.89,64.52 L 44.21,64.63 L 44.52,64.73 L 44.84,64.83 L 45.15,64.91 L 45.47,64.99 L 45.79,65.07 L 46.11,65.13 L 46.44,65.19 L 46.76,65.25 L 47.08,65.29 L 47.41,65.33 L 47.73,65.36 L 48.06,65.39 L 48.38,65.41 L 48.71,65.42 L 49.03,65.43 L 49.35,65.42 L 49.68,65.42 L 50.00,65.40 L 50.32,65.38 L 50.64,65.35 L 50.96,65.31 L 51.28,65.27 L 51.60,65.22 L 51.92,65.17 L 52.23,65.11 L 52.54,65.04 L 52.85,64.96 L 53.16,64.88 L 53.47,64.79 L 53.77,64.70 L 54.08,64.60 L 54.38,64.49 L 54.67,64.38 L 54.97,64.26 L 55.26,64.14 L 55.55,64.01 L 55.83,63.87 L 56.11,63.73 L 56.39,63.58 L 56.66,63.43 L 56.94,63.27 L 57.20,63.10 L 57.47,62.93 L 57.73,62.76 L 57.98,62.58 L 58.23,62.39 L 58.48,62.20 L 58.72,62.01 L 58.96,61.81 L 59.19,61.60 L 59.42,61.39 L 59.65,61.18 L 59.87,60.96 L 60.08,60.74 L 60.29,60.51 L 60.50,60.28 L 60.70,60.04 L 60.89,59.80 L 61.08,59.56 L 61.26,59.32 L 61.44,59.07 L 61.61,58.81 L 61.78,58.56 L 61.94,58.30 L 62.10,58.04 L 62.25,57.77 L 62.39,57.50 L 62.53,57.23 L 62.66,56.96 L 62.79,56.69 L 62.91,56.41 L 63.02,56.13 L 63.13,55.85 L 63.23,55.56 L 63.33,55.28 L 63.42,54.99 L 63.50,54.70 L 63.58,54.41 L 63.65,54.12 L 63.72,53.83 L 63.78,53.54 L 63.83,53.24 L 63.88,52.95 L 63.92,52.65 L 63.95,52.36 L 63.98,52.06 L 64.00,51.77 L 64.02,51.47 L 64.03,51.18 L 64.03,50.88 L 64.03,50.59 L 64.02,50.29 L 64.00,50.00"
        fill="none"
        stroke="white"
        stroke-width="2.5"
        stroke-linecap="round"
        marker-end="url(#arr)"/>

  <!-- Dot blanc -->
  <circle cx="92.00" cy="50" r="1.8" fill="white"/>

  <!-- Moftal en NOIR et plus grand -->
  <text
    x="50"
    y="53"
    font-family="Arial, Helvetica, sans-serif"
    font-weight="900"
    font-size="15"
    fill="black"
    text-anchor="middle"
    letter-spacing="0.3">Moftal</text>
</svg>