<svg xmlns="http://www.w3.org/2000/svg" viewBox="0 0 500 500" width="500" height="500">
  <rect width="500" height="500" fill="white"/>

  <defs>
    <marker id="arr"
            markerWidth="10" markerHeight="7"
            refX="10" refY="3.5"
            orient="auto">
      <polygon points="0 0, 10 3.5, 0 7" fill="black"/>
    </marker>
  </defs>

  <!-- Spirale noire CCW avec flèche intégrée au bout -->
  <path d="M 478.00,250.00 L 477.94,246.67 L 477.82,243.35 L 477.66,240.02 L 477.45,236.70 L 477.19,233.39 L 476.89,230.08 L 476.53,226.77 L 476.13,223.47 L 475.68,220.18 L 475.18,216.89 L 474.63,213.62 L 474.04,210.35 L 473.40,207.09 L 472.71,203.84 L 471.97,200.60 L 471.19,197.38 L 470.36,194.16 L 469.48,190.96 L 468.56,187.78 L 467.59,184.61 L 466.57,181.45 L 465.51,178.31 L 464.40,175.18 L 463.25,172.07 L 462.05,168.98 L 460.81,165.91 L 459.52,162.86 L 458.19,159.83 L 456.81,156.81 L 455.40,153.82 L 453.93,150.85 L 452.43,147.90 L 450.88,144.98 L 449.29,142.07 L 447.66,139.20 L 445.99,136.34 L 444.27,133.51 L 442.52,130.71 L 440.72,127.94 L 438.89,125.19 L 437.01,122.47 L 435.10,119.77 L 433.15,117.11 L 431.15,114.47 L 429.12,111.87 L 427.06,109.29 L 424.95,106.75 L 422.81,104.23 L 420.64,101.75 L 418.42,99.30 L 416.18,96.89 L 413.90,94.51 L 411.58,92.16 L 409.23,89.85 L 406.85,87.57 L 404.43,85.32 L 401.99,83.12 L 399.51,80.95 L 397.00,78.81 L 394.46,76.72 L 391.89,74.66 L 389.29,72.64 L 386.66,70.65 L 384.00,68.71 L 381.32,66.80 L 378.61,64.94 L 375.87,63.12 L 373.11,61.33 L 370.32,59.59 L 367.51,57.89 L 364.67,56.23 L 361.81,54.61 L 358.92,53.03 L 356.02,51.50 L 353.09,50.01 L 350.14,48.56 L 347.17,47.16 L 344.19,45.79 L 341.18,44.48 L 338.15,43.21 L 335.11,41.98 L 332.05,40.79 L 328.97,39.66 L 325.88,38.56 L 322.77,37.52 L 319.65,36.52 L 316.52,35.56 L 313.37,34.65 L 310.21,33.79 L 307.03,32.97 L 303.85,32.20 L 300.66,31.47 L 297.45,30.80 L 294.24,30.17 L 291.02,29.58 L 287.79,29.05 L 284.55,28.56 L 281.31,28.12 L 278.07,27.72 L 274.81,27.38 L 271.56,27.08 L 268.30,26.83 L 265.04,26.63 L 261.77,26.47 L 258.51,26.36 L 255.24,26.30 L 251.97,26.29 L 248.71,26.32 L 245.44,26.41 L 242.18,26.54 L 238.92,26.71 L 235.67,26.94 L 232.41,27.21 L 229.17,27.53 L 225.93,27.90 L 222.69,28.32 L 219.46,28.78 L 216.24,29.29 L 213.03,29.84 L 209.83,30.44 L 206.64,31.09 L 203.46,31.79 L 200.28,32.53 L 197.12,33.32 L 193.98,34.15 L 190.84,35.03 L 187.72,35.96 L 184.62,36.93 L 181.52,37.94 L 178.45,39.00 L 175.39,40.11 L 172.35,41.26 L 169.32,42.45 L 166.32,43.68 L 163.33,44.97 L 160.36,46.29 L 157.42,47.66 L 154.49,49.06 L 151.58,50.52 L 148.70,52.01 L 145.84,53.54 L 143.00,55.12 L 140.19,56.74 L 137.40,58.40 L 134.64,60.09 L 131.90,61.83 L 129.18,63.61 L 126.50,65.43 L 123.84,67.28 L 121.21,69.18 L 118.61,71.11 L 116.03,73.08 L 113.49,75.08 L 110.98,77.13 L 108.49,79.20 L 106.04,81.32 L 103.62,83.47 L 101.23,85.65 L 98.88,87.87 L 96.55,90.12 L 94.26,92.41 L 92.01,94.73 L 89.79,97.08 L 87.60,99.46 L 85.45,101.87 L 83.34,104.32 L 81.26,106.79 L 79.22,109.29 L 77.21,111.83 L 75.25,114.39 L 73.32,116.98 L 71.43,119.59 L 69.57,122.24 L 67.76,124.91 L 65.99,127.60 L 64.26,130.32 L 62.56,133.07 L 60.91,135.84 L 59.30,138.63 L 57.73,141.45 L 56.20,144.28 L 54.71,147.14 L 53.27,150.02 L 51.86,152.92 L 50.50,155.84 L 49.19,158.78 L 47.91,161.74 L 46.68,164.71 L 45.50,167.71 L 44.35,170.71 L 43.26,173.74 L 42.20,176.78 L 41.19,179.83 L 40.23,182.90 L 39.31,185.98 L 38.44,189.07 L 37.61,192.18 L 36.83,195.30 L 36.09,198.42 L 35.40,201.56 L 34.75,204.70 L 34.16,207.86 L 33.60,211.02 L 33.10,214.19 L 32.64,217.37 L 32.22,220.55 L 31.86,223.74 L 31.53,226.93 L 31.26,230.12 L 31.03,233.32 L 30.85,236.52 L 30.72,239.72 L 30.63,242.93 L 30.59,246.13 L 30.60,249.33 L 30.65,252.54 L 30.76,255.74 L 30.90,258.93 L 31.10,262.13 L 31.34,265.32 L 31.62,268.51 L 31.96,271.69 L 32.34,274.87 L 32.76,278.04 L 33.23,281.20 L 33.75,284.35 L 34.32,287.50 L 34.93,290.64 L 35.58,293.76 L 36.28,296.88 L 37.03,299.99 L 37.82,303.08 L 38.65,306.16 L 39.54,309.23 L 40.46,312.28 L 41.43,315.32 L 42.44,318.35 L 43.50,321.36 L 44.60,324.35 L 45.75,327.33 L 46.94,330.29 L 48.17,333.23 L 49.44,336.15 L 50.75,339.05 L 52.11,341.93 L 53.51,344.79 L 54.95,347.63 L 56.43,350.45 L 57.96,353.25 L 59.52,356.02 L 61.12,358.77 L 62.76,361.50 L 64.44,364.20 L 66.16,366.87 L 67.92,369.52 L 69.72,372.14 L 71.56,374.74 L 73.43,377.31 L 75.34,379.85 L 77.28,382.36 L 79.26,384.84 L 81.28,387.29 L 83.34,389.72 L 85.42,392.11 L 87.54,394.47 L 89.70,396.80 L 91.89,399.09 L 94.11,401.36 L 96.37,403.59 L 98.65,405.79 L 100.97,407.95 L 103.32,410.08 L 105.70,412.17 L 108.11,414.23 L 110.54,416.26 L 113.01,418.24 L 115.51,420.19 L 118.03,422.11 L 120.58,423.98 L 123.16,425.82 L 125.76,427.62 L 128.39,429.38 L 131.04,431.11 L 133.72,432.79 L 136.42,434.43 L 139.15,436.04 L 141.89,437.60 L 144.66,439.12 L 147.45,440.61 L 150.27,442.05 L 153.10,443.45 L 155.95,444.80 L 158.82,446.12 L 161.71,447.39 L 164.61,448.62 L 167.54,449.81 L 170.48,450.96 L 173.43,452.06 L 176.41,453.12 L 179.39,454.13 L 182.39,455.10 L 185.41,456.03 L 188.43,456.91 L 191.47,457.75 L 194.52,458.55 L 197.58,459.29 L 200.65,460.00 L 203.73,460.66 L 206.82,461.27 L 209.91,461.84 L 213.01,462.36 L 216.12,462.84 L 219.24,463.27 L 222.36,463.66 L 225.49,464.00 L 228.62,464.30 L 231.75,464.55 L 234.89,464.75 L 238.03,464.91 L 241.17,465.02 L 244.31,465.08 L 247.45,465.10 L 250.59,465.08 L 253.73,465.01 L 256.87,464.89 L 260.00,464.73 L 263.13,464.52 L 266.26,464.26 L 269.38,463.96 L 272.50,463.62 L 275.61,463.23 L 278.71,462.79 L 281.81,462.31 L 284.90,461.78 L 287.98,461.21 L 291.05,460.60 L 294.11,459.94 L 297.16,459.23 L 300.20,458.48 L 303.23,457.69 L 306.25,456.85 L 309.25,455.97 L 312.24,455.04 L 315.21,454.07 L 318.17,453.06 L 321.12,452.01 L 324.04,450.91 L 326.95,449.77 L 329.85,448.59 L 332.72,447.37 L 335.58,446.10 L 338.41,444.79 L 341.23,443.45 L 344.03,442.06 L 346.80,440.63 L 349.56,439.16 L 352.29,437.65 L 355.00,436.10 L 357.68,434.52 L 360.34,432.89 L 362.98,431.23 L 365.59,429.52 L 368.18,427.78 L 370.74,426.01 L 373.27,424.19 L 375.78,422.34 L 378.26,420.46 L 380.71,418.54 L 383.13,416.58 L 385.52,414.59 L 387.88,412.56 L 390.21,410.50 L 392.52,408.41 L 394.79,406.28 L 397.02,404.12 L 399.23,401.93 L 401.40,399.71 L 403.54,397.45 L 405.65,395.17 L 407.72,392.85 L 409.76,390.51 L 411.77,388.14 L 413.73,385.74 L 415.67,383.31 L 417.56,380.85 L 419.42,378.36 L 421.25,375.85 L 423.03,373.32 L 424.78,370.76 L 426.49,368.17 L 428.17,365.56 L 429.80,362.92 L 431.39,360.27 L 432.95,357.59 L 434.47,354.89 L 435.94,352.16 L 437.38,349.42 L 438.77,346.65 L 440.13,343.87 L 441.44,341.07 L 442.72,338.25 L 443.95,335.41 L 445.14,332.55 L 446.28,329.68 L 447.39,326.79 L 448.45,323.89 L 449.47,320.97 L 450.45,318.04 L 451.38,315.09 L 452.27,312.13 L 453.12,309.16 L 453.92,306.18 L 454.68,303.19 L 455.40,300.19 L 456.07,297.17 L 456.70,294.15 L 457.28,291.12 L 457.82,288.08 L 458.31,285.04 L 458.76,281.99 L 459.17,278.93 L 459.53,275.87 L 459.84,272.81 L 460.12,269.74 L 460.34,266.67 L 460.52,263.59 L 460.66,260.51 L 460.75,257.44 L 460.79,254.36 L 460.80,251.28 L 460.75,248.20 L 460.66,245.13 L 460.53,242.06 L 460.35,238.98 L 460.13,235.92 L 459.86,232.86 L 459.55,229.80 L 459.19,226.75 L 458.79,223.70 L 458.34,220.66 L 457.85,217.63 L 457.32,214.60 L 456.74,211.59 L 456.12,208.58 L 455.45,205.59 L 454.75,202.60 L 453.99,199.63 L 453.20,196.66 L 452.36,193.72 L 451.48,190.78 L 450.55,187.86 L 449.59,184.95 L 448.58,182.05 L 447.53,179.18 L 446.43,176.31 L 445.30,173.47 L 444.13,170.64 L 442.91,167.83 L 441.65,165.04 L 440.36,162.27 L 439.02,159.52 L 437.64,156.79 L 436.23,154.07 L 434.77,151.38 L 433.28,148.72 L 431.74,146.07 L 430.17,143.45 L 428.56,140.85 L 426.92,138.28 L 425.23,135.73 L 423.51,133.21 L 421.76,130.71 L 419.97,128.24 L 418.14,125.79 L 416.28,123.38 L 414.38,120.99 L 412.45,118.63 L 410.48,116.30 L 408.48,113.99 L 406.45,111.72 L 404.38,109.48 L 402.29,107.27 L 400.16,105.09 L 398.00,102.94 L 395.81,100.82 L 393.59,98.74 L 391.34,96.69 L 389.06,94.67 L 386.75,92.69 L 384.41,90.74 L 382.05,88.83 L 379.66,86.95 L 377.24,85.10 L 374.79,83.30 L 372.32,81.52 L 369.83,79.79 L 367.31,78.09 L 364.76,76.43 L 362.20,74.81 L 359.61,73.22 L 356.99,71.68 L 354.36,70.17 L 351.70,68.70 L 349.03,67.27 L 346.33,65.88 L 343.61,64.53 L 340.88,63.22 L 338.13,61.95 L 335.36,60.72 L 332.57,59.53 L 329.76,58.38 L 326.94,57.27 L 324.11,56.21 L 321.26,55.18 L 318.39,54.20 L 315.51,53.26 L 312.62,52.36 L 309.72,51.51 L 306.80,50.70 L 303.88,49.93 L 300.94,49.20 L 298.00,48.52 L 295.04,47.88 L 292.08,47.28 L 289.11,46.73 L 286.13,46.22 L 283.14,45.75 L 280.15,45.33 L 277.16,44.95 L 274.16,44.62 L 271.15,44.32 L 268.14,44.08 L 265.13,43.87 L 262.12,43.72 L 259.11,43.60 L 256.09,43.53 L 253.08,43.50 L 250.06,43.52 L 247.05,43.58 L 244.04,43.69 L 241.03,43.84 L 238.02,44.03 L 235.02,44.26 L 232.02,44.55 L 229.03,44.87 L 226.04,45.24 L 223.06,45.65 L 220.08,46.10 L 217.12,46.60 L 214.16,47.14 L 211.21,47.73 L 208.27,48.35 L 205.34,49.02 L 202.42,49.74 L 199.51,50.49 L 196.61,51.29 L 193.73,52.13 L 190.86,53.01 L 188.00,53.93 L 185.16,54.89 L 182.33,55.90 L 179.52,56.94 L 176.72,58.03 L 173.94,59.16 L 171.18,60.33 L 168.43,61.53 L 165.71,62.78 L 163.00,64.07 L 160.31,65.39 L 157.65,66.76 L 155.00,68.16 L 152.37,69.60 L 149.77,71.08 L 147.19,72.60 L 144.63,74.15 L 142.10,75.74 L 139.59,77.37 L 137.10,79.03 L 134.64,80.73 L 132.20,82.47 L 129.79,84.24 L 127.41,86.04 L 125.06,87.88 L 122.73,89.75 L 120.43,91.66 L 118.16,93.60 L 115.91,95.57 L 113.70,97.57 L 111.52,99.61 L 109.36,101.67 L 107.24,103.77 L 105.15,105.90 L 103.09,108.06 L 101.06,110.24 L 99.07,112.46 L 97.11,114.70 L 95.18,116.98 L 93.28,119.28 L 91.42,121.60 L 89.60,123.96 L 87.81,126.34 L 86.05,128.74 L 84.33,131.17 L 82.65,133.62 L 81.00,136.10 L 79.39,138.60 L 77.81,141.13 L 76.28,143.67 L 74.78,146.24 L 73.32,148.83 L 71.89,151.44 L 70.51,154.07 L 69.16,156.72 L 67.86,159.38 L 66.59,162.07 L 65.36,164.77 L 64.17,167.49 L 63.03,170.23 L 61.92,172.98 L 60.85,175.75 L 59.82,178.53 L 58.84,181.33 L 57.90,184.14 L 56.99,186.97 L 56.13,189.80 L 55.31,192.65 L 54.53,195.51 L 53.80,198.38 L 53.10,201.26 L 52.45,204.15 L 51.84,207.04 L 51.28,209.95 L 50.75,212.86 L 50.27,215.78 L 49.83,218.70 L 49.44,221.64 L 49.08,224.57 L 48.77,227.51 L 48.51,230.45 L 48.28,233.40 L 48.10,236.35 L 47.96,239.30 L 47.87,242.25 L 47.82,245.21 L 47.81,248.16 L 47.84,251.11 L 47.92,254.06 L 48.04,257.01 L 48.21,259.95 L 48.41,262.89 L 48.66,265.83 L 48.95,268.77 L 49.29,271.70 L 49.67,274.62 L 50.09,277.53 L 50.55,280.44 L 51.06,283.34 L 51.60,286.24 L 52.19,289.12 L 52.82,292.00 L 53.50,294.86 L 54.21,297.72 L 54.97,300.56 L 55.76,303.39 L 56.60,306.21 L 57.48,309.01 L 58.40,311.81 L 59.36,314.58 L 60.36,317.35 L 61.40,320.09 L 62.48,322.82 L 63.60,325.54 L 64.76,328.24 L 65.96,330.92 L 67.20,333.58 L 68.48,336.22 L 69.79,338.84 L 71.14,341.44 L 72.53,344.03 L 73.96,346.59 L 75.42,349.13 L 76.92,351.65 L 78.46,354.14 L 80.03,356.61 L 81.64,359.06 L 83.28,361.48 L 84.96,363.88 L 86.67,366.26 L 88.42,368.61 L 90.20,370.93 L 92.01,373.22 L 93.86,375.49 L 95.74,377.73 L 97.65,379.94 L 99.59,382.13 L 101.57,384.28 L 103.57,386.41 L 105.61,388.50 L 107.67,390.57 L 109.77,392.60 L 111.89,394.60 L 114.05,396.58 L 116.23,398.51 L 118.43,400.42 L 120.67,402.30 L 122.93,404.14 L 125.22,405.94 L 127.54,407.72 L 129.87,409.46 L 132.24,411.16 L 134.63,412.83 L 137.04,414.46 L 139.47,416.06 L 141.93,417.62 L 144.41,419.15 L 146.91,420.64 L 149.43,422.09 L 151.98,423.50 L 154.54,424.88 L 157.12,426.22 L 159.72,427.52 L 162.34,428.79 L 164.98,430.01 L 167.63,431.20 L 170.30,432.34 L 172.98,433.45 L 175.69,434.52 L 178.40,435.54 L 181.13,436.53 L 183.87,437.48 L 186.63,438.39 L 189.40,439.25 L 192.18,440.08 L 194.97,440.87 L 197.78,441.61 L 200.59,442.31 L 203.41,442.98 L 206.24,443.60 L 209.08,444.18 L 211.93,444.71 L 214.78,445.21 L 217.64,445.66 L 220.50,446.07 L 223.38,446.44 L 226.25,446.77 L 229.13,447.06 L 232.01,447.30 L 234.90,447.50 L 237.78,447.66 L 240.67,447.78 L 243.56,447.86 L 246.45,447.89 L 249.34,447.88 L 252.23,447.83 L 255.12,447.73 L 258.00,447.60 L 260.88,447.42 L 263.76,447.20 L 266.63,446.94 L 269.50,446.64 L 272.37,446.29 L 275.22,445.90 L 278.07,445.47 L 280.92,445.00 L 283.76,444.49 L 286.58,443.94 L 289.40,443.35 L 292.21,442.71 L 295.01,442.04 L 297.80,441.32 L 300.58,440.56 L 303.34,439.77 L 306.10,438.93 L 308.84,438.05 L 311.56,437.13 L 314.27,436.18 L 316.97,435.18 L 319.65,434.15 L 322.32,433.07 L 324.97,431.96 L 327.60,430.81 L 330.22,429.62 L 332.81,428.40 L 335.39,427.13 L 337.95,425.83 L 340.49,424.49 L 343.01,423.12 L 345.50,421.71 L 347.98,420.26 L 350.44,418.78 L 352.87,417.26 L 355.28,415.71 L 357.66,414.12 L 360.02,412.50 L 362.36,410.84 L 364.67,409.15 L 366.96,407.43 L 369.22,405.67 L 371.46,403.88 L 373.67,402.06 L 375.85,400.21 L 378.00,398.33 L 380.12,396.41 L 382.22,394.47 L 384.29,392.49 L 386.33,390.49 L 388.33,388.46 L 390.31,386.39 L 392.26,384.30 L 394.17,382.19 L 396.06,380.04 L 397.91,377.87 L 399.73,375.67 L 401.52,373.45 L 403.27,371.20 L 404.99,368.92 L 406.68,366.62 L 408.34,364.30 L 409.95,361.95 L 411.54,359.58 L 413.09,357.19 L 414.60,354.78 L 416.08,352.34 L 417.52,349.89 L 418.93,347.41 L 420.30,344.92 L 421.63,342.40 L 422.92,339.87 L 424.18,337.32 L 425.40,334.75 L 426.58,332.16 L 427.73,329.56 L 428.83,326.94 L 429.90,324.30 L 430.93,321.66 L 431.92,318.99 L 432.87,316.32 L 433.78,313.63 L 434.65,310.93 L 435.48,308.21 L 436.27,305.49 L 437.02,302.75 L 437.73,300.00 L 438.41,297.25 L 439.04,294.48 L 439.63,291.71 L 440.18,288.93 L 440.68,286.14 L 441.15,283.35 L 441.58,280.55 L 441.97,277.74 L 442.31,274.93 L 442.61,272.12 L 442.88,269.30 L 443.10,266.48 L 443.28,263.66 L 443.42,260.83 L 443.51,258.01 L 443.57,255.18 L 443.59,252.35 L 443.56,249.53 L 443.49,246.70 L 443.38,243.88 L 443.23,241.06 L 443.04,238.24 L 442.81,235.43 L 442.54,232.62 L 442.22,229.81 L 441.87,227.01 L 441.47,224.22 L 441.04,221.43 L 440.56,218.66 L 440.04,215.88 L 439.48,213.12 L 438.89,210.37 L 438.25,207.62 L 437.57,204.89 L 436.85,202.17 L 436.10,199.45 L 435.30,196.75 L 434.47,194.07 L 433.59,191.39 L 432.68,188.73 L 431.73,186.08 L 430.74,183.45 L 429.71,180.83 L 428.64,178.23 L 427.54,175.65 L 426.40,173.08 L 425.22,170.53 L 424.01,168.00 L 422.75,165.48 L 421.47,162.99 L 420.14,160.52 L 418.78,158.06 L 417.39,155.63 L 415.96,153.21 L 414.49,150.82 L 412.99,148.45 L 411.46,146.10 L 409.89,143.78 L 408.29,141.48 L 406.66,139.20 L 404.99,136.95 L 403.30,134.73 L 401.56,132.53 L 399.80,130.35 L 398.01,128.20 L 396.18,126.08 L 394.33,123.99 L 392.45,121.92 L 390.53,119.88 L 388.59,117.87 L 386.62,115.89 L 384.62,113.94 L 382.59,112.02 L 380.53,110.13 L 378.45,108.26 L 376.34,106.43 L 374.20,104.64 L 372.04,102.87 L 369.86,101.13 L 367.65,99.43 L 365.41,97.76 L 363.16,96.13 L 360.87,94.52 L 358.57,92.96 L 356.24,91.42 L 353.90,89.92 L 351.53,88.45 L 349.14,87.02 L 346.73,85.63 L 344.30,84.27 L 341.85,82.94 L 339.38,81.66 L 336.90,80.41 L 334.39,79.19 L 331.87,78.01 L 329.34,76.87 L 326.79,75.77 L 324.22,74.70 L 321.64,73.68 L 319.04,72.69 L 316.43,71.74 L 313.81,70.82 L 311.17,69.95 L 308.53,69.11 L 305.87,68.32 L 303.20,67.56 L 300.52,66.84 L 297.83,66.16 L 295.13,65.52 L 292.43,64.92 L 289.71,64.36 L 286.99,63.84 L 284.26,63.36 L 281.53,62.92 L 278.79,62.52 L 276.04,62.16 L 273.29,61.84 L 270.54,61.56 L 267.78,61.32 L 265.02,61.12 L 262.26,60.96 L 259.50,60.84 L 256.73,60.76 L 253.97,60.72 L 251.21,60.72 L 248.44,60.77 L 245.68,60.85 L 242.92,60.97 L 240.17,61.14 L 237.41,61.34 L 234.66,61.58 L 231.92,61.87 L 229.18,62.19 L 226.44,62.55 L 223.72,62.96 L 220.99,63.40 L 218.28,63.88 L 215.57,64.41 L 212.88,64.97 L 210.19,65.57 L 207.51,66.21 L 204.84,66.89 L 202.18,67.60 L 199.54,68.36 L 196.90,69.15 L 194.28,69.99 L 191.67,70.86 L 189.07,71.77 L 186.49,72.71 L 183.92,73.70 L 181.37,74.72 L 178.84,75.77 L 176.32,76.87 L 173.81,78.00 L 171.33,79.17 L 168.86,80.37 L 166.41,81.61 L 163.98,82.88 L 161.57,84.19 L 159.17,85.53 L 156.80,86.91 L 154.45,88.32 L 152.12,89.77 L 149.82,91.25 L 147.53,92.76 L 145.27,94.31 L 143.03,95.89 L 140.82,97.50 L 138.63,99.14 L 136.46,100.81 L 134.32,102.52 L 132.20,104.25 L 130.11,106.02 L 128.05,107.81 L 126.01,109.64 L 124.01,111.49 L 122.02,113.38 L 120.07,115.29 L 118.15,117.23 L 116.25,119.19 L 114.39,121.19 L 112.55,123.21 L 110.74,125.25 L 108.97,127.33 L 107.22,129.42 L 105.51,131.55 L 103.83,133.69 L 102.17,135.86 L 100.56,138.06 L 98.97,140.28 L 97.42,142.51 L 95.90,144.78 L 94.41,147.06 L 92.96,149.36 L 91.54,151.69 L 90.16,154.03 L 88.81,156.39 L 87.49,158.78 L 86.21,161.18 L 84.97,163.60 L 83.76,166.03 L 82.59,168.49 L 81.45,170.96 L 80.36,173.44 L 79.29,175.94 L 78.27,178.46 L 77.28,180.99 L 76.33,183.53 L 75.41,186.08 L 74.53,188.65 L 73.70,191.23 L 72.90,193.83 L 72.13,196.43 L 71.41,199.04 L 70.72,201.66 L 70.07,204.30 L 69.46,206.94 L 68.89,209.59 L 68.36,212.24 L 67.87,214.90 L 67.42,217.57 L 67.00,220.25 L 66.63,222.93 L 66.29,225.61 L 65.99,228.30 L 65.74,231.00 L 65.52,233.69 L 65.34,236.39 L 65.20,239.09 L 65.10,241.79 L 65.04,244.49 L 65.02,247.19 L 65.04,249.89 L 65.10,252.59 L 65.20,255.29 L 65.33,257.98 L 65.51,260.68 L 65.72,263.37 L 65.98,266.05 L 66.27,268.73 L 66.61,271.41 L 66.98,274.08 L 67.39,276.74 L 67.84,279.40 L 68.32,282.04 L 68.85,284.69 L 69.42,287.32 L 70.02,289.94 L 70.66,292.56 L 71.34,295.16 L 72.06,297.75 L 72.81,300.33 L 73.60,302.90 L 74.43,305.46 L 75.30,308.00 L 76.20,310.54 L 77.14,313.05 L 78.12,315.55 L 79.13,318.04 L 80.18,320.51 L 81.26,322.97 L 82.38,325.41 L 83.54,327.83 L 84.73,330.23 L 85.95,332.62 L 87.21,334.99 L 88.50,337.34 L 89.83,339.66 L 91.19,341.97 L 92.58,344.26 L 94.01,346.53 L 95.47,348.77 L 96.96,351.00 L 98.49,353.20 L 100.04,355.37 L 101.63,357.53 L 103.24,359.66 L 104.89,361.77 L 106.57,363.85 L 108.28,365.90 L 110.02,367.93 L 111.78,369.94 L 113.58,371.92 L 115.40,373.87 L 117.25,375.79 L 119.13,377.69 L 121.04,379.56 L 122.97,381.40 L 124.93,383.21 L 126.92,384.99 L 128.93,386.74 L 130.96,388.46 L 133.02,390.16 L 135.10,391.82 L 137.21,393.45 L 139.34,395.05 L 141.49,396.62 L 143.67,398.15 L 145.87,399.66 L 148.08,401.13 L 150.32,402.56 L 152.58,403.97 L 154.86,405.34 L 157.16,406.68 L 159.48,407.98 L 161.81,409.25 L 164.16,410.49 L 166.53,411.69 L 168.92,412.85 L 171.32,413.98 L 173.74,415.08 L 176.18,416.14 L 178.63,417.16 L 181.09,418.15 L 183.57,419.10 L 186.05,420.01 L 188.56,420.89 L 191.07,421.73 L 193.60,422.53 L 196.13,423.30 L 198.68,424.03 L 201.24,424.72 L 203.80,425.38 L 206.38,425.99 L 208.96,426.57 L 211.55,427.11 L 214.15,427.62 L 216.75,428.08 L 219.36,428.51 L 221.98,428.90 L 224.60,429.25 L 227.22,429.56 L 229.85,429.83 L 232.48,430.07 L 235.11,430.27 L 237.75,430.42 L 240.39,430.54 L 243.02,430.63 L 245.66,430.67 L 248.30,430.67 L 250.94,430.64 L 253.57,430.56 L 256.21,430.45 L 258.84,430.30 L 261.47,430.12 L 264.09,429.89 L 266.71,429.62 L 269.33,429.32 L 271.94,428.98 L 274.55,428.60 L 277.14,428.18 L 279.74,427.73 L 282.32,427.24 L 284.90,426.71 L 287.46,426.14 L 290.02,425.54 L 292.57,424.89 L 295.11,424.21 L 297.64,423.50 L 300.15,422.75 L 302.66,421.96 L 305.15,421.13 L 307.63,420.27 L 310.09,419.38 L 312.55,418.44 L 314.98,417.47 L 317.41,416.47 L 319.81,415.43 L 322.21,414.36 L 324.58,413.25 L 326.94,412.11 L 329.28,410.93 L 331.60,409.72 L 333.91,408.48 L 336.19,407.20 L 338.46,405.89 L 340.70,404.55 L 342.93,403.18 L 345.13,401.77 L 347.32,400.33 L 349.48,398.86 L 351.62,397.36 L 353.74,395.83 L 355.83,394.27 L 357.90,392.67 L 359.95,391.05 L 361.97,389.40 L 363.97,387.72 L 365.94,386.01 L 367.89,384.27 L 369.81,382.51 L 371.70,380.72 L 373.57,378.90 L 375.41,377.05 L 377.22,375.18 L 379.01,373.28 L 380.76,371.36 L 382.49,369.41 L 384.19,367.44 L 385.86,365.44 L 387.50,363.42 L 389.11,361.37 L 390.69,359.31 L 392.24,357.22 L 393.75,355.11 L 395.24,352.97 L 396.69,350.82 L 398.12,348.65 L 399.51,346.45 L 400.87,344.24 L 402.19,342.00 L 403.48,339.75 L 404.74,337.48 L 405.97,335.20 L 407.16,332.89 L 408.32,330.57 L 409.44,328.23 L 410.53,325.88 L 411.58,323.51 L 412.60,321.13 L 413.59,318.73 L 414.54,316.32 L 415.45,313.90 L 416.33,311.46 L 417.17,309.02 L 417.97,306.56 L 418.74,304.09 L 419.48,301.61 L 420.17,299.12 L 420.83,296.62 L 421.46,294.11 L 422.04,291.59 L 422.59,289.07 L 423.11,286.53 L 423.58,284.00 L 424.02,281.45 L 424.42,278.90 L 424.79,276.35 L 425.11,273.79 L 425.40,271.22 L 425.65,268.66 L 425.87,266.09 L 426.04,263.51 L 426.18,260.94 L 426.28,258.37 L 426.34,255.79 L 426.37,253.21 L 426.36,250.64 L 426.31,248.06 L 426.22,245.49 L 426.10,242.92 L 425.94,240.35 L 425.74,237.79 L 425.50,235.23 L 425.23,232.67 L 424.91,230.12 L 424.57,227.58 L 424.18,225.04 L 423.76,222.50 L 423.30,219.98 L 422.80,217.46 L 422.27,214.95 L 421.70,212.44 L 421.09,209.95 L 420.45,207.47 L 419.78,204.99 L 419.06,202.53 L 418.31,200.08 L 417.53,197.64 L 416.71,195.21 L 415.85,192.80 L 414.96,190.40 L 414.04,188.01 L 413.08,185.63 L 412.08,183.28 L 411.06,180.93 L 409.99,178.61 L 408.90,176.29 L 407.77,174.00 L 406.61,171.72 L 405.41,169.46 L 404.18,167.22 L 402.93,165.00 L 401.63,162.80 L 400.31,160.61 L 398.95,158.45 L 397.57,156.31 L 396.15,154.18 L 394.70,152.08 L 393.23,150.00 L 391.72,147.95 L 390.18,145.91 L 388.62,143.90 L 387.02,141.92 L 385.40,139.95 L 383.75,138.01 L 382.07,136.10 L 380.36,134.21 L 378.63,132.35 L 376.87,130.51 L 375.08,128.70 L 373.27,126.91 L 371.43,125.15 L 369.57,123.42 L 367.68,121.72 L 365.77,120.05 L 363.83,118.40 L 361.87,116.78 L 359.89,115.20 L 357.89,113.64 L 355.86,112.11 L 353.81,110.61 L 351.74,109.14 L 349.65,107.71 L 347.54,106.30 L 345.41,104.92 L 343.26,103.58 L 341.10,102.27 L 338.91,100.99 L 336.71,99.74 L 334.48,98.53 L 332.24,97.35 L 329.99,96.20 L 327.72,95.08 L 325.43,94.00 L 323.13,92.95 L 320.81,91.94 L 318.48,90.96 L 316.14,90.01 L 313.78,89.10 L 311.41,88.22 L 309.03,87.38 L 306.63,86.58 L 304.23,85.80 L 301.82,85.07 L 299.39,84.37 L 296.96,83.70 L 294.51,83.07 L 292.06,82.48 L 289.60,81.92 L 287.14,81.40 L 284.66,80.92 L 282.19,80.47 L 279.70,80.06 L 277.21,79.68 L 274.72,79.34 L 272.22,79.04 L 269.71,78.77 L 267.21,78.54 L 264.70,78.35 L 262.19,78.19 L 259.68,78.07 L 257.17,77.99 L 254.65,77.94 L 252.14,77.93 L 249.63,77.96 L 247.12,78.02 L 244.61,78.12 L 242.10,78.26 L 239.60,78.43 L 237.10,78.64 L 234.60,78.89 L 232.11,79.17 L 229.62,79.49 L 227.14,79.85 L 224.67,80.24 L 222.20,80.67 L 219.74,81.13 L 217.28,81.63 L 214.84,82.16 L 212.40,82.73 L 209.97,83.34 L 207.55,83.98 L 205.14,84.66 L 202.75,85.37 L 200.36,86.11 L 197.98,86.89 L 195.62,87.71 L 193.27,88.56 L 190.93,89.44 L 188.61,90.36 L 186.30,91.31 L 184.01,92.29 L 181.73,93.31 L 179.47,94.36 L 177.22,95.44 L 174.99,96.55 L 172.77,97.70 L 170.58,98.88 L 168.40,100.09 L 166.24,101.33 L 164.10,102.61 L 161.98,103.91 L 159.87,105.24 L 157.79,106.61 L 155.73,108.00 L 153.69,109.43 L 151.67,110.88 L 149.67,112.36 L 147.70,113.87 L 145.75,115.41 L 143.82,116.98 L 141.92,118.58 L 140.03,120.20 L 138.18,121.85 L 136.35,123.52 L 134.54,125.23 L 132.76,126.95 L 131.00,128.71 L 129.27,130.48 L 127.57,132.29 L 125.89,134.11 L 124.24,135.97 L 122.62,137.84 L 121.03,139.74 L 119.46,141.66 L 117.93,143.60 L 116.42,145.56 L 114.94,147.55 L 113.49,149.55 L 112.07,151.58 L 110.69,153.63 L 109.33,155.69 L 108.00,157.78 L 106.70,159.88 L 105.43,162.00 L 104.20,164.14 L 103.00,166.30 L 101.83,168.48 L 100.69,170.67 L 99.58,172.87 L 98.51,175.09 L 97.47,177.33 L 96.46,179.58 L 95.48,181.85 L 94.54,184.13 L 93.63,186.42 L 92.76,188.72 L 91.92,191.04 L 91.11,193.36 L 90.34,195.70 L 89.60,198.05 L 88.90,200.41 L 88.23,202.78 L 87.60,205.15 L 87.00,207.54 L 86.44,209.93 L 85.91,212.33 L 85.41,214.74 L 84.96,217.16 L 84.53,219.58 L 84.15,222.00 L 83.80,224.43 L 83.48,226.87 L 83.20,229.30 L 82.95,231.75 L 82.75,234.19 L 82.57,236.64 L 82.44,239.08 L 82.33,241.53 L 82.27,243.98 L 82.24,246.43 L 82.24,248.88 L 82.29,251.33 L 82.36,253.78 L 82.48,256.22 L 82.62,258.67 L 82.81,261.11 L 83.03,263.54 L 83.28,265.97 L 83.57,268.40 L 83.90,270.82 L 84.26,273.24 L 84.66,275.65 L 85.09,278.06 L 85.56,280.45 L 86.06,282.84 L 86.59,285.22 L 87.16,287.60 L 87.77,289.96 L 88.41,292.31 L 89.08,294.66 L 89.79,296.99 L 90.53,299.31 L 91.30,301.62 L 92.11,303.92 L 92.95,306.21 L 93.83,308.48 L 94.74,310.74 L 95.68,312.98 L 96.65,315.21 L 97.65,317.43 L 98.69,319.63 L 99.76,321.81 L 100.86,323.98 L 101.99,326.13 L 103.15,328.26 L 104.35,330.38 L 105.57,332.48 L 106.82,334.56 L 108.11,336.62 L 109.42,338.66 L 110.76,340.68 L 112.14,342.68 L 113.54,344.66 L 114.97,346.62 L 116.42,348.55 L 117.91,350.47 L 119.42,352.36 L 120.96,354.23 L 122.52,356.08 L 124.12,357.90 L 125.74,359.70 L 127.38,361.48 L 129.05,363.23 L 130.74,364.95 L 132.46,366.65 L 134.21,368.33 L 135.97,369.98 L 137.76,371.60 L 139.58,373.20 L 141.41,374.76 L 143.27,376.31 L 145.15,377.82 L 147.05,379.30 L 148.98,380.76 L 150.92,382.19 L 152.89,383.59 L 154.87,384.96 L 156.87,386.30 L 158.89,387.61 L 160.93,388.90 L 162.99,390.15 L 165.07,391.37 L 167.16,392.56 L 169.27,393.72 L 171.39,394.85 L 173.54,395.94 L 175.69,397.01 L 177.86,398.04 L 180.05,399.04 L 182.25,400.01 L 184.46,400.95 L 186.69,401.85 L 188.93,402.72 L 191.18,403.56 L 193.44,404.36 L 195.71,405.13 L 197.99,405.87 L 200.29,406.58 L 202.59,407.25 L 204.90,407.88 L 207.22,408.49 L 209.55,409.06 L 211.88,409.59 L 214.23,410.09 L 216.57,410.56 L 218.93,410.99 L 221.29,411.39 L 223.66,411.75 L 226.03,412.08 L 228.40,412.37 L 230.78,412.63 L 233.16,412.85 L 235.54,413.04 L 237.92,413.19 L 240.31,413.31 L 242.70,413.40 L 245.08,413.45 L 247.47,413.46 L 249.86,413.44 L 252.24,413.38 L 254.63,413.29 L 257.01,413.17 L 259.39,413.01 L 261.76,412.82 L 264.13,412.59 L 266.50,412.32 L 268.86,412.03 L 271.22,411.69 L 273.57,411.33 L 275.92,410.93 L 278.26,410.49 L 280.59,410.02 L 282.92,409.52 L 285.23,408.98 L 287.54,408.41 L 289.84,407.81 L 292.13,407.17 L 294.41,406.50 L 296.68,405.80 L 298.93,405.06 L 301.18,404.29 L 303.41,403.49 L 305.63,402.66 L 307.84,401.79 L 310.04,400.90 L 312.22,399.97 L 314.38,399.01 L 316.54,398.01 L 318.67,396.99 L 320.79,395.94 L 322.90,394.85 L 324.99,393.74 L 327.06,392.59 L 329.11,391.42 L 331.15,390.21 L 333.16,388.98 L 335.16,387.71 L 337.14,386.42 L 339.10,385.10 L 341.04,383.75 L 342.96,382.38 L 344.86,380.98 L 346.74,379.54 L 348.60,378.09 L 350.43,376.60 L 352.24,375.09 L 354.03,373.56 L 355.80,371.99 L 357.54,370.41 L 359.26,368.79 L 360.96,367.16 L 362.63,365.50 L 364.27,363.81 L 365.89,362.10 L 367.49,360.37 L 369.06,358.62 L 370.60,356.84 L 372.12,355.05 L 373.60,353.23 L 375.07,351.39 L 376.50,349.52 L 377.91,347.64 L 379.29,345.74 L 380.64,343.82 L 381.96,341.88 L 383.26,339.92 L 384.52,337.95 L 385.76,335.95 L 386.96,333.94 L 388.14,331.91 L 389.29,329.87 L 390.40,327.80 L 391.49,325.73 L 392.54,323.64 L 393.57,321.53 L 394.56,319.41 L 395.52,317.28 L 396.45,315.13 L 397.35,312.97 L 398.22,310.79 L 399.05,308.61 L 399.85,306.41 L 400.62,304.21 L 401.36,301.99 L 402.07,299.76 L 402.74,297.52 L 403.38,295.28 L 403.98,293.02 L 404.56,290.76 L 405.09,288.49 L 405.60,286.21 L 406.07,283.93 L 406.51,281.64 L 406.92,279.35 L 407.29,277.04 L 407.63,274.74 L 407.94,272.43 L 408.21,270.12 L 408.44,267.80 L 408.65,265.48 L 408.82,263.16 L 408.95,260.84 L 409.05,258.52 L 409.12,256.19 L 409.15,253.87 L 409.15,251.54 L 409.12,249.22 L 409.05,246.90 L 408.95,244.58 L 408.81,242.26 L 408.64,239.95 L 408.44,237.63 L 408.20,235.33 L 407.93,233.02 L 407.63,230.72 L 407.29,228.43 L 406.92,226.14 L 406.51,223.86 L 406.07,221.59 L 405.60,219.32 L 405.10,217.06 L 404.56,214.81 L 404.00,212.56 L 403.39,210.33 L 402.76,208.11 L 402.09,205.89 L 401.40,203.69 L 400.66,201.50 L 399.90,199.31 L 399.11,197.14 L 398.28,194.99 L 397.43,192.84 L 396.54,190.71 L 395.62,188.60 L 394.67,186.49 L 393.70,184.40 L 392.69,182.33 L 391.65,180.27 L 390.58,178.23 L 389.48,176.20 L 388.35,174.20 L 387.20,172.20 L 386.01,170.23 L 384.80,168.27 L 383.56,166.34 L 382.29,164.42 L 380.99,162.52 L 379.67,160.64 L 378.32,158.78 L 376.94,156.94 L 375.54,155.12 L 374.11,153.32 L 372.65,151.54 L 371.17,149.79 L 369.66,148.06 L 368.13,146.35 L 366.58,144.66 L 365.00,143.00 L 363.40,141.36 L 361.77,139.74 L 360.12,138.15 L 358.45,136.58 L 356.75,135.04 L 355.04,133.53 L 353.30,132.04 L 351.54,130.57 L 349.76,129.13 L 347.96,127.72 L 346.14,126.33 L 344.30,124.98 L 342.44,123.65 L 340.56,122.34 L 338.67,121.07 L 336.76,119.82 L 334.82,118.60 L 332.88,117.41 L 330.91,116.25 L 328.93,115.12 L 326.93,114.01 L 324.92,112.94 L 322.89,111.90 L 320.85,110.88 L 318.79,109.90 L 316.73,108.95 L 314.64,108.02 L 312.55,107.13 L 310.44,106.27 L 308.32,105.44 L 306.19,104.64 L 304.05,103.88 L 301.90,103.14 L 299.73,102.44 L 297.56,101.76 L 295.38,101.12 L 293.19,100.51 L 290.99,99.94 L 288.79,99.40 L 286.58,98.88 L 284.36,98.41 L 282.13,97.96 L 279.90,97.55 L 277.67,97.16 L 275.43,96.82 L 273.18,96.50 L 270.93,96.22 L 268.68,95.97 L 266.43,95.75 L 264.17,95.57 L 261.91,95.42 L 259.65,95.30 L 257.39,95.22 L 255.13,95.16 L 252.87,95.15 L 250.61,95.16 L 248.35,95.21 L 246.09,95.29 L 243.83,95.40 L 241.58,95.55 L 239.33,95.73 L 237.08,95.94 L 234.84,96.19 L 232.60,96.46 L 230.36,96.77 L 228.13,97.12 L 225.91,97.49 L 223.69,97.90 L 221.48,98.34 L 219.28,98.81 L 217.09,99.31 L 214.90,99.85 L 212.72,100.42 L 210.55,101.01 L 208.39,101.64 L 206.24,102.31 L 204.10,103.00 L 201.97,103.72 L 199.86,104.48 L 197.75,105.26 L 195.66,106.08 L 193.58,106.92 L 191.51,107.80 L 189.46,108.71 L 187.42,109.64 L 185.39,110.61 L 183.38,111.60 L 181.38,112.62 L 179.41,113.67 L 177.44,114.75 L 175.49,115.86 L 173.56,117.00 L 171.65,118.16 L 169.76,119.36 L 167.88,120.57 L 166.02,121.82 L 164.18,123.09 L 162.36,124.39 L 160.56,125.72 L 158.78,127.07 L 157.02,128.44 L 155.28,129.85 L 153.56,131.27 L 151.86,132.72 L 150.19,134.20 L 148.53,135.70 L 146.90,137.22 L 145.30,138.77 L 143.71,140.34 L 142.15,141.93 L 140.61,143.54 L 139.10,145.18 L 137.61,146.83 L 136.15,148.51 L 134.71,150.21 L 133.29,151.93 L 131.91,153.67 L 130.54,155.43 L 129.21,157.21 L 127.90,159.00 L 126.61,160.82 L 125.36,162.65 L 124.13,164.51 L 122.93,166.37 L 121.76,168.26 L 120.61,170.16 L 119.49,172.08 L 118.40,174.01 L 117.34,175.96 L 116.31,177.92 L 115.31,179.90 L 114.34,181.89 L 113.39,183.90 L 112.48,185.92 L 111.59,187.95 L 110.74,189.99 L 109.92,192.04 L 109.12,194.11 L 108.36,196.19 L 107.63,198.27 L 106.92,200.37 L 106.25,202.48 L 105.61,204.59 L 105.00,206.72 L 104.42,208.85 L 103.88,210.99 L 103.36,213.13 L 102.88,215.29 L 102.43,217.45 L 102.01,219.61 L 101.62,221.78 L 101.26,223.96 L 100.94,226.14 L 100.64,228.33 L 100.38,230.51 L 100.15,232.70 L 99.96,234.90 L 99.79,237.09 L 99.66,239.29 L 99.56,241.49 L 99.49,243.69 L 99.46,245.88 L 99.45,248.08 L 99.48,250.28 L 99.54,252.48 L 99.63,254.67 L 99.76,256.86 L 99.91,259.05 L 100.10,261.24 L 100.32,263.42 L 100.57,265.60 L 100.86,267.78 L 101.17,269.95 L 101.52,272.11 L 101.90,274.27 L 102.31,276.42 L 102.75,278.57 L 103.22,280.71 L 103.72,282.84 L 104.25,284.96 L 104.82,287.08 L 105.41,289.18 L 106.04,291.28 L 106.70,293.36 L 107.38,295.44 L 108.10,297.50 L 108.85,299.55 L 109.62,301.59 L 110.43,303.62 L 111.26,305.64 L 112.13,307.64 L 113.02,309.64 L 113.94,311.61 L 114.89,313.57 L 115.87,315.52 L 116.87,317.46 L 117.91,319.37 L 118.97,321.27 L 120.06,323.16 L 121.18,325.03 L 122.32,326.88 L 123.49,328.72 L 124.69,330.53 L 125.91,332.33 L 127.16,334.11 L 128.43,335.87 L 129.73,337.61 L 131.05,339.34 L 132.40,341.04 L 133.77,342.72 L 135.17,344.38 L 136.59,346.02 L 138.03,347.64 L 139.50,349.24 L 140.99,350.81 L 142.50,352.37 L 144.04,353.90 L 145.59,355.40 L 147.17,356.89 L 148.77,358.35 L 150.39,359.78 L 152.03,361.20 L 153.69,362.59 L 155.37,363.95 L 157.07,365.29 L 158.78,366.60 L 160.52,367.89 L 162.27,369.15 L 164.05,370.38 L 165.83,371.59 L 167.64,372.77 L 169.46,373.93 L 171.30,375.06 L 173.16,376.16 L 175.03,377.23 L 176.91,378.28 L 178.81,379.30 L 180.73,380.29 L 182.65,381.25 L 184.59,382.18 L 186.55,383.09 L 188.51,383.96 L 190.49,384.81 L 192.48,385.63 L 194.48,386.42 L 196.49,387.17 L 198.52,387.90 L 200.55,388.60 L 202.59,389.27 L 204.64,389.91 L 206.70,390.52 L 208.77,391.10 L 210.84,391.65 L 212.92,392.16 L 215.01,392.65 L 217.11,393.11 L 219.21,393.53 L 221.31,393.93 L 223.43,394.29 L 225.54,394.63 L 227.66,394.93 L 229.78,395.20 L 231.91,395.44 L 234.04,395.65 L 236.17,395.83 L 238.31,395.97 L 240.44,396.09 L 242.58,396.17 L 244.71,396.22 L 246.85,396.25 L 248.98,396.24 L 251.12,396.20 L 253.25,396.12 L 255.38,396.02 L 257.51,395.89 L 259.64,395.72 L 261.76,395.53 L 263.88,395.30 L 265.99,395.04 L 268.10,394.75 L 270.21,394.43 L 272.31,394.08 L 274.40,393.70 L 276.49,393.29 L 278.57,392.85 L 280.65,392.38 L 282.71,391.88 L 284.77,391.35 L 286.82,390.78 L 288.86,390.19 L 290.89,389.57 L 292.91,388.92 L 294.92,388.24 L 296.92,387.54 L 298.91,386.80 L 300.89,386.03 L 302.86,385.24 L 304.81,384.41 L 306.75,383.56 L 308.68,382.68 L 310.59,381.78 L 312.49,380.84 L 314.38,379.88 L 316.25,378.89 L 318.10,377.87 L 319.94,376.83 L 321.77,375.76 L 323.58,374.67 L 325.37,373.55 L 327.14,372.40 L 328.90,371.23 L 330.64,370.03 L 332.36,368.81 L 334.06,367.56 L 335.74,366.29 L 337.41,364.99 L 339.05,363.67 L 340.68,362.33 L 342.28,360.96 L 343.87,359.57 L 345.43,358.16 L 346.97,356.73 L 348.49,355.27 L 349.99,353.79 L 351.47,352.29 L 352.92,350.77 L 354.35,349.23 L 355.76,347.67 L 357.14,346.09 L 358.50,344.49 L 359.84,342.87 L 361.15,341.23 L 362.44,339.57 L 363.71,337.90 L 364.95,336.21 L 366.16,334.50 L 367.35,332.77 L 368.51,331.02 L 369.65,329.26 L 370.76,327.49 L 371.84,325.69 L 372.90,323.89 L 373.93,322.06 L 374.93,320.23 L 375.91,318.38 L 376.86,316.51 L 377.78,314.64 L 378.68,312.75 L 379.54,310.85 L 380.38,308.93 L 381.19,307.01 L 381.97,305.07 L 382.72,303.12 L 383.45,301.16 L 384.14,299.20 L 384.81,297.22 L 385.45,295.24 L 386.05,293.24 L 386.63,291.24 L 387.18,289.23 L 387.70,287.21 L 388.19,285.19 L 388.65,283.16 L 389.08,281.12 L 389.48,279.08 L 389.85,277.03 L 390.19,274.98 L 390.50,272.93 L 390.78,270.87 L 391.03,268.80 L 391.25,266.74 L 391.44,264.67 L 391.60,262.60 L 391.73,260.53 L 391.83,258.46 L 391.90,256.38 L 391.93,254.31 L 391.94,252.24 L 391.92,250.17 L 391.87,248.10 L 391.78,246.03 L 391.67,243.96 L 391.53,241.89 L 391.35,239.83 L 391.15,237.77 L 390.92,235.72 L 390.65,233.67 L 390.36,231.62 L 390.04,229.58 L 389.69,227.54 L 389.30,225.51 L 388.89,223.49 L 388.45,221.47 L 387.98,219.46 L 387.48,217.46 L 386.95,215.47 L 386.40,213.48 L 385.81,211.51 L 385.20,209.54 L 384.55,207.58 L 383.88,205.64 L 383.18,203.70 L 382.45,201.77 L 381.70,199.86 L 380.92,197.96 L 380.10,196.07 L 379.27,194.19 L 378.40,192.33 L 377.51,190.47 L 376.59,188.64 L 375.65,186.81 L 374.68,185.00 L 373.68,183.21 L 372.65,181.43 L 371.61,179.67 L 370.53,177.92 L 369.43,176.19 L 368.31,174.48 L 367.16,172.78 L 365.99,171.10 L 364.79,169.44 L 363.57,167.79 L 362.33,166.17 L 361.06,164.56 L 359.77,162.98 L 358.46,161.41 L 357.12,159.86 L 355.76,158.33 L 354.38,156.82 L 352.98,155.34 L 351.56,153.87 L 350.12,152.43 L 348.66,151.01 L 347.17,149.60 L 345.67,148.23 L 344.15,146.87 L 342.60,145.54 L 341.04,144.23 L 339.46,142.94 L 337.87,141.68 L 336.25,140.44 L 334.62,139.22 L 332.97,138.03 L 331.30,136.86 L 329.62,135.72 L 327.92,134.60 L 326.20,133.51 L 324.47,132.45 L 322.73,131.41 L 320.97,130.39 L 319.20,129.40 L 317.41,128.44 L 315.61,127.50 L 313.80,126.59 L 311.97,125.71 L 310.13,124.86 L 308.28,124.03 L 306.42,123.23 L 304.55,122.45 L 302.67,121.71 L 300.77,120.99 L 298.87,120.30 L 296.96,119.64 L 295.04,119.01 L 293.11,118.40 L 291.17,117.82 L 289.22,117.27 L 287.27,116.75 L 285.31,116.26 L 283.35,115.80 L 281.38,115.37 L 279.40,114.96 L 277.42,114.59 L 275.43,114.24 L 273.44,113.92 L 271.44,113.64 L 269.44,113.38 L 267.44,113.15 L 265.44,112.95 L 263.43,112.78 L 261.42,112.63 L 259.42,112.52 L 257.41,112.44 L 255.40,112.39 L 253.38,112.36 L 251.38,112.37 L 249.37,112.40 L 247.36,112.47 L 245.35,112.56 L 243.35,112.68 L 241.35,112.83 L 239.35,113.01 L 237.35,113.22 L 235.36,113.46 L 233.38,113.73 L 231.39,114.03 L 229.42,114.35 L 227.45,114.71 L 225.48,115.09 L 223.52,115.50 L 221.57,115.94 L 219.62,116.41 L 217.69,116.91 L 215.76,117.43 L 213.84,117.98 L 211.92,118.56 L 210.02,119.17 L 208.13,119.81 L 206.25,120.47 L 204.37,121.16 L 202.51,121.88 L 200.66,122.62 L 198.82,123.39 L 196.99,124.19 L 195.18,125.01 L 193.38,125.86 L 191.59,126.74 L 189.81,127.64 L 188.05,128.57 L 186.30,129.52 L 184.57,130.50 L 182.85,131.50 L 181.15,132.53 L 179.46,133.58 L 177.79,134.66 L 176.14,135.76 L 174.50,136.88 L 172.88,138.03 L 171.28,139.20 L 169.69,140.39 L 168.13,141.61 L 166.58,142.85 L 165.05,144.11 L 163.53,145.39 L 162.04,146.69 L 160.57,148.02 L 159.12,149.36 L 157.69,150.73 L 156.27,152.12 L 154.88,153.52 L 153.51,154.95 L 152.17,156.40 L 150.84,157.86 L 149.53,159.35 L 148.25,160.85 L 146.99,162.37 L 145.75,163.91 L 144.54,165.46 L 143.35,167.04 L 142.18,168.63 L 141.04,170.23 L 139.92,171.85 L 138.82,173.49 L 137.75,175.15 L 136.70,176.81 L 135.68,178.50 L 134.68,180.19 L 133.71,181.91 L 132.76,183.63 L 131.84,185.37 L 130.95,187.12 L 130.08,188.88 L 129.23,190.66 L 128.42,192.44 L 127.63,194.24 L 126.86,196.05 L 126.12,197.87 L 125.41,199.69 L 124.73,201.53 L 124.07,203.38 L 123.44,205.24 L 122.84,207.10 L 122.27,208.98 L 121.72,210.86 L 121.20,212.74 L 120.71,214.64 L 120.24,216.54 L 119.81,218.45 L 119.40,220.36 L 119.02,222.28 L 118.67,224.20 L 118.35,226.13 L 118.05,228.06 L 117.79,229.99 L 117.55,231.93 L 117.34,233.87 L 117.16,235.81 L 117.00,237.76 L 116.88,239.70 L 116.78,241.65 L 116.71,243.60 L 116.67,245.54 L 116.66,247.49 L 116.68,249.44 L 116.73,251.38 L 116.80,253.33 L 116.90,255.27 L 117.04,257.21 L 117.19,259.15 L 117.38,261.08 L 117.60,263.01 L 117.84,264.94 L 118.11,266.86 L 118.41,268.78 L 118.74,270.69 L 119.10,272.60 L 119.48,274.50 L 119.89,276.40 L 120.33,278.28 L 120.79,280.17 L 121.29,282.04 L 121.81,283.90 L 122.35,285.76 L 122.93,287.61 L 123.53,289.45 L 124.16,291.28 L 124.81,293.10 L 125.49,294.91 L 126.20,296.70 L 126.93,298.49 L 127.69,300.27 L 128.47,302.03 L 129.28,303.78 L 130.11,305.52 L 130.97,307.25 L 131.86,308.96 L 132.77,310.66 L 133.70,312.35 L 134.66,314.02 L 135.64,315.68 L 136.64,317.32 L 137.67,318.95 L 138.72,320.56 L 139.80,322.15 L 140.90,323.73 L 142.02,325.29 L 143.16,326.84 L 144.33,328.37 L 145.51,329.88 L 146.72,331.37 L 147.95,332.84 L 149.20,334.30 L 150.47,335.73 L 151.77,337.15 L 153.08,338.55 L 154.41,339.93 L 155.76,341.28 L 157.13,342.62 L 158.52,343.94 L 159.93,345.24 L 161.36,346.51 L 162.80,347.76 L 164.27,349.00 L 165.75,350.21 L 167.24,351.39 L 168.76,352.56 L 170.29,353.70 L 171.83,354.82 L 173.40,355.92 L 174.97,357.00 L 176.56,358.05 L 178.17,359.07 L 179.79,360.08 L 181.43,361.06 L 183.08,362.01 L 184.74,362.94 L 186.41,363.85 L 188.10,364.73 L 189.80,365.58 L 191.51,366.41 L 193.24,367.22 L 194.97,368.00 L 196.72,368.75 L 198.47,369.48 L 200.24,370.18 L 202.01,370.86 L 203.79,371.51 L 205.59,372.14 L 207.39,372.73 L 209.20,373.30 L 211.01,373.85 L 212.84,374.37 L 214.67,374.86 L 216.50,375.32 L 218.34,375.76 L 220.19,376.17 L 222.05,376.55 L 223.90,376.90 L 225.77,377.23 L 227.63,377.53 L 229.50,377.81 L 231.38,378.05 L 233.25,378.27 L 235.13,378.46 L 237.01,378.63 L 238.90,378.76 L 240.78,378.87 L 242.66,378.95 L 244.55,379.00 L 246.43,379.03 L 248.32,379.03 L 250.20,379.00 L 252.09,378.94 L 253.97,378.86 L 255.84,378.75 L 257.72,378.61 L 259.59,378.44 L 261.46,378.25 L 263.33,378.03 L 265.19,377.78 L 267.05,377.50 L 268.91,377.20 L 270.75,376.87 L 272.60,376.52 L 274.43,376.14 L 276.26,375.73 L 278.09,375.29 L 279.90,374.83 L 281.71,374.34 L 283.52,373.82 L 285.31,373.28 L 287.09,372.72 L 288.87,372.12 L 290.63,371.51 L 292.39,370.86 L 294.14,370.19 L 295.87,369.50 L 297.60,368.78 L 299.31,368.03 L 301.01,367.27 L 302.70,366.47 L 304.38,365.65 L 306.04,364.81 L 307.70,363.95 L 309.33,363.06 L 310.96,362.14 L 312.57,361.21 L 314.17,360.25 L 315.75,359.26 L 317.31,358.26 L 318.87,357.23 L 320.40,356.18 L 321.92,355.11 L 323.43,354.01 L 324.91,352.90 L 326.38,351.76 L 327.84,350.61 L 329.27,349.43 L 330.69,348.23 L 332.09,347.01 L 333.47,345.77 L 334.83,344.51 L 336.17,343.24 L 337.50,341.94 L 338.80,340.62 L 340.09,339.29 L 341.35,337.94 L 342.60,336.57 L 343.82,335.18 L 345.03,333.77 L 346.21,332.35 L 347.37,330.91 L 348.51,329.46 L 349.63,327.99 L 350.72,326.50 L 351.80,325.00 L 352.85,323.48 L 353.88,321.95 L 354.88,320.40 L 355.87,318.84 L 356.83,317.27 L 357.76,315.68 L 358.67,314.08 L 359.56,312.47 L 360.43,310.84 L 361.27,309.20 L 362.09,307.56 L 362.88,305.90 L 363.65,304.22 L 364.39,302.54 L 365.11,300.85 L 365.80,299.15 L 366.47,297.44 L 367.11,295.72 L 367.73,293.99 L 368.32,292.25 L 368.89,290.51 L 369.43,288.76 L 369.94,287.00 L 370.43,285.23 L 370.90,283.46 L 371.33,281.68 L 371.74,279.90 L 372.13,278.11 L 372.49,276.31 L 372.82,274.52 L 373.12,272.71 L 373.40,270.91 L 373.65,269.10 L 373.88,267.28 L 374.08,265.47 L 374.25,263.65 L 374.40,261.83 L 374.52,260.01 L 374.61,258.19 L 374.68,256.37 L 374.72,254.55 L 374.73,252.73 L 374.72,250.90 L 374.68,249.08 L 374.61,247.26 L 374.52,245.45 L 374.40,243.63 L 374.25,241.82 L 374.08,240.01 L 373.88,238.20 L 373.65,236.40 L 373.40,234.60 L 373.13,232.81 L 372.82,231.02 L 372.49,229.23 L 372.14,227.46 L 371.76,225.68 L 371.35,223.92 L 370.92,222.16 L 370.46,220.40 L 369.97,218.66 L 369.47,216.92 L 368.93,215.19 L 368.37,213.47 L 367.79,211.76 L 367.18,210.06 L 366.55,208.37 L 365.89,206.68 L 365.21,205.01 L 364.50,203.35 L 363.77,201.70 L 363.02,200.06 L 362.24,198.43 L 361.44,196.81 L 360.61,195.21 L 359.77,193.62 L 358.90,192.04 L 358.01,190.48 L 357.09,188.93 L 356.15,187.39 L 355.19,185.87 L 354.21,184.36 L 353.21,182.87 L 352.19,181.39 L 351.14,179.93 L 350.07,178.49 L 348.99,177.06 L 347.88,175.64 L 346.75,174.25 L 345.61,172.87 L 344.44,171.51 L 343.25,170.16 L 342.05,168.84 L 340.82,167.53 L 339.58,166.24 L 338.32,164.97 L 337.04,163.72 L 335.74,162.48 L 334.43,161.27 L 333.10,160.08 L 331.75,158.90 L 330.38,157.75 L 329.00,156.62 L 327.61,155.50 L 326.19,154.41 L 324.77,153.34 L 323.32,152.29 L 321.87,151.26 L 320.39,150.26 L 318.91,149.27 L 317.41,148.31 L 315.89,147.37 L 314.37,146.46 L 312.83,145.56 L 311.28,144.69 L 309.71,143.84 L 308.14,143.02 L 306.55,142.22 L 304.96,141.44 L 303.35,140.68 L 301.73,139.95 L 300.10,139.24 L 298.46,138.56 L 296.81,137.90 L 295.16,137.27 L 293.49,136.66 L 291.82,136.07 L 290.14,135.51 L 288.45,134.98 L 286.76,134.47 L 285.05,133.98 L 283.35,133.52 L 281.63,133.08 L 279.91,132.67 L 278.19,132.29 L 276.46,131.93 L 274.72,131.59 L 272.98,131.28 L 271.24,131.00 L 269.50,130.74 L 267.75,130.51 L 266.00,130.30 L 264.24,130.12 L 262.49,129.97 L 260.73,129.84 L 258.97,129.73 L 257.21,129.66 L 255.45,129.60 L 253.69,129.58 L 251.93,129.58 L 250.18,129.60 L 248.42,129.65 L 246.66,129.73 L 244.91,129.83 L 243.16,129.95 L 241.41,130.11 L 239.66,130.29 L 237.92,130.49 L 236.18,130.72 L 234.45,130.97 L 232.72,131.25 L 230.99,131.56 L 229.27,131.88 L 227.56,132.24 L 225.85,132.62 L 224.15,133.02 L 222.45,133.45 L 220.76,133.90 L 219.08,134.38 L 217.41,134.88 L 215.74,135.41 L 214.09,135.96 L 212.44,136.54 L 210.80,137.13 L 209.17,137.76 L 207.55,138.40 L 205.94,139.07 L 204.34,139.76 L 202.75,140.48 L 201.17,141.21 L 199.61,141.98 L 198.05,142.76 L 196.51,143.56 L 194.98,144.39 L 193.47,145.24 L 191.96,146.11 L 190.47,147.01 L 189.00,147.92 L 187.53,148.85 L 186.09,149.81 L 184.65,150.79 L 183.23,151.79 L 181.83,152.80 L 180.44,153.84 L 179.07,154.90 L 177.71,155.98 L 176.37,157.07 L 175.05,158.19 L 173.74,159.32 L 172.45,160.48 L 171.18,161.65 L 169.93,162.84 L 168.69,164.04 L 167.47,165.27 L 166.27,166.51 L 165.09,167.77 L 163.93,169.05 L 162.79,170.34 L 161.66,171.65 L 160.56,172.97 L 159.47,174.31 L 158.41,175.66 L 157.37,177.03 L 156.34,178.42 L 155.34,179.82 L 154.36,181.23 L 153.40,182.66 L 152.46,184.09 L 151.54,185.55 L 150.64,187.01 L 149.77,188.49 L 148.92,189.98 L 148.08,191.48 L 147.28,193.00 L 146.49,194.52 L 145.73,196.06 L 144.99,197.60 L 144.27,199.16 L 143.57,200.72 L 142.90,202.30 L 142.25,203.88 L 141.63,205.48 L 141.03,207.08 L 140.45,208.69 L 139.90,210.30 L 139.37,211.93 L 138.86,213.56 L 138.38,215.20 L 137.92,216.84 L 137.49,218.49 L 137.08,220.15 L 136.69,221.81 L 136.33,223.48 L 136.00,225.15 L 135.69,226.82 L 135.40,228.50 L 135.14,230.18 L 134.90,231.87 L 134.69,233.55 L 134.50,235.24 L 134.34,236.94 L 134.20,238.63 L 134.08,240.32 L 133.99,242.02 L 133.93,243.72 L 133.89,245.41 L 133.88,247.11 L 133.89,248.81 L 133.92,250.50 L 133.98,252.19 L 134.07,253.89 L 134.17,255.58 L 134.31,257.26 L 134.47,258.95 L 134.65,260.63 L 134.86,262.31 L 135.09,263.98 L 135.34,265.65 L 135.62,267.32 L 135.93,268.98 L 136.26,270.64 L 136.61,272.29 L 136.99,273.93 L 137.39,275.57 L 137.81,277.20 L 138.26,278.83 L 138.73,280.45 L 139.22,282.05 L 139.74,283.66 L 140.28,285.25 L 140.85,286.84 L 141.43,288.41 L 142.04,289.98 L 142.68,291.54 L 143.33,293.08 L 144.01,294.62 L 144.71,296.15 L 145.43,297.66 L 146.17,299.17 L 146.94,300.66 L 147.72,302.14 L 148.53,303.61 L 149.36,305.06 L 150.21,306.51 L 151.08,307.94 L 151.97,309.36 L 152.88,310.76 L 153.81,312.15 L 154.76,313.52 L 155.73,314.88 L 156.72,316.23 L 157.73,317.56 L 158.76,318.88 L 159.81,320.18 L 160.87,321.46 L 161.95,322.73 L 163.06,323.98 L 164.17,325.22 L 165.31,326.43 L 166.47,327.63 L 167.64,328.82 L 168.82,329.98 L 170.03,331.13 L 171.25,332.26 L 172.49,333.37 L 173.74,334.47 L 175.01,335.54 L 176.29,336.60 L 177.59,337.63 L 178.90,338.65 L 180.22,339.64 L 181.56,340.62 L 182.92,341.58 L 184.28,342.52 L 185.66,343.43 L 187.06,344.33 L 188.46,345.20 L 189.88,346.06 L 191.31,346.89 L 192.75,347.70 L 194.20,348.49 L 195.67,349.26 L 197.14,350.01 L 198.62,350.73 L 200.12,351.44 L 201.62,352.12 L 203.13,352.78 L 204.65,353.41 L 206.18,354.03 L 207.72,354.62 L 209.27,355.19 L 210.82,355.73 L 212.38,356.26 L 213.95,356.76 L 215.52,357.23 L 217.11,357.69 L 218.69,358.12 L 220.28,358.53 L 221.88,358.91 L 223.48,359.27 L 225.09,359.61 L 226.70,359.92 L 228.32,360.21 L 229.93,360.47 L 231.56,360.71 L 233.18,360.93 L 234.81,361.13 L 236.43,361.30 L 238.07,361.44 L 239.70,361.57 L 241.33,361.66 L 242.96,361.74 L 244.60,361.79 L 246.23,361.82 L 247.86,361.82 L 249.50,361.80 L 251.13,361.75 L 252.76,361.69 L 254.39,361.59 L 256.01,361.48 L 257.64,361.34 L 259.26,361.18 L 260.88,360.99 L 262.49,360.78 L 264.10,360.54 L 265.71,360.29 L 267.31,360.01 L 268.91,359.70 L 270.50,359.38 L 272.09,359.03 L 273.67,358.65 L 275.24,358.26 L 276.81,357.84 L 278.37,357.40 L 279.92,356.93 L 281.47,356.45 L 283.01,355.94 L 284.54,355.41 L 286.06,354.85 L 287.57,354.28 L 289.08,353.68 L 290.57,353.06 L 292.06,352.42 L 293.53,351.76 L 295.00,351.08 L 296.45,350.37 L 297.89,349.65 L 299.33,348.90 L 300.75,348.14 L 302.15,347.35 L 303.55,346.54 L 304.93,345.72 L 306.30,344.87 L 307.66,344.00 L 309.01,343.12 L 310.34,342.21 L 311.66,341.29 L 312.96,340.35 L 314.25,339.39 L 315.52,338.41 L 316.78,337.41 L 318.02,336.39 L 319.25,335.36 L 320.47,334.31 L 321.66,333.24 L 322.84,332.16 L 324.01,331.05 L 325.16,329.94 L 326.29,328.80 L 327.40,327.65 L 328.50,326.49 L 329.58,325.30 L 330.64,324.11 L 331.68,322.90 L 332.71,321.67 L 333.71,320.43 L 334.70,319.17 L 335.67,317.91 L 336.62,316.62 L 337.55,315.33 L 338.47,314.02 L 339.36,312.70 L 340.23,311.36 L 341.08,310.02 L 341.92,308.66 L 342.73,307.29 L 343.52,305.91 L 344.29,304.52 L 345.04,303.12 L 345.77,301.71 L 346.48,300.29 L 347.17,298.85 L 347.84,297.41 L 348.48,295.96 L 349.11,294.50 L 349.71,293.04 L 350.29,291.56 L 350.85,290.08 L 351.39,288.59 L 351.90,287.09 L 352.39,285.58 L 352.86,284.07 L 353.31,282.56 L 353.74,281.03 L 354.14,279.51 L 354.52,277.97 L 354.88,276.43 L 355.22,274.89 L 355.53,273.34 L 355.82,271.79 L 356.09,270.24"
        fill="none"
        stroke="black"
        stroke-width="2.2"
        stroke-linecap="round"
        marker-end="url(#arr)"/>

  <!-- Dot noir à droite -->
  <circle cx="478" cy="250" r="5.5" fill="black"/>

  <!-- Moftal grand et vert, baseline à y=252 (texte au-dessus, flèche juste en dessous) -->
  <text
    x="250"
    y="252"
    font-family="Arial, Helvetica, sans-serif"
    font-weight="bold"
    font-size="65"
    fill="#22a722"
    text-anchor="middle">Moftal</text>
</svg>