<?xml version="1.0" encoding="UTF-8"?>
<svg xmlns="http://www.w3.org/2000/svg" viewBox="0 0 700 700" width="700" height="700">
  <defs>
    <!--
      Fleche propre :
      - refX=0 refY=9 : la BASE de la fleche est au bout de la spirale
      - la POINTE (x=18) s'etend vers l'interieur (direction de la spirale)
      - orient=auto : suit la direction naturelle du bout de la spirale (vers le haut)
      - taille 18px < ecart entre lignes (13px)... mais va vers l'INTERIEUR
        donc ne touche aucune ligne exterieure
    -->
    <marker id="ar" markerUnits="userSpaceOnUse"
            markerWidth="20" markerHeight="18"
            refX="0" refY="9"
            orient="auto">
      <polygon points="0 0, 18 9, 0 18" fill="#000000"/>
    </marker>
  </defs>

  <rect width="700" height="700" fill="#ffffff"/>

  <path d="M 640.8,405.3 L 641.5,401.0 642.2,396.8 642.8,392.5 643.4,388.2 643.9,383.9 644.3,379.5 644.7,375.2 645.0,370.9 645.3,366.6 645.4,362.2 645.6,357.9 645.6,353.6 645.6,349.2 645.5,344.9 645.4,340.6 645.2,336.2 644.9,331.9 644.6,327.6 644.2,323.3 643.8,319.0 643.2,314.7 642.7,310.4 642.0,306.1 641.3,301.8 640.5,297.6 639.7,293.3 638.8,289.1 637.9,284.9 636.9,280.7 635.8,276.5 634.6,272.3 633.4,268.1 632.2,264.0 630.9,259.9 629.5,255.8 628.0,251.7 626.5,247.7 625.0,243.6 623.4,239.6 621.7,235.6 620.0,231.7 618.2,227.7 616.3,223.8 614.4,220.0 612.5,216.1 610.4,212.3 608.4,208.5 606.2,204.7 604.1,201.0 601.8,197.3 599.5,193.7 597.2,190.0 594.8,186.5 592.3,182.9 589.8,179.4 587.3,175.9 584.7,172.5 582.0,169.1 579.3,165.7 576.6,162.4 573.8,159.1 570.9,155.8 568.0,152.7 565.1,149.5 562.1,146.4 559.1,143.3 556.0,140.3 552.9,137.3 549.7,134.4 546.5,131.5 543.3,128.7 540.0,125.9 536.7,123.2 533.3,120.5 529.9,117.8 526.5,115.2 523.0,112.7 519.5,110.2 515.9,107.8 512.3,105.4 508.7,103.1 505.1,100.8 501.4,98.6 497.7,96.4 493.9,94.3 490.1,92.2 486.3,90.2 482.5,88.3 478.6,86.4 474.7,84.6 470.8,82.8 466.9,81.1 462.9,79.4 458.9,77.8 454.9,76.3 450.9,74.8 446.8,73.4 442.7,72.0 438.7,70.7 434.5,69.5 430.4,68.3 426.3,67.2 422.1,66.1 417.9,65.1 413.7,64.2 409.5,63.3 405.3,62.5 401.1,61.8 396.9,61.1 392.6,60.5 388.4,59.9 384.1,59.4 379.8,59.0 375.6,58.6 371.3,58.3 367.0,58.0 362.7,57.8 358.4,57.7 354.1,57.6 349.9,57.6 345.6,57.7 341.3,57.8 337.0,58.0 332.7,58.3 328.5,58.6 324.2,59.0 319.9,59.4 315.7,59.9 311.4,60.5 307.2,61.1 303.0,61.8 298.8,62.5 294.5,63.3 290.4,64.2 286.2,65.2 282.0,66.2 277.9,67.2 273.7,68.3 269.6,69.5 265.5,70.7 261.5,72.0 257.4,73.4 253.4,74.8 249.4,76.3 245.4,77.8 241.4,79.4 237.5,81.1 233.5,82.8 229.6,84.5 225.8,86.3 221.9,88.2 218.1,90.2 214.3,92.1 210.6,94.2 206.9,96.3 203.2,98.4 199.5,100.6 195.9,102.9 192.3,105.2 188.8,107.6 185.2,110.0 181.8,112.5 178.3,115.0 174.9,117.5 171.5,120.2 168.2,122.8 164.9,125.5 161.7,128.3 158.4,131.1 155.3,134.0 152.2,136.9 149.1,139.8 146.0,142.8 143.0,145.8 140.1,148.9 137.2,152.0 134.3,155.2 131.5,158.4 128.8,161.6 126.0,164.9 123.4,168.2 120.8,171.6 118.2,175.0 115.7,178.4 113.2,181.9 110.8,185.4 108.4,188.9 106.1,192.5 103.9,196.1 101.7,199.8 99.5,203.4 97.4,207.1 95.4,210.9 93.4,214.6 91.5,218.4 89.6,222.2 87.8,226.1 86.0,230.0 84.3,233.9 82.7,237.8 81.1,241.7 79.5,245.7 78.1,249.7 76.7,253.7 75.3,257.7 74.0,261.8 72.8,265.8 71.6,269.9 70.5,274.0 69.4,278.1 68.4,282.2 67.5,286.4 66.6,290.5 65.8,294.7 65.1,298.9 64.4,303.1 63.8,307.3 63.2,311.5 62.7,315.7 62.2,319.9 61.9,324.1 61.5,328.4 61.3,332.6 61.1,336.8 61.0,341.1 60.9,345.3 60.9,349.5 60.9,353.8 61.1,358.0 61.2,362.2 61.5,366.5 61.8,370.7 62.1,374.9 62.6,379.1 63.1,383.3 63.6,387.5 64.2,391.7 64.9,395.9 65.6,400.1 66.4,404.2 67.3,408.4 68.2,412.5 69.2,416.6 70.2,420.7 71.3,424.8 72.5,428.9 73.7,432.9 74.9,437.0 76.3,441.0 77.7,445.0 79.1,449.0 80.6,452.9 82.2,456.8 83.8,460.7 85.5,464.6 87.2,468.5 89.0,472.3 90.9,476.1 92.8,479.9 94.7,483.6 96.8,487.3 98.8,491.0 100.9,494.7 103.1,498.3 105.3,501.9 107.6,505.4 109.9,508.9 112.3,512.4 114.8,515.9 117.2,519.3 119.8,522.7 122.4,526.0 125.0,529.3 127.7,532.6 130.4,535.8 133.1,539.0 136.0,542.1 138.8,545.2 141.7,548.2 144.7,551.3 147.7,554.2 150.7,557.1 153.8,560.0 156.9,562.9 160.1,565.6 163.3,568.4 166.5,571.1 169.8,573.7 173.1,576.3 176.5,578.9 179.9,581.3 183.3,583.8 186.8,586.2 190.2,588.5 193.8,590.8 197.3,593.1 200.9,595.2 204.6,597.4 208.2,599.5 211.9,601.5 215.6,603.5 219.4,605.4 223.1,607.2 226.9,609.0 230.8,610.8 234.6,612.5 238.5,614.1 242.4,615.7 246.3,617.2 250.2,618.7 254.2,620.1 258.2,621.4 262.2,622.7 266.2,623.9 270.2,625.1 274.3,626.2 278.3,627.3 282.4,628.3 286.5,629.2 290.6,630.1 294.7,630.9 298.9,631.6 303.0,632.3 307.1,632.9 311.3,633.5 315.5,634.0 319.6,634.5 323.8,634.8 328.0,635.2 332.2,635.4 336.4,635.6 340.6,635.8 344.8,635.9 348.9,635.9 353.1,635.8 357.3,635.7 361.5,635.5 365.7,635.3 369.9,635.0 374.0,634.7 378.2,634.3 382.4,633.8 386.5,633.3 390.7,632.7 394.8,632.0 398.9,631.3 403.0,630.5 407.1,629.7 411.2,628.8 415.3,627.8 419.4,626.8 423.4,625.7 427.4,624.6 431.4,623.4 435.4,622.1 439.4,620.8 443.4,619.5 447.3,618.0 451.2,616.5 455.1,615.0 458.9,613.4 462.8,611.8 466.6,610.0 470.4,608.3 474.1,606.5 477.9,604.6 481.6,602.7 485.2,600.7 488.9,598.6 492.5,596.6 496.1,594.4 499.6,592.2 503.2,590.0 506.6,587.7 510.1,585.3 513.5,582.9 516.9,580.5 520.2,578.0 523.5,575.4 526.8,572.9 530.0,570.2 533.2,567.5 536.4,564.8 539.5,562.0 542.6,559.2 545.6,556.3 548.6,553.4 551.5,550.5 554.4,547.5 557.2,544.4 560.1,541.3 562.8,538.2 565.5,535.1 568.2,531.9 570.8,528.6 573.4,525.4 575.9,522.0 578.4,518.7 580.8,515.3 583.2,511.9 585.5,508.4 587.8,505.0 590.0,501.4 592.2,497.9 594.3,494.3 596.3,490.7 598.3,487.0 600.3,483.4 602.2,479.7 604.1,476.0 605.8,472.2 607.6,468.4 609.3,464.6 610.9,460.8 612.5,457.0 614.0,453.1 615.4,449.2 616.8,445.3 618.2,441.3 619.4,437.4 620.7,433.4 621.8,429.4 622.9,425.4 624.0,421.4 625.0,417.4 625.9,413.3 626.8,409.3 627.6,405.2 628.3,401.1 629.0,397.1 629.6,392.9 630.2,388.8 630.7,384.7 631.2,380.6 631.6,376.5 631.9,372.3 632.2,368.2 632.4,364.1 632.5,359.9 632.6,355.8 632.6,351.6 632.6,347.5 632.5,343.4 632.3,339.2 632.1,335.1 631.8,330.9 631.5,326.8 631.1,322.7 630.6,318.6 630.1,314.5 629.5,310.4 628.9,306.3 628.2,302.2 627.4,298.1 626.6,294.1 625.7,290.0 624.8,286.0 623.8,282.0 622.7,278.0 621.6,274.0 620.4,270.1 619.2,266.1 617.9,262.2 616.6,258.3 615.2,254.4 613.7,250.5 612.2,246.7 610.6,242.8 609.0,239.1 607.3,235.3 605.6,231.5 603.8,227.8 602.0,224.1 600.1,220.4 598.1,216.8 596.1,213.2 594.0,209.6 591.9,206.1 589.8,202.6 587.6,199.1 585.3,195.6 583.0,192.2 580.6,188.8 578.2,185.5 575.7,182.2 573.2,178.9 570.7,175.7 568.1,172.5 565.4,169.3 562.7,166.2 560.0,163.1 557.2,160.1 554.4,157.1 551.5,154.1 548.6,151.2 545.6,148.3 542.6,145.5 539.6,142.7 536.5,140.0 533.4,137.3 530.2,134.7 527.0,132.1 523.8,129.5 520.5,127.0 517.2,124.6 513.9,122.2 510.5,119.8 507.1,117.5 503.7,115.3 500.2,113.1 496.7,110.9 493.2,108.8 489.6,106.8 486.0,104.8 482.4,102.8 478.7,100.9 475.0,99.1 471.3,97.3 467.6,95.6 463.9,93.9 460.1,92.3 456.3,90.8 452.4,89.3 448.6,87.8 444.7,86.4 440.9,85.1 437.0,83.8 433.0,82.6 429.1,81.5 425.1,80.4 421.2,79.3 417.2,78.3 413.2,77.4 409.2,76.5 405.2,75.7 401.1,75.0 397.1,74.3 393.0,73.7 389.0,73.1 384.9,72.6 380.8,72.1 376.8,71.7 372.7,71.4 368.6,71.1 364.5,70.9 360.4,70.8 356.3,70.7 352.2,70.6 348.1,70.7 344.0,70.7 339.9,70.9 335.8,71.1 331.7,71.4 327.7,71.7 323.6,72.1 319.5,72.5 315.5,73.0 311.4,73.6 307.4,74.2 303.3,74.9 299.3,75.7 295.3,76.5 291.3,77.3 287.3,78.2 283.3,79.2 279.4,80.3 275.5,81.3 271.5,82.5 267.6,83.7 263.7,85.0 259.9,86.3 256.0,87.7 252.2,89.1 248.4,90.6 244.6,92.1 240.9,93.7 237.1,95.4 233.4,97.1 229.7,98.9 226.1,100.7 222.5,102.6 218.9,104.5 215.3,106.5 211.7,108.5 208.2,110.6 204.8,112.7 201.3,114.9 197.9,117.1 194.5,119.4 191.2,121.7 187.9,124.1 184.6,126.5 181.3,129.0 178.1,131.5 175.0,134.1 171.8,136.7 168.8,139.3 165.7,142.1 162.7,144.8 159.7,147.6 156.8,150.4 153.9,153.3 151.1,156.2 148.3,159.2 145.5,162.2 142.8,165.2 140.2,168.3 137.5,171.4 135.0,174.6 132.4,177.7 130.0,181.0 127.5,184.2 125.2,187.5 122.8,190.9 120.5,194.2 118.3,197.6 116.1,201.0 114.0,204.5 111.9,208.0 109.9,211.5 107.9,215.1 106.0,218.7 104.1,222.3 102.3,225.9 100.5,229.5 98.8,233.2 97.1,236.9 95.5,240.7 94.0,244.4 92.5,248.2 91.1,252.0 89.7,255.8 88.4,259.6 87.1,263.5 85.9,267.4 84.7,271.3 83.6,275.2 82.6,279.1 81.6,283.0 80.7,287.0 79.8,290.9 79.0,294.9 78.3,298.9 77.6,302.9 76.9,306.9 76.4,310.9 75.9,314.9 75.4,318.9 75.0,323.0 74.7,327.0 74.4,331.1 74.2,335.1 74.0,339.1 73.9,343.2 73.9,347.2 73.9,351.3 74.0,355.3 74.1,359.4 74.3,363.4 74.6,367.5 74.9,371.5 75.3,375.5 75.7,379.5 76.2,383.6 76.7,387.6 77.4,391.6 78.0,395.6 78.7,399.5 79.5,403.5 80.4,407.5 81.3,411.4 82.2,415.3 83.3,419.2 84.3,423.1 85.5,427.0 86.6,430.9 87.9,434.7 89.2,438.5 90.5,442.3 91.9,446.1 93.4,449.9 94.9,453.6 96.5,457.3 98.1,461.0 99.8,464.7 101.6,468.3 103.3,472.0 105.2,475.5 107.1,479.1 109.0,482.6 111.0,486.1 113.1,489.6 115.2,493.1 117.3,496.5 119.5,499.8 121.8,503.2 124.1,506.5 126.4,509.8 128.8,513.0 131.2,516.2 133.7,519.4 136.2,522.5 138.8,525.6 141.4,528.7 144.1,531.7 146.8,534.7 149.6,537.6 152.4,540.5 155.2,543.4 158.1,546.2 161.0,549.0 163.9,551.7 166.9,554.4 170.0,557.0 173.0,559.6 176.2,562.2 179.3,564.7 182.5,567.1 185.7,569.5 189.0,571.9 192.3,574.2 195.6,576.5 198.9,578.7 202.3,580.8 205.7,582.9 209.2,585.0 212.6,587.0 216.2,589.0 219.7,590.9 223.2,592.8 226.8,594.6 230.4,596.3 234.1,598.0 237.7,599.7 241.4,601.2 245.1,602.8 248.9,604.3 252.6,605.7 256.4,607.1 260.2,608.4 264.0,609.6 267.8,610.8 271.6,612.0 275.5,613.1 279.4,614.1 283.3,615.1 287.2,616.0 291.1,616.9 295.0,617.7 298.9,618.4 302.9,619.1 306.8,619.8 310.8,620.3 314.8,620.8 318.7,621.3 322.7,621.7 326.7,622.0 330.7,622.3 334.7,622.5 338.7,622.7 342.7,622.8 346.7,622.9 350.7,622.9 354.7,622.8 358.7,622.7 362.7,622.5 366.7,622.2 370.7,621.9 374.7,621.6 378.6,621.1 382.6,620.7 386.6,620.1 390.5,619.5 394.5,618.9 398.4,618.2 402.3,617.4 406.2,616.6 410.1,615.7 414.0,614.7 417.9,613.8 421.7,612.7 425.5,611.6 429.4,610.4 433.2,609.2 436.9,607.9 440.7,606.6 444.4,605.2 448.2,603.8 451.9,602.3 455.5,600.7 459.2,599.1 462.8,597.5 466.4,595.8 470.0,594.0 473.6,592.2 477.1,590.3 480.6,588.4 484.0,586.4 487.5,584.4 490.9,582.4 494.3,580.2 497.6,578.1 500.9,575.9 504.2,573.6 507.4,571.3 510.6,568.9 513.8,566.5 517.0,564.1 520.1,561.6 523.1,559.1 526.1,556.5 529.1,553.8 532.1,551.2 535.0,548.5 537.9,545.7 540.7,542.9 543.5,540.1 546.2,537.2 548.9,534.3 551.6,531.3 554.2,528.3 556.8,525.3 559.3,522.2 561.8,519.1 564.2,516.0 566.6,512.8 568.9,509.6 571.2,506.3 573.5,503.1 575.6,499.8 577.8,496.4 579.9,493.0 581.9,489.6 583.9,486.2 585.9,482.8 587.8,479.3 589.6,475.8 591.4,472.2 593.1,468.7 594.8,465.1 596.5,461.4 598.0,457.8 599.6,454.1 601.0,450.5 602.5,446.8 603.8,443.0 605.1,439.3 606.4,435.5 607.6,431.8 608.7,428.0 609.8,424.2 610.8,420.3 611.8,416.5 612.7,412.6 613.6,408.8 614.4,404.9 615.1,401.0 615.8,397.1 616.5,393.2 617.0,389.3 617.6,385.4 618.0,381.4 618.4,377.5 618.8,373.6 619.0,369.6 619.3,365.7 619.4,361.7 619.6,357.8 619.6,353.8 619.6,349.9 619.5,345.9 619.4,342.0 619.3,338.0 619.0,334.1 618.7,330.1 618.4,326.2 618.0,322.3 617.5,318.3 617.0,314.4 616.4,310.5 615.8,306.6 615.1,302.7 614.3,298.9 613.5,295.0 612.6,291.2 611.7,287.3 610.7,283.5 609.7,279.7 608.6,275.9 607.5,272.1 606.3,268.4 605.0,264.6 603.7,260.9 602.4,257.2 600.9,253.5 599.5,249.9 598.0,246.2 596.4,242.6 594.8,239.0 593.1,235.5 591.3,231.9 589.6,228.4 587.7,224.9 585.8,221.5 583.9,218.1 581.9,214.7 579.9,211.3 577.8,207.9 575.7,204.6 573.5,201.4 571.3,198.1 569.0,194.9 566.7,191.7 564.3,188.6 561.9,185.5 559.4,182.4 556.9,179.4 554.4,176.4 551.8,173.4 549.1,170.5 546.5,167.6 543.8,164.8 541.0,162.0 538.2,159.2 535.4,156.5 532.5,153.8 529.6,151.2 526.6,148.6 523.6,146.1 520.6,143.6 517.5,141.1 514.4,138.7 511.3,136.4 508.1,134.0 504.9,131.8 501.7,129.5 498.4,127.4 495.1,125.2 491.8,123.2 488.5,121.1 485.1,119.2 481.7,117.2 478.2,115.3 474.7,113.5 471.2,111.7 467.7,110.0 464.2,108.3 460.6,106.7 457.0,105.2 453.4,103.6 449.8,102.2 446.1,100.8 442.5,99.4 438.8,98.1 435.0,96.9 431.3,95.7 427.6,94.5 423.8,93.5 420.0,92.4 416.2,91.5 412.4,90.6 408.6,89.7 404.8,88.9 401.0,88.2 397.1,87.5 393.2,86.8 389.4,86.3 385.5,85.7 381.6,85.3 377.7,84.9 373.8,84.5 369.9,84.2 366.0,84.0 362.1,83.8 358.2,83.7 354.3,83.6 350.4,83.6 346.5,83.7 342.6,83.8 338.7,84.0 334.8,84.2 330.9,84.5 327.0,84.8 323.2,85.2 319.3,85.7 315.4,86.2 311.6,86.7 307.7,87.4 303.9,88.0 300.0,88.8 296.2,89.6 292.4,90.4 288.6,91.3 284.8,92.3 281.1,93.3 277.3,94.3 273.6,95.5 269.9,96.6 266.2,97.9 262.5,99.2 258.8,100.5 255.2,101.9 251.6,103.3 248.0,104.8 244.4,106.4 240.9,108.0 237.4,109.6 233.9,111.3 230.4,113.1 226.9,114.9 223.5,116.8 220.1,118.7 216.8,120.6 213.4,122.6 210.1,124.7 206.9,126.8 203.6,128.9 200.4,131.1 197.2,133.4 194.1,135.6 191.0,138.0 187.9,140.4 184.9,142.8 181.9,145.2 178.9,147.7 176.0,150.3 173.1,152.9 170.2,155.5 167.4,158.2 164.7,160.9 161.9,163.7 159.2,166.5 156.6,169.3 154.0,172.2 151.4,175.1 148.9,178.1 146.4,181.0 144.0,184.1 141.6,187.1 139.3,190.2 137.0,193.3 134.7,196.5 132.5,199.7 130.4,202.9 128.3,206.2 126.2,209.4 124.2,212.8 122.2,216.1 120.3,219.5 118.5,222.9 116.6,226.3 114.9,229.7 113.2,233.2 111.5,236.7 109.9,240.2 108.4,243.8 106.8,247.3 105.4,250.9 104.0,254.5 102.7,258.2 101.4,261.8 100.1,265.5 98.9,269.1 97.8,272.8 96.7,276.6 95.7,280.3 94.8,284.0 93.8,287.8 93.0,291.6 92.2,295.3 91.4,299.1 90.8,302.9 90.1,306.7 89.5,310.6 89.0,314.4 88.6,318.2 88.2,322.1 87.8,325.9 87.5,329.7 87.3,333.6 87.1,337.5 87.0,341.3 86.9,345.2 86.9,349.0 86.9,352.9 87.0,356.7 87.2,360.6 87.4,364.4 87.7,368.3 88.0,372.1 88.4,376.0 88.8,379.8 89.3,383.6 89.9,387.4 90.5,391.2 91.1,395.0 91.9,398.8 92.6,402.6 93.5,406.4 94.3,410.1 95.3,413.8 96.3,417.6 97.3,421.3 98.4,424.9 99.6,428.6 100.8,432.3 102.0,435.9 103.4,439.5 104.7,443.1 106.1,446.7 107.6,450.2 109.1,453.8 110.7,457.3 112.3,460.8 114.0,464.2 115.7,467.7 117.5,471.1 119.3,474.4 121.2,477.8 123.1,481.1 125.1,484.4 127.1,487.7 129.2,490.9 131.3,494.1 133.5,497.3 135.7,500.4 137.9,503.6 140.2,506.6 142.6,509.7 145.0,512.7 147.4,515.6 149.9,518.6 152.4,521.5 154.9,524.3 157.5,527.1 160.2,529.9 162.9,532.7 165.6,535.4 168.3,538.0 171.1,540.7 174.0,543.2 176.8,545.8 179.8,548.3 182.7,550.7 185.7,553.1 188.7,555.5 191.7,557.8 194.8,560.1 197.9,562.3 201.1,564.5 204.3,566.6 207.5,568.7 210.7,570.8 214.0,572.7 217.3,574.7 220.6,576.6 223.9,578.4 227.3,580.2 230.7,582.0 234.1,583.7 237.6,585.3 241.1,586.9 244.6,588.5 248.1,589.9 251.6,591.4 255.2,592.8 258.8,594.1 262.4,595.4 266.0,596.6 269.6,597.8 273.3,598.9 276.9,600.0 280.6,601.0 284.3,602.0 288.0,602.9 291.7,603.7 295.5,604.5 299.2,605.3 303.0,606.0 306.7,606.6 310.5,607.2 314.3,607.7 318.1,608.1 321.9,608.6 325.7,608.9 329.5,609.2 333.3,609.5 337.1,609.6 340.9,609.8 344.7,609.8 348.5,609.9 352.3,609.8 356.1,609.7 359.9,609.6 363.7,609.4 367.5,609.1 371.3,608.8 375.1,608.4 378.9,608.0 382.7,607.5 386.4,607.0 390.2,606.4 393.9,605.8 397.7,605.1 401.4,604.3 405.1,603.5 408.8,602.6 412.5,601.7 416.2,600.7 419.9,599.7 423.5,598.6 427.1,597.5 430.7,596.3 434.3,595.1 437.9,593.8 441.5,592.4 445.0,591.0 448.5,589.6 452.0,588.1 455.5,586.5 458.9,585.0 462.3,583.3 465.7,581.6 469.1,579.9 472.4,578.1 475.7,576.2 479.0,574.3 482.3,572.4 485.5,570.4 488.7,568.4 491.9,566.3 495.0,564.1 498.1,562.0 501.2,559.7 504.2,557.5 507.3,555.2 510.2,552.8 513.2,550.4 516.1,548.0 518.9,545.5 521.8,543.0 524.6,540.4 527.3,537.8 530.0,535.2 532.7,532.5 535.3,529.8 537.9,527.0 540.5,524.2 543.0,521.4 545.5,518.5 547.9,515.6 550.3,512.7 552.6,509.7 554.9,506.7 557.1,503.7 559.4,500.6 561.5,497.5 563.6,494.4 565.7,491.2 567.7,488.0 569.7,484.8 571.6,481.5 573.5,478.3 575.3,475.0 577.1,471.6 578.8,468.3 580.5,464.9 582.2,461.5 583.7,458.1 585.3,454.6 586.7,451.1 588.2,447.6 589.6,444.1 590.9,440.6 592.2,437.0 593.4,433.5 594.5,429.9 595.7,426.3 596.7,422.7 597.7,419.0 598.7,415.4 599.6,411.7 600.4,408.1 601.2,404.4 602.0,400.7 602.7,397.0 603.3,393.3 603.9,389.5 604.4,385.8 604.9,382.1 605.3,378.3 605.6,374.6 605.9,370.8 606.2,367.1 606.4,363.3 606.5,359.5 606.6,355.8 606.6,352.0 606.6,348.3 606.5,344.5 606.4,340.7 606.2,337.0 605.9,333.2 605.6,329.5 605.3,325.7 604.9,322.0 604.4,318.3 603.9,314.6 603.3,310.8 602.7,307.1 602.0,303.4 601.2,299.8 600.4,296.1 599.6,292.4 598.7,288.8 597.7,285.2 596.7,281.5 595.7,277.9 594.6,274.4 593.4,270.8 592.2,267.2 590.9,263.7 589.6,260.2 588.2,256.7 586.8,253.2 585.3,249.8 583.8,246.4 582.2,242.9 580.6,239.6 578.9,236.2 577.2,232.9 575.5,229.6 573.6,226.3 571.8,223.1 569.9,219.8 567.9,216.6 565.9,213.5 563.8,210.3 561.8,207.2 559.6,204.2 557.4,201.1 555.2,198.1 552.9,195.1 550.6,192.2 548.2,189.3 545.8,186.4 543.4,183.6 540.9,180.8 538.4,178.0 535.8,175.3 533.2,172.6 530.6,170.0 527.9,167.4 525.2,164.8 522.4,162.3 519.7,159.8 516.8,157.4 514.0,155.0 511.1,152.6 508.1,150.3 505.2,148.0 502.2,145.8 499.1,143.6 496.1,141.5 493.0,139.4 489.9,137.3 486.7,135.3 483.6,133.4 480.3,131.4 477.1,129.6 473.9,127.8 470.6,126.0 467.3,124.3 463.9,122.6 460.6,121.0 457.2,119.4 453.8,117.9 450.4,116.4 446.9,115.0 443.4,113.7 440.0,112.3 436.4,111.1 432.9,109.9 429.4,108.7 425.8,107.6 422.3,106.5 418.7,105.5 415.1,104.6 411.5,103.7 407.8,102.8 404.2,102.0 400.6,101.3 396.9,100.6 393.2,100.0 389.6,99.4 385.9,98.9 382.2,98.4 378.5,98.0 374.8,97.7 371.1,97.3 367.4,97.1 363.7,96.9 360.0,96.8 356.2,96.7 352.5,96.6 348.8,96.7 345.1,96.7 341.4,96.9 337.7,97.0 334.0,97.3 330.3,97.6 326.6,97.9 322.9,98.3 319.2,98.8 315.5,99.3 311.9,99.8 308.2,100.5 304.6,101.1 300.9,101.9 297.3,102.6 293.7,103.5 290.1,104.3 286.5,105.3 282.9,106.3 279.4,107.3 275.8,108.4 272.3,109.5 268.8,110.7 265.3,112.0 261.8,113.3 258.4,114.6 254.9,116.0 251.5,117.5 248.2,119.0 244.8,120.5 241.4,122.1 238.1,123.7 234.8,125.4 231.6,127.2 228.3,129.0 225.1,130.8 221.9,132.7 218.8,134.6 215.7,136.6 212.6,138.6 209.5,140.6 206.4,142.8 203.4,144.9 200.5,147.1 197.5,149.3 194.6,151.6 191.8,153.9 188.9,156.3 186.1,158.7 183.3,161.2 180.6,163.6 177.9,166.2 175.3,168.7 172.6,171.3 170.1,174.0 167.5,176.7 165.0,179.4 162.6,182.1 160.2,184.9 157.8,187.7 155.4,190.6 153.2,193.5 150.9,196.4 148.7,199.3 146.5,202.3 144.4,205.3 142.3,208.4 140.3,211.5 138.3,214.6 136.4,217.7 134.5,220.9 132.7,224.1 130.9,227.3 129.1,230.5 127.4,233.8 125.8,237.1 124.2,240.4 122.6,243.7 121.1,247.1 119.6,250.4 118.2,253.8 116.9,257.3 115.6,260.7 114.3,264.2 113.1,267.6 112.0,271.1 110.9,274.6 109.8,278.2 108.8,281.7 107.9,285.2 107.0,288.8 106.1,292.4 105.3,296.0 104.6,299.6 103.9,303.2 103.3,306.8 102.7,310.4 102.2,314.1 101.7,317.7 101.3,321.3 100.9,325.0 100.6,328.7 100.4,332.3 100.2,336.0 100.0,339.6 99.9,343.3 99.9,347.0 99.9,350.6 100.0,354.3 100.1,358.0 100.3,361.6 100.5,365.3 100.8,369.0 101.1,372.6 101.5,376.2 101.9,379.9 102.4,383.5 103.0,387.1 103.6,390.7 104.2,394.3 104.9,397.9 105.7,401.5 106.5,405.1 107.4,408.6 108.3,412.2 109.2,415.7 110.3,419.2 111.3,422.7 112.5,426.2 113.6,429.7 114.9,433.1 116.1,436.6 117.4,440.0 118.8,443.3 120.2,446.7 121.7,450.1 123.2,453.4 124.8,456.7 126.4,460.0 128.1,463.2 129.8,466.4 131.5,469.6 133.3,472.8 135.2,476.0 137.1,479.1 139.0,482.2 141.0,485.2 143.0,488.3 145.1,491.3 147.2,494.2 149.4,497.2 151.6,500.1 153.9,503.0 156.1,505.8 158.5,508.6 160.8,511.4 163.2,514.1 165.7,516.8 168.2,519.5 170.7,522.1 173.3,524.7 175.9,527.2 178.5,529.8 181.2,532.2 183.9,534.7 186.6,537.1 189.4,539.4 192.2,541.7 195.1,544.0 198.0,546.2 200.9,548.4 203.8,550.5 206.8,552.6 209.8,554.7 212.8,556.7 215.9,558.7 219.0,560.6 222.1,562.4 225.2,564.3 228.4,566.1 231.6,567.8 234.8,569.5 238.1,571.1 241.3,572.7 244.6,574.2 247.9,575.7 251.3,577.2 254.6,578.6 258.0,579.9 261.4,581.2 264.8,582.5 268.2,583.7 271.7,584.8 275.1,585.9 278.6,586.9 282.1,587.9 285.6,588.9 289.1,589.8 292.6,590.6 296.2,591.4 299.7,592.1 303.3,592.8 306.9,593.4 310.4,594.0 314.0,594.5 317.6,595.0 321.2,595.4 324.8,595.8 328.4,596.1 332.0,596.4 335.6,596.6 339.3,596.7 342.9,596.8 346.5,596.9 350.1,596.9 353.7,596.8 357.4,596.7 361.0,596.5 364.6,596.3 368.2,596.0 371.8,595.7 375.4,595.3 379.0,594.9 382.6,594.4 386.1,593.9 389.7,593.3 393.3,592.7 396.8,592.0 400.3,591.2 403.9,590.4 407.4,589.6 410.9,588.7 414.4,587.8 417.8,586.8 421.3,585.7 424.7,584.6 428.2,583.5 431.6,582.3 434.9,581.0 438.3,579.7 441.7,578.4 445.0,577.0 448.3,575.5 451.6,574.0 454.8,572.5 458.1,570.9 461.3,569.3 464.5,567.6 467.6,565.9 470.8,564.1 473.9,562.3 477.0,560.4 480.0,558.5 483.0,556.5 486.0,554.5 489.0,552.5 491.9,550.4 494.8,548.3 497.7,546.1 500.6,543.9 503.4,541.7 506.1,539.4 508.9,537.0 511.6,534.7 514.3,532.2 516.9,529.8 519.5,527.3 522.0,524.8 524.6,522.2 527.1,519.6 529.5,517.0 531.9,514.3 534.3,511.6 536.6,508.9 538.9,506.1 541.1,503.3 543.3,500.5 545.5,497.6 547.6,494.7 549.7,491.8 551.7,488.8 553.7,485.8 555.6,482.8 557.5,479.7 559.4,476.7 561.2,473.6 563.0,470.5 564.7,467.3 566.4,464.1 568.0,460.9 569.6,457.7 571.1,454.5 572.6,451.2 574.0,447.9 575.4,444.6 576.7,441.3 578.0,437.9 579.2,434.6 580.4,431.2 581.6,427.8 582.6,424.4 583.7,421.0 584.7,417.5 585.6,414.1 586.5,410.6 587.3,407.1 588.1,403.6 588.8,400.1 589.5,396.6 590.1,393.1 590.7,389.6 591.2,386.0 591.7,382.5 592.1,378.9 592.5,375.4 592.8,371.8 593.1,368.2 593.3,364.7 593.5,361.1 593.6,357.5 593.6,354.0 593.6,350.4 593.6,346.8 593.5,343.2 593.3,339.7 593.1,336.1 592.8,332.6 592.5,329.0 592.2,325.5 591.7,321.9 591.3,318.4 590.8,314.8 590.2,311.3 589.6,307.8 588.9,304.3 588.2,300.8 587.4,297.3 586.6,293.9 585.7,290.4 584.8,287.0 583.8,283.5 582.7,280.1 581.7,276.7 580.5,273.4 579.4,270.0 578.1,266.7 576.9,263.3 575.5,260.0 574.2,256.7 572.8,253.5 571.3,250.2 569.8,247.0 568.2,243.8 566.6,240.6 564.9,237.5 563.2,234.4 561.5,231.3 559.7,228.2 557.9,225.1 556.0,222.1 554.1,219.1 552.1,216.2 550.1,213.2 548.1,210.3 546.0,207.5 543.8,204.6 541.7,201.8 539.4,199.1 537.2,196.3 534.9,193.6 532.5,190.9 530.2,188.3 527.8,185.7 525.3,183.1 522.8,180.6 520.3,178.1 517.7,175.6 515.1,173.2 512.5,170.8 509.9,168.5 507.2,166.2 504.4,163.9 501.7,161.7 498.9,159.5 496.0,157.4 493.2,155.3 490.3,153.3 487.4,151.2 484.4,149.3 481.5,147.4 478.5,145.5 475.4,143.6 472.4,141.8 469.3,140.1 466.2,138.4 463.1,136.7 459.9,135.1 456.7,133.6 453.5,132.1 450.3,130.6 447.1,129.2 443.8,127.8 440.5,126.5 437.2,125.2 433.9,124.0 430.6,122.8 427.2,121.7 423.9,120.6 420.5,119.6 417.1,118.6 413.7,117.7 410.3,116.8 406.8,116.0 403.4,115.2 399.9,114.4 396.5,113.8 393.0,113.1 389.5,112.6 386.0,112.0 382.5,111.6 379.0,111.1 375.5,110.8 372.0,110.5 368.5,110.2 365.0,110.0 361.5,109.8 357.9,109.7 354.4,109.6 350.9,109.6 347.4,109.7 343.8,109.8 340.3,109.9 336.8,110.1 333.3,110.4 329.8,110.7 326.3,111.0 322.8,111.4 319.3,111.9 315.8,112.4 312.3,112.9 308.9,113.5 305.4,114.2 302.0,114.9 298.5,115.7 295.1,116.5 291.7,117.3 288.3,118.3 284.9,119.2 281.5,120.2 278.2,121.3 274.9,122.4 271.5,123.5 268.2,124.7 265.0,126.0 261.7,127.3 258.5,128.6 255.2,130.0 252.0,131.5 248.8,133.0 245.7,134.5 242.6,136.1 239.4,137.7 236.4,139.4 233.3,141.1 230.3,142.8 227.3,144.6 224.3,146.5 221.3,148.4 218.4,150.3 215.5,152.3 212.6,154.3 209.8,156.4 207.0,158.5 204.2,160.6 201.5,162.8 198.8,165.0 196.1,167.3 193.4,169.6 190.8,171.9 188.3,174.3 185.7,176.7 183.2,179.1 180.8,181.6 178.3,184.2 175.9,186.7 173.6,189.3 171.3,191.9 169.0,194.6 166.8,197.3 164.6,200.0 162.4,202.7 160.3,205.5 158.2,208.3 156.2,211.2 154.2,214.1 152.3,217.0 150.3,219.9 148.5,222.8 146.7,225.8 144.9,228.8 143.2,231.9 141.5,234.9 139.8,238.0 138.3,241.1 136.7,244.3 135.2,247.4 133.8,250.6 132.4,253.8 131.0,257.0 129.7,260.2 128.4,263.5 127.2,266.7 126.0,270.0 124.9,273.3 123.8,276.6 122.8,280.0 121.8,283.3 120.9,286.7 120.0,290.1 119.2,293.4 118.4,296.8 117.7,300.2 117.0,303.7 116.4,307.1 115.8,310.5 115.3,314.0 114.9,317.4 114.4,320.9 114.1,324.3 113.7,327.8 113.5,331.3 113.2,334.7 113.1,338.2 113.0,341.7 112.9,345.2 112.9,348.6 112.9,352.1 113.0,355.6 113.1,359.1 113.3,362.5 113.6,366.0 113.9,369.4 114.2,372.9 114.6,376.4 115.0,379.8 115.5,383.2 116.1,386.7 116.7,390.1 117.3,393.5 118.0,396.9 118.7,400.3 119.5,403.7 120.4,407.0 121.3,410.4 122.2,413.7 123.2,417.0 124.2,420.4 125.3,423.7 126.4,426.9 127.6,430.2 128.8,433.4 130.1,436.6 131.4,439.9 132.8,443.0 134.2,446.2 135.7,449.3 137.2,452.5 138.7,455.5 140.3,458.6 142.0,461.7 143.7,464.7 145.4,467.7 147.2,470.7 149.0,473.6 150.9,476.5 152.8,479.4 154.7,482.3 156.7,485.1 158.7,487.9 160.8,490.7 162.9,493.4 165.0,496.1 167.2,498.8 169.4,501.4 171.7,504.1 174.0,506.6 176.3,509.2 178.7,511.7 181.1,514.2 183.6,516.6 186.1,519.0 188.6,521.4 191.1,523.7 193.7,526.0 196.3,528.2 199.0,530.4 201.6,532.6 204.4,534.7 207.1,536.8 209.9,538.9 212.7,540.9 215.5,542.9 218.4,544.8 221.2,546.7 224.2,548.5 227.1,550.3 230.1,552.1 233.1,553.8 236.1,555.4 239.1,557.1 242.2,558.6 245.3,560.2 248.4,561.6 251.5,563.1 254.6,564.5 257.8,565.8 261.0,567.1 264.2,568.4 267.4,569.6 270.6,570.7 273.9,571.9 277.2,572.9 280.5,573.9 283.8,574.9 287.1,575.8 290.4,576.7 293.7,577.5 297.1,578.3 300.4,579.0 303.8,579.7 307.2,580.3 310.6,580.9 314.0,581.4 317.4,581.9 320.8,582.3 324.2,582.7 327.6,583.0 331.0,583.3 334.4,583.5 337.9,583.7 341.3,583.8 344.7,583.8 348.2,583.9 351.6,583.8 355.0,583.8 358.4,583.6 361.9,583.5 365.3,583.2 368.7,582.9 372.1,582.6 375.5,582.2 378.9,581.8 382.3,581.3 385.7,580.8 389.1,580.2 392.4,579.6 395.8,578.9 399.1,578.2 402.5,577.4 405.8,576.6 409.1,575.7 412.4,574.8 415.7,573.8 418.9,572.8 422.2,571.8 425.4,570.6 428.6,569.5 431.8,568.3 435.0,567.0 438.2,565.7 441.3,564.4 444.4,563.0 447.5,561.6 450.6,560.1 453.7,558.6 456.7,557.0 459.7,555.4 462.7,553.7 465.6,552.0 468.6,550.3 471.5,548.5 474.4,546.7 477.2,544.8 480.0,542.9 482.8,540.9 485.6,538.9 488.3,536.9 491.1,534.8 493.7,532.7 496.4,530.6 499.0,528.4 501.6,526.2 504.1,523.9 506.6,521.6 509.1,519.3 511.5,516.9 514.0,514.5 516.3,512.0 518.7,509.6 521.0,507.1 523.2,504.5 525.4,501.9 527.6,499.3 529.8,496.7 531.9,494.0 534.0,491.3 536.0,488.6 538.0,485.8 539.9,483.0 541.8,480.2 543.7,477.4 545.5,474.5 547.3,471.6 549.0,468.7 550.7,465.7 552.4,462.8 554.0,459.8 555.5,456.8 557.0,453.7 558.5,450.7 559.9,447.6 561.3,444.5 562.7,441.4 563.9,438.2 565.2,435.1 566.4,431.9 567.5,428.7 568.6,425.5 569.7,422.3 570.7,419.0 571.7,415.8 572.6,412.5 573.4,409.2 574.2,406.0 575.0,402.7 575.7,399.3 576.4,396.0 577.0,392.7 577.6,389.4 578.1,386.0 578.6,382.7 579.0,379.3 579.4,375.9 579.7,372.6 580.0,369.2 580.2,365.8 580.4,362.4 580.5,359.1 580.6,355.7 580.6,352.3 580.6,348.9 580.5,345.5 580.4,342.2 580.2,338.8 580.0,335.4 579.7,332.0 579.4,328.7 579.1,325.3 578.6,322.0 578.2,318.6 577.7,315.3 577.1,312.0 576.5,308.6 575.8,305.3 575.1,302.0 574.4,298.7 573.6,295.5 572.7,292.2 571.8,289.0 570.9,285.7 569.9,282.5 568.8,279.3 567.7,276.1 566.6,272.9 565.4,269.8 564.2,266.6 562.9,263.5 561.6,260.4 560.2,257.3 558.8,254.3 557.4,251.2 555.9,248.2 554.3,245.2 552.7,242.3 551.1,239.3 549.4,236.4 547.7,233.5 546.0,230.6 544.2,227.8 542.3,225.0 540.5,222.2 538.5,219.4 536.6,216.7 534.6,214.0 532.5,211.3 530.5,208.7 528.4,206.0 526.2,203.5 524.0,200.9 521.8,198.4 519.5,195.9 517.2,193.5 514.9,191.1 512.5,188.7 510.1,186.3 507.7,184.0 505.2,181.8 502.7,179.5 500.2,177.3 497.6,175.2 495.0,173.0 492.4,171.0 489.7,168.9 487.0,166.9 484.3,164.9 481.6,163.0 478.8,161.1 476.0,159.3 473.2,157.5 470.3,155.7 467.4,154.0 464.5,152.3 461.6,150.7 458.7,149.1 455.7,147.6 452.7,146.1 449.7,144.6 446.7,143.2 443.6,141.8 440.5,140.5 437.4,139.2 434.3,138.0 431.2,136.8 428.1,135.7 424.9,134.6 421.7,133.5 418.5,132.5 415.3,131.6 412.1,130.7 408.9,129.8 405.6,129.0 402.4,128.3 399.1,127.5 395.8,126.9 392.6,126.3 389.3,125.7 386.0,125.2 382.7,124.7 379.4,124.3 376.0,123.9 372.7,123.6 369.4,123.3 366.1,123.1 362.7,122.9 359.4,122.7 356.1,122.7 352.7,122.6 349.4,122.6 346.1,122.7 342.7,122.8 339.4,123.0 336.1,123.2 332.8,123.5 329.5,123.8 326.1,124.1 322.8,124.5 319.5,125.0 316.2,125.5 313.0,126.0 309.7,126.6 306.4,127.3 303.2,128.0 299.9,128.7 296.7,129.5 293.5,130.3 290.3,131.2 287.1,132.1 283.9,133.1 280.7,134.1 277.6,135.2 274.5,136.3 271.3,137.5 268.2,138.7 265.2,139.9 262.1,141.2 259.1,142.5 256.1,143.9 253.1,145.4 250.1,146.8 247.1,148.3 244.2,149.9 241.3,151.5 238.4,153.1 235.5,154.8 232.7,156.5 229.9,158.3 227.1,160.1 224.4,162.0 221.6,163.9 218.9,165.8 216.3,167.7 213.6,169.7 211.0,171.8 208.4,173.9 205.9,176.0 203.4,178.1 200.9,180.3 198.5,182.6 196.0,184.8 193.6,187.1 191.3,189.5 189.0,191.8 186.7,194.2 184.5,196.6 182.3,199.1 180.1,201.6 177.9,204.1 175.9,206.7 173.8,209.3 171.8,211.9 169.8,214.5 167.8,217.2 165.9,219.9 164.1,222.6 162.3,225.4 160.5,228.2 158.7,231.0 157.0,233.8 155.4,236.7 153.8,239.6 152.2,242.5 150.7,245.4 149.2,248.3 147.7,251.3 146.3,254.3 145.0,257.3 143.7,260.3 142.4,263.4 141.2,266.4 140.0,269.5 138.9,272.6 137.8,275.7 136.8,278.9 135.8,282.0 134.8,285.2 133.9,288.3 133.1,291.5 132.3,294.7 131.5,297.9 130.8,301.1 130.2,304.3 129.5,307.6 129.0,310.8 128.5,314.1 128.0,317.3 127.6,320.6 127.2,323.9 126.8,327.1 126.6,330.4 126.3,333.7 126.1,337.0 126.0,340.3 125.9,343.5 125.9,346.8 125.9,350.1 125.9,353.4 126.1,356.7 126.2,360.0 126.4,363.2 126.7,366.5 126.9,369.8 127.3,373.0 127.7,376.3 128.1,379.6 128.6,382.8 129.1,386.0 129.7,389.3 130.4,392.5 131.0,395.7 131.8,398.9 132.5,402.1 133.3,405.3 134.2,408.4 135.1,411.6 136.1,414.7 137.1,417.8 138.1,420.9 139.2,424.0 140.3,427.1 141.5,430.1 142.7,433.2 144.0,436.2 145.3,439.2 146.7,442.2 148.1,445.1 149.5,448.1 151.0,451.0 152.5,453.9 154.1,456.7 155.7,459.6 157.4,462.4 159.1,465.2 160.8,468.0 162.6,470.7 164.4,473.4 166.3,476.1 168.2,478.8 170.1,481.4 172.1,484.0 174.1,486.6 176.1,489.2 178.2,491.7 180.3,494.2 182.5,496.6 184.7,499.0 186.9,501.4 189.1,503.8 191.4,506.1 193.8,508.4 196.1,510.6 198.5,512.8 200.9,515.0 203.4,517.2 205.9,519.3 208.4,521.3 210.9,523.4 213.5,525.4 216.1,527.3 218.7,529.3 221.4,531.1 224.1,533.0 226.8,534.8 229.5,536.5 232.3,538.3 235.1,539.9 237.9,541.6 240.7,543.2 243.6,544.7 246.5,546.2 249.4,547.7 252.3,549.1 255.3,550.5 258.2,551.9 261.2,553.2 264.2,554.4 267.2,555.6 270.2,556.8 273.3,557.9 276.4,559.0 279.4,560.0 282.5,561.0 285.6,561.9 288.8,562.8 291.9,563.7 295.1,564.5 298.2,565.2 301.4,565.9 304.6,566.6 307.7,567.2 310.9,567.8 314.1,568.3 317.3,568.7 320.6,569.2 323.8,569.5 327.0,569.9 330.2,570.2 333.5,570.4 336.7,570.6 339.9,570.7 343.2,570.8 346.4,570.9 349.6,570.9 352.9,570.8 356.1,570.7 359.4,570.6 362.6,570.4 365.8,570.1 369.0,569.9 372.3,569.5 375.5,569.1 378.7,568.7 381.9,568.2 385.1,567.7 388.2,567.2 391.4,566.5 394.6,565.9 397.7,565.2 400.9,564.4 404.0,563.6 407.1,562.8 410.2,561.9 413.3,561.0 416.4,560.0 419.5,559.0 422.5,557.9 425.5,556.8 428.6,555.6 431.5,554.4 434.5,553.2 437.5,551.9 440.4,550.5 443.3,549.2 446.2,547.8 449.1,546.3 452.0,544.8 454.8,543.3 457.6,541.7 460.4,540.0 463.1,538.4 465.9,536.7 468.6,534.9 471.3,533.1 473.9,531.3 476.5,529.5 479.1,527.6 481.7,525.6 484.3,523.7 486.8,521.6 489.3,519.6 491.7,517.5 494.1,515.4 496.5,513.2 498.9,511.1 501.2,508.8 503.5,506.6 505.7,504.3 508.0,502.0 510.2,499.6 512.3,497.2 514.4,494.8 516.5,492.4 518.6,489.9 520.6,487.4 522.5,484.9 524.5,482.3 526.4,479.7 528.2,477.1 530.0,474.4 531.8,471.8 533.6,469.1 535.3,466.4 536.9,463.6 538.5,460.8 540.1,458.1 541.7,455.2 543.2,452.4 544.6,449.5 546.0,446.7 547.4,443.8 548.7,440.9 550.0,437.9 551.2,435.0 552.4,432.0 553.6,429.0 554.7,426.0 555.8,423.0 556.8,420.0 557.7,416.9 558.7,413.8 559.6,410.8 560.4,407.7 561.2,404.6 561.9,401.5 562.6,398.4 563.3,395.2 563.9,392.1 564.5,388.9 565.0,385.8 565.5,382.6 565.9,379.5 566.3,376.3 566.6,373.1 566.9,369.9 567.1,366.8 567.3,363.6 567.5,360.4 567.6,357.2 567.6,354.0 567.6,350.8 567.6,347.6 567.5,344.4 567.4,341.2 567.2,338.1 566.9,334.9 566.7,331.7 566.3,328.5 566.0,325.4 565.6,322.2 565.1,319.0 564.6,315.9 564.0,312.8 563.4,309.6 562.8,306.5 562.1,303.4 561.4,300.3 560.6,297.2 559.8,294.2 558.9,291.1 558.0,288.0 557.0,285.0 556.0,282.0 555.0,279.0 553.9,276.0 552.7,273.0 551.6,270.1 550.3,267.1 549.1,264.2 547.8,261.3 546.4,258.5 545.0,255.6 543.6,252.8 542.1,249.9 540.6,247.2 539.1,244.4 537.5,241.6 535.8,238.9 534.2,236.2 532.4,233.6 530.7,230.9 528.9,228.3 527.1,225.7 525.2,223.1 523.3,220.6 521.4,218.1 519.4,215.6 517.4,213.2 515.3,210.7 513.2,208.4 511.1,206.0 509.0,203.7 506.8,201.4 504.6,199.1 502.3,196.9 500.0,194.7 497.7,192.5 495.4,190.4 493.0,188.3 490.6,186.3 488.2,184.2 485.7,182.2 483.2,180.3 480.7,178.4 478.1,176.5 475.6,174.7 473.0,172.9 470.3,171.1 467.7,169.4 465.0,167.7 462.3,166.1 459.6,164.5 456.8,162.9 454.1,161.4 451.3,159.9 448.5,158.5 445.6,157.1 442.8,155.7 439.9,154.4 437.0,153.2 434.1,151.9 431.2,150.7 428.3,149.6 425.3,148.5 422.3,147.5 419.3,146.4 416.3,145.5 413.3,144.6 410.3,143.7 407.3,142.8 404.2,142.1 401.1,141.3 398.1,140.6 395.0,140.0 391.9,139.4 388.8,138.8 385.7,138.3 382.6,137.8 379.5,137.4 376.3,137.0 373.2,136.7 370.1,136.4 366.9,136.1 363.8,136.0 360.7,135.8 357.5,135.7 354.4,135.6 351.2,135.6 348.1,135.7 345.0,135.7 341.8,135.9 338.7,136.0 335.5,136.3 332.4,136.5 329.3,136.8 326.2,137.2 323.1,137.6 320.0,138.0 316.9,138.5 313.8,139.1 310.7,139.7 307.6,140.3 304.5,141.0 301.5,141.7 298.5,142.4 295.4,143.3 292.4,144.1 289.4,145.0 286.4,145.9 283.4,146.9 280.5,148.0 277.5,149.0 274.6,150.1 271.7,151.3 268.8,152.5 265.9,153.7 263.1,155.0 260.2,156.3 257.4,157.7 254.6,159.1 251.8,160.5 249.1,162.0 246.4,163.6 243.7,165.1 241.0,166.7 238.3,168.4 235.7,170.1 233.1,171.8 230.5,173.5 227.9,175.3 225.4,177.2 222.9,179.0 220.4,180.9 218.0,182.9 215.6,184.9 213.2,186.9 210.8,188.9 208.5,191.0 206.2,193.1 203.9,195.3 201.7,197.4 199.5,199.6 197.3,201.9 195.2,204.2 193.1,206.5 191.0,208.8 189.0,211.2 187.0,213.6 185.1,216.0 183.1,218.4 181.2,220.9 179.4,223.4 177.6,226.0 175.8,228.5 174.1,231.1 172.4,233.7 170.7,236.3 169.1,239.0 167.5,241.7 166.0,244.4 164.5,247.1 163.0,249.9 161.6,252.6 160.2,255.4 158.9,258.2 157.6,261.0 156.3,263.9 155.1,266.7 153.9,269.6 152.8,272.5 151.7,275.4 150.7,278.3 149.7,281.3 148.7,284.2 147.8,287.2 146.9,290.2 146.1,293.2 145.3,296.2 144.6,299.2 143.9,302.2 143.2,305.3 142.6,308.3 142.1,311.3 141.6,314.4 141.1,317.5 140.7,320.5 140.3,323.6 139.9,326.7 139.7,329.8 139.4,332.9 139.2,336.0 139.1,339.1 139.0,342.1 138.9,345.2 138.9,348.3 138.9,351.4 139.0,354.5 139.1,357.6 139.3,360.7 139.5,363.8 139.7,366.9 140.0,370.0 140.4,373.0 140.8,376.1 141.2,379.2 141.7,382.2 142.2,385.3 142.8,388.3 143.4,391.3 144.0,394.3 144.7,397.3 145.5,400.3 146.3,403.3 147.1,406.3 148.0,409.3 148.9,412.2 149.9,415.1 150.9,418.1 151.9,421.0 153.0,423.8 154.1,426.7 155.3,429.6 156.5,432.4 157.8,435.2 159.1,438.0 160.4,440.8 161.8,443.5 163.2,446.3 164.7,449.0 166.2,451.7 167.7,454.3 169.3,457.0 170.9,459.6 172.6,462.2 174.2,464.8 176.0,467.3 177.7,469.9 179.5,472.3 181.4,474.8 183.2,477.3 185.2,479.7 187.1,482.1 189.1,484.4 191.1,486.7 193.1,489.0 195.2,491.3 197.3,493.5 199.5,495.7 201.6,497.9 203.8,500.0 206.1,502.1 208.3,504.2 210.6,506.2 213.0,508.2 215.3,510.2 217.7,512.2 220.1,514.0 222.5,515.9 225.0,517.7 227.5,519.5 230.0,521.3 232.6,523.0 235.1,524.7 237.7,526.3 240.3,527.9 243.0,529.5 245.6,531.0 248.3,532.5 251.0,533.9 253.7,535.3 256.5,536.7 259.2,538.0 262.0,539.3 264.8,540.5 267.6,541.8 270.4,542.9 273.3,544.0 276.2,545.1 279.0,546.1 281.9,547.1 284.8,548.1 287.8,549.0 290.7,549.8 293.6,550.7 296.6,551.4 299.6,552.2 302.5,552.9 305.5,553.5 308.5,554.1 311.5,554.7 314.5,555.2 317.5,555.6 320.6,556.1 323.6,556.4 326.6,556.8 329.7,557.1 332.7,557.3 335.7,557.5 338.8,557.7 341.8,557.8 344.9,557.8 347.9,557.9 351.0,557.8 354.0,557.8 357.1,557.7 360.1,557.5 363.1,557.3 366.2,557.1 369.2,556.8 372.2,556.4 375.3,556.1 378.3,555.6 381.3,555.2 384.3,554.7 387.3,554.1 390.3,553.5 393.2,552.9 396.2,552.2 399.1,551.5 402.1,550.7 405.0,549.9 407.9,549.0 410.8,548.1 413.7,547.2 416.6,546.2 419.5,545.2 422.3,544.1 425.1,543.0 427.9,541.8 430.7,540.6 433.5,539.4 436.3,538.1 439.0,536.8 441.7,535.5 444.4,534.1 447.1,532.7 449.7,531.2 452.4,529.7 455.0,528.1 457.5,526.6 460.1,524.9 462.6,523.3 465.2,521.6 467.6,519.8 470.1,518.1 472.5,516.3 474.9,514.4 477.3,512.6 479.7,510.7 482.0,508.7 484.3,506.7 486.5,504.7 488.8,502.7 491.0,500.6 493.2,498.5 495.3,496.4 497.4,494.2 499.5,492.0 501.5,489.8 503.5,487.5 505.5,485.2 507.5,482.9 509.4,480.6 511.2,478.2 513.1,475.8 514.9,473.4 516.6,470.9 518.4,468.5 520.1,466.0 521.7,463.5 523.3,460.9 524.9,458.3 526.5,455.7 528.0,453.1 529.4,450.5 530.9,447.8 532.3,445.2 533.6,442.5 534.9,439.8 536.2,437.0 537.4,434.3 538.6,431.5 539.7,428.7 540.8,425.9 541.9,423.1 542.9,420.3 543.9,417.4 544.9,414.6 545.8,411.7 546.6,408.8 547.4,405.9 548.2,403.0 548.9,400.1 549.6,397.2 550.2,394.2 550.8,391.3 551.4,388.3" stroke="#000000" stroke-width="5" fill="none"
        stroke-linecap="round" marker-end="url(#ar)"/>

  <circle cx="640.8" cy="405.3" r="7" fill="#000000"/>

  <text x="350" y="390"
        text-anchor="middle" fill="#22a722"
        font-size="118"
        font-family="Arial, Helvetica, sans-serif"
        font-weight="bold"
        letter-spacing="7">Moftal</text>
</svg>