<?xml version="1.0" encoding="UTF-8"?>
<svg xmlns="http://www.w3.org/2000/svg" viewBox="0 0 1200 1200" width="1200" height="1200">

  <!--
  ╔══════════════════════════════════════════════════════╗
  ║          LOGO MOFTAL — FICHIER MODIFIABLE            ║
  ║  Ouvrir dans Inkscape (gratuit) ou un éditeur texte  ║
  ╚══════════════════════════════════════════════════════╝

  COMMENT MODIFIER :
  - Cherchez les balises avec les commentaires ci-dessous
  - Changez la valeur entre guillemets
  - Enregistrez et rechargez dans votre navigateur
  -->

  <style>
    /*
    ╔══════════════════════════════════════════╗
    ║   ZONE DE PERSONNALISATION — MODIFIEZ   ║
    ╚══════════════════════════════════════════╝
    */

    /* Couleur du FOND (blanc = white, noir = black, transparent = transparent) */
    .fond { fill: white; }

    /* Couleur des LIGNES de la spirale */
    .spirale {
      stroke: black;        /* couleur des lignes */
      stroke-width: 4;      /* épaisseur des lignes (plus grand = plus épais) */
      fill: none;
      stroke-linecap: round;
    }

    /* Couleur et taille du POINT noir (bout extérieur de la spirale) */
    .point {
      fill: black;          /* couleur du point */
      r: 8;                 /* taille du point */
    }

    /* Couleur de la FLÈCHE intérieure */
    polygon.fleche {
      fill: black;          /* couleur de la flèche */
    }

    /* Couleur et taille du MOT MOFTAL */
    .texte {
      fill: #22a722;        /* couleur du texte — #22a722 = vert */
      font-size: 200px;     /* taille du texte */
      font-family: Arial, Helvetica, sans-serif;
      font-weight: bold;
      text-anchor: middle;
      letter-spacing: 4px;
    }
  </style>

  <!-- ═══ FOND (arrière-plan entre toutes les lignes) ═══ -->
  <!-- Changez fill= pour changer la couleur du fond -->
  <rect class="fond" width="1200" height="1200"/>

  <!-- ═══ DÉFINITION DE LA FLÈCHE ═══ -->
  <defs>
    <marker id="fleche"
            markerWidth="16" markerHeight="11"
            refX="16" refY="5.5"
            orient="auto">
      <!-- Changez fill= pour changer la couleur de la flèche -->
      <polygon class="fleche" points="0 0, 16 5.5, 0 11"/>
    </marker>
  </defs>

  <!-- ═══ SPIRALE (7 lignes en forme de maison d'araignée) ═══ -->
  <!-- Modifiez stroke= pour la couleur, stroke-width= pour l'épaisseur -->
  <path class="spirale"
        d="M 1175.00,600.00 L 1174.88,591.61 L 1174.64,583.22 L 1174.27,574.83 L 1173.79,566.46 L 1173.18,558.09 L 1172.45,549.73 L 1171.59,541.39 L 1170.62,533.06 L 1169.52,524.74 L 1168.31,516.44 L 1166.97,508.17 L 1165.51,499.91 L 1163.93,491.68 L 1162.23,483.47 L 1160.42,475.29 L 1158.48,467.13 L 1156.42,459.01 L 1154.25,450.92 L 1151.96,442.86 L 1149.55,434.83 L 1147.02,426.85 L 1144.38,418.90 L 1141.63,410.99 L 1138.76,403.13 L 1135.77,395.30 L 1132.67,387.52 L 1129.46,379.79 L 1126.13,372.11 L 1122.70,364.48 L 1119.15,356.90 L 1115.49,349.37 L 1111.73,341.90 L 1107.86,334.49 L 1103.87,327.13 L 1099.79,319.83 L 1095.59,312.59 L 1091.29,305.42 L 1086.89,298.31 L 1082.39,291.27 L 1077.78,284.29 L 1073.07,277.38 L 1068.27,270.55 L 1063.36,263.78 L 1058.36,257.09 L 1053.26,250.47 L 1048.06,243.92 L 1042.77,237.46 L 1037.38,231.07 L 1031.91,224.76 L 1026.34,218.54 L 1020.68,212.40 L 1014.94,206.34 L 1009.11,200.36 L 1003.19,194.47 L 997.19,188.67 L 991.10,182.96 L 984.93,177.34 L 978.68,171.81 L 972.35,166.37 L 965.95,161.03 L 959.46,155.78 L 952.90,150.62 L 946.27,145.57 L 939.57,140.61 L 932.79,135.75 L 925.94,130.99 L 919.03,126.33 L 912.05,121.77 L 905.00,117.31 L 897.90,112.96 L 890.72,108.72 L 883.49,104.58 L 876.20,100.54 L 868.85,96.61 L 861.45,92.80 L 853.99,89.09 L 846.48,85.48 L 838.92,81.99 L 831.31,78.62 L 823.65,75.35 L 815.95,72.19 L 808.20,69.15 L 800.41,66.22 L 792.58,63.41 L 784.70,60.71 L 776.79,58.13 L 768.85,55.66 L 760.87,53.31 L 752.85,51.08 L 744.81,48.96 L 736.74,46.96 L 728.64,45.08 L 720.51,43.32 L 712.36,41.68 L 704.19,40.15 L 695.99,38.75 L 687.78,37.47 L 679.55,36.30 L 671.31,35.26 L 663.05,34.34 L 654.78,33.53 L 646.50,32.85 L 638.21,32.29 L 629.92,31.85 L 621.62,31.54 L 613.32,31.34 L 605.01,31.26 L 596.71,31.31 L 588.41,31.48 L 580.12,31.76 L 571.83,32.17 L 563.55,32.70 L 555.27,33.35 L 547.01,34.13 L 538.76,35.02 L 530.53,36.03 L 522.31,37.16 L 514.11,38.41 L 505.93,39.78 L 497.78,41.27 L 489.64,42.88 L 481.53,44.61 L 473.45,46.46 L 465.40,48.42 L 457.38,50.50 L 449.39,52.70 L 441.43,55.01 L 433.51,57.44 L 425.62,59.98 L 417.78,62.64 L 409.97,65.41 L 402.21,68.30 L 394.49,71.29 L 386.82,74.41 L 379.19,77.63 L 371.61,80.96 L 364.08,84.40 L 356.61,87.95 L 349.19,91.61 L 341.82,95.38 L 334.51,99.25 L 327.25,103.23 L 320.06,107.32 L 312.93,111.51 L 305.86,115.80 L 298.85,120.20 L 291.91,124.69 L 285.04,129.29 L 278.23,133.98 L 271.50,138.78 L 264.84,143.67 L 258.25,148.66 L 251.73,153.74 L 245.29,158.92 L 238.93,164.19 L 232.64,169.55 L 226.43,175.00 L 220.31,180.54 L 214.27,186.17 L 208.31,191.89 L 202.43,197.69 L 196.64,203.58 L 190.94,209.55 L 185.33,215.60 L 179.80,221.73 L 174.37,227.95 L 169.03,234.24 L 163.78,240.60 L 158.63,247.05 L 153.57,253.56 L 148.61,260.15 L 143.74,266.81 L 138.97,273.54 L 134.30,280.34 L 129.74,287.20 L 125.27,294.13 L 120.91,301.13 L 116.64,308.18 L 112.49,315.30 L 108.43,322.47 L 104.48,329.71 L 100.64,337.00 L 96.91,344.34 L 93.28,351.74 L 89.77,359.18 L 86.36,366.68 L 83.06,374.23 L 79.87,381.82 L 76.80,389.46 L 73.84,397.14 L 70.98,404.86 L 68.25,412.62 L 65.62,420.42 L 63.12,428.26 L 60.72,436.13 L 58.44,444.04 L 56.28,451.98 L 54.23,459.94 L 52.30,467.94 L 50.49,475.96 L 48.80,484.01 L 47.22,492.08 L 45.76,500.17 L 44.42,508.28 L 43.20,516.41 L 42.10,524.55 L 41.11,532.71 L 40.25,540.88 L 39.50,549.07 L 38.88,557.26 L 38.37,565.46 L 37.98,573.66 L 37.72,581.87 L 37.57,590.08 L 37.54,598.29 L 37.64,606.50 L 37.85,614.71 L 38.18,622.91 L 38.64,631.11 L 39.21,639.29 L 39.90,647.47 L 40.71,655.64 L 41.64,663.79 L 42.69,671.92 L 43.86,680.04 L 45.14,688.14 L 46.54,696.22 L 48.06,704.28 L 49.70,712.32 L 51.46,720.32 L 53.33,728.30 L 55.32,736.26 L 57.42,744.18 L 59.64,752.07 L 61.97,759.92 L 64.42,767.74 L 66.98,775.52 L 69.66,783.27 L 72.44,790.97 L 75.34,798.63 L 78.35,806.25 L 81.47,813.82 L 84.70,821.34 L 88.04,828.81 L 91.49,836.24 L 95.04,843.61 L 98.70,850.93 L 102.47,858.19 L 106.35,865.40 L 110.32,872.55 L 114.40,879.64 L 118.59,886.67 L 122.87,893.64 L 127.26,900.54 L 131.75,907.37 L 136.33,914.14 L 141.01,920.85 L 145.79,927.48 L 150.67,934.04 L 155.64,940.53 L 160.70,946.94 L 165.86,953.28 L 171.11,959.54 L 176.45,965.73 L 181.87,971.83 L 187.39,977.85 L 192.99,983.80 L 198.68,989.66 L 204.45,995.43 L 210.31,1001.12 L 216.24,1006.73 L 222.26,1012.24 L 228.36,1017.67 L 234.53,1023.00 L 240.78,1028.25 L 247.11,1033.40 L 253.51,1038.46 L 259.98,1043.43 L 266.53,1048.30 L 273.14,1053.07 L 279.82,1057.74 L 286.57,1062.32 L 293.39,1066.80 L 300.26,1071.17 L 307.20,1075.45 L 314.20,1079.62 L 321.27,1083.69 L 328.38,1087.66 L 335.56,1091.52 L 342.79,1095.28 L 350.07,1098.93 L 357.41,1102.47 L 364.79,1105.90 L 372.23,1109.23 L 379.71,1112.45 L 387.23,1115.56 L 394.80,1118.55 L 402.42,1121.44 L 410.07,1124.21 L 417.76,1126.87 L 425.49,1129.42 L 433.25,1131.86 L 441.05,1134.18 L 448.88,1136.39 L 456.74,1138.48 L 464.63,1140.46 L 472.55,1142.32 L 480.49,1144.06 L 488.46,1145.69 L 496.45,1147.20 L 504.46,1148.60 L 512.48,1149.88 L 520.53,1151.04 L 528.59,1152.08 L 536.66,1153.01 L 544.75,1153.82 L 552.84,1154.51 L 560.94,1155.08 L 569.05,1155.53 L 577.17,1155.86 L 585.29,1156.08 L 593.41,1156.18 L 601.53,1156.16 L 609.64,1156.02 L 617.76,1155.76 L 625.86,1155.38 L 633.97,1154.89 L 642.06,1154.27 L 650.14,1153.54 L 658.21,1152.69 L 666.26,1151.73 L 674.30,1150.64 L 682.32,1149.44 L 690.32,1148.12 L 698.31,1146.69 L 706.26,1145.14 L 714.20,1143.47 L 722.11,1141.69 L 729.99,1139.79 L 737.84,1137.78 L 745.66,1135.66 L 753.45,1133.42 L 761.20,1131.07 L 768.92,1128.60 L 776.60,1126.02 L 784.24,1123.33 L 791.84,1120.53 L 799.39,1117.62 L 806.91,1114.60 L 814.37,1111.47 L 821.79,1108.24 L 829.17,1104.89 L 836.49,1101.44 L 843.76,1097.88 L 850.97,1094.22 L 858.13,1090.45 L 865.23,1086.58 L 872.28,1082.61 L 879.27,1078.53 L 886.19,1074.35 L 893.06,1070.07 L 899.85,1065.70 L 906.59,1061.22 L 913.26,1056.65 L 919.85,1051.98 L 926.38,1047.22 L 932.84,1042.36 L 939.23,1037.41 L 945.54,1032.36 L 951.78,1027.23 L 957.94,1022.00 L 964.02,1016.69 L 970.03,1011.29 L 975.95,1005.80 L 981.80,1000.22 L 987.56,994.57 L 993.23,988.83 L 998.82,983.00 L 1004.33,977.10 L 1009.75,971.12 L 1015.08,965.06 L 1020.32,958.93 L 1025.47,952.71 L 1030.53,946.43 L 1035.49,940.07 L 1040.36,933.64 L 1045.14,927.15 L 1049.82,920.58 L 1054.40,913.95 L 1058.89,907.25 L 1063.28,900.48 L 1067.56,893.66 L 1071.75,886.77 L 1075.84,879.82 L 1079.82,872.82 L 1083.70,865.76 L 1087.48,858.64 L 1091.15,851.47 L 1094.71,844.25 L 1098.17,836.98 L 1101.53,829.66 L 1104.77,822.29 L 1107.91,814.87 L 1110.94,807.41 L 1113.86,799.91 L 1116.67,792.37 L 1119.36,784.79 L 1121.95,777.17 L 1124.43,769.51 L 1126.79,761.82 L 1129.04,754.10 L 1131.18,746.34 L 1133.20,738.56 L 1135.11,730.75 L 1136.90,722.91 L 1138.58,715.05 L 1140.15,707.16 L 1141.60,699.25 L 1142.93,691.33 L 1144.15,683.38 L 1145.25,675.42 L 1146.23,667.45 L 1147.10,659.46 L 1147.85,651.46 L 1148.49,643.46 L 1149.01,635.44 L 1149.41,627.42 L 1149.69,619.40 L 1149.86,611.37 L 1149.91,603.34 L 1149.84,595.31 L 1149.65,587.29 L 1149.35,579.27 L 1148.93,571.25 L 1148.39,563.25 L 1147.74,555.25 L 1146.97,547.27 L 1146.09,539.29 L 1145.08,531.34 L 1143.97,523.40 L 1142.73,515.47 L 1141.38,507.57 L 1139.92,499.69 L 1138.34,491.83 L 1136.65,483.99 L 1134.84,476.18 L 1132.92,468.40 L 1130.88,460.65 L 1128.74,452.93 L 1126.48,445.25 L 1124.11,437.60 L 1121.62,429.98 L 1119.03,422.40 L 1116.33,414.87 L 1113.52,407.37 L 1110.60,399.92 L 1107.57,392.51 L 1104.43,385.14 L 1101.19,377.82 L 1097.84,370.56 L 1094.38,363.34 L 1090.82,356.17 L 1087.16,349.06 L 1083.39,342.00 L 1079.52,335.00 L 1075.55,328.06 L 1071.48,321.18 L 1067.31,314.36 L 1063.05,307.60 L 1058.68,300.90 L 1054.22,294.27 L 1049.66,287.70 L 1045.00,281.21 L 1040.25,274.78 L 1035.41,268.42 L 1030.48,262.14 L 1025.46,255.93 L 1020.35,249.79 L 1015.14,243.73 L 1009.86,237.75 L 1004.48,231.84 L 999.02,226.02 L 993.48,220.27 L 987.85,214.61 L 982.14,209.03 L 976.36,203.54 L 970.49,198.13 L 964.54,192.81 L 958.52,187.57 L 952.43,182.43 L 946.26,177.37 L 940.01,172.41 L 933.70,167.54 L 927.32,162.76 L 920.87,158.07 L 914.35,153.49 L 907.76,148.99 L 901.11,144.60 L 894.40,140.30 L 887.63,136.10 L 880.80,132.00 L 873.91,128.00 L 866.96,124.11 L 859.96,120.31 L 852.90,116.62 L 845.79,113.03 L 838.63,109.55 L 831.42,106.17 L 824.16,102.90 L 816.86,99.73 L 809.51,96.67 L 802.12,93.72 L 794.69,90.88 L 787.21,88.15 L 779.70,85.52 L 772.16,83.01 L 764.57,80.61 L 756.96,78.32 L 749.31,76.14 L 741.63,74.07 L 733.92,72.12 L 726.19,70.27 L 718.43,68.54 L 710.65,66.93 L 702.85,65.43 L 695.02,64.04 L 687.18,62.77 L 679.32,61.61 L 671.44,60.57 L 663.55,59.64 L 655.65,58.83 L 647.74,58.13 L 639.82,57.55 L 631.90,57.09 L 623.97,56.74 L 616.03,56.50 L 608.10,56.39 L 600.16,56.38 L 592.22,56.50 L 584.29,56.73 L 576.37,57.07 L 568.45,57.53 L 560.54,58.11 L 552.64,58.80 L 544.75,59.61 L 536.87,60.53 L 529.01,61.57 L 521.17,62.72 L 513.34,63.98 L 505.54,65.36 L 497.75,66.86 L 489.99,68.46 L 482.26,70.18 L 474.55,72.02 L 466.87,73.96 L 459.22,76.02 L 451.60,78.18 L 444.02,80.46 L 436.47,82.85 L 428.96,85.35 L 421.48,87.95 L 414.05,90.67 L 406.65,93.49 L 399.30,96.42 L 391.99,99.46 L 384.73,102.60 L 377.52,105.85 L 370.35,109.20 L 363.24,112.66 L 356.18,116.22 L 349.17,119.88 L 342.21,123.65 L 335.32,127.51 L 328.48,131.48 L 321.70,135.54 L 314.98,139.70 L 308.32,143.96 L 301.72,148.31 L 295.20,152.77 L 288.73,157.31 L 282.34,161.95 L 276.01,166.68 L 269.76,171.50 L 263.57,176.41 L 257.46,181.41 L 251.43,186.50 L 245.47,191.68 L 239.58,196.94 L 233.78,202.29 L 228.05,207.72 L 222.41,213.23 L 216.84,218.83 L 211.36,224.50 L 205.96,230.25 L 200.65,236.08 L 195.42,241.99 L 190.29,247.97 L 185.24,254.03 L 180.27,260.16 L 175.40,266.36 L 170.63,272.62 L 165.94,278.96 L 161.35,285.37 L 156.85,291.84 L 152.45,298.37 L 148.14,304.97 L 143.93,311.63 L 139.82,318.35 L 135.81,325.12 L 131.89,331.96 L 128.08,338.85 L 124.37,345.79 L 120.76,352.79 L 117.26,359.84 L 113.86,366.93 L 110.56,374.08 L 107.37,381.27 L 104.28,388.51 L 101.30,395.79 L 98.43,403.11 L 95.66,410.48 L 93.00,417.88 L 90.45,425.32 L 88.01,432.79 L 85.68,440.30 L 83.46,447.84 L 81.35,455.41 L 79.35,463.01 L 77.47,470.64 L 75.69,478.30 L 74.03,485.98 L 72.47,493.68 L 71.04,501.40 L 69.71,509.14 L 68.50,516.90 L 67.40,524.68 L 66.41,532.47 L 65.54,540.27 L 64.79,548.08 L 64.14,555.91 L 63.62,563.74 L 63.20,571.57 L 62.90,579.42 L 62.72,587.26 L 62.65,595.10 L 62.69,602.95 L 62.85,610.79 L 63.12,618.63 L 63.51,626.46 L 64.01,634.29 L 64.63,642.10 L 65.36,649.91 L 66.20,657.70 L 67.16,665.48 L 68.23,673.24 L 69.41,680.99 L 70.71,688.71 L 72.12,696.42 L 73.64,704.10 L 75.27,711.76 L 77.01,719.40 L 78.87,727.01 L 80.84,734.59 L 82.91,742.13 L 85.10,749.65 L 87.39,757.13 L 89.80,764.58 L 92.31,771.99 L 94.93,779.37 L 97.66,786.70 L 100.49,793.99 L 103.43,801.24 L 106.47,808.45 L 109.62,815.60 L 112.87,822.72 L 116.23,829.78 L 119.69,836.79 L 123.25,843.75 L 126.91,850.65 L 130.67,857.51 L 134.53,864.30 L 138.49,871.04 L 142.54,877.72 L 146.69,884.33 L 150.94,890.89 L 155.28,897.38 L 159.72,903.81 L 164.25,910.17 L 168.87,916.46 L 173.58,922.68 L 178.38,928.84 L 183.27,934.92 L 188.25,940.93 L 193.32,946.87 L 198.47,952.73 L 203.70,958.51 L 209.02,964.22 L 214.42,969.85 L 219.90,975.40 L 225.46,980.86 L 231.10,986.25 L 236.82,991.55 L 242.62,996.77 L 248.48,1001.90 L 254.43,1006.94 L 260.44,1011.90 L 266.52,1016.76 L 272.68,1021.54 L 278.90,1026.23 L 285.19,1030.82 L 291.55,1035.32 L 297.97,1039.73 L 304.45,1044.05 L 311.00,1048.26 L 317.60,1052.39 L 324.27,1056.41 L 330.99,1060.34 L 337.77,1064.16 L 344.60,1067.89 L 351.48,1071.52 L 358.42,1075.04 L 365.40,1078.47 L 372.44,1081.79 L 379.52,1085.00 L 386.65,1088.12 L 393.82,1091.13 L 401.03,1094.03 L 408.28,1096.83 L 415.58,1099.52 L 422.91,1102.10 L 430.27,1104.58 L 437.67,1106.95 L 445.11,1109.21 L 452.57,1111.36 L 460.07,1113.40 L 467.59,1115.33 L 475.14,1117.15 L 482.72,1118.86 L 490.32,1120.46 L 497.94,1121.95 L 505.58,1123.33 L 513.24,1124.59 L 520.91,1125.74 L 528.60,1126.78 L 536.31,1127.71 L 544.02,1128.53 L 551.75,1129.23 L 559.49,1129.82 L 567.23,1130.30 L 574.97,1130.66 L 582.73,1130.91 L 590.48,1131.05 L 598.23,1131.07 L 605.98,1130.98 L 613.73,1130.78 L 621.48,1130.47 L 629.21,1130.04 L 636.94,1129.50 L 644.66,1128.84 L 652.37,1128.08 L 660.07,1127.20 L 667.75,1126.21 L 675.42,1125.10 L 683.07,1123.89 L 690.69,1122.56 L 698.30,1121.13 L 705.89,1119.58 L 713.45,1117.92 L 720.98,1116.15 L 728.49,1114.27 L 735.97,1112.29 L 743.42,1110.19 L 750.83,1107.99 L 758.21,1105.68 L 765.56,1103.26 L 772.87,1100.73 L 780.14,1098.10 L 787.37,1095.36 L 794.56,1092.52 L 801.71,1089.58 L 808.81,1086.53 L 815.87,1083.37 L 822.87,1080.12 L 829.83,1076.76 L 836.74,1073.30 L 843.60,1069.74 L 850.40,1066.09 L 857.15,1062.33 L 863.84,1058.48 L 870.48,1054.53 L 877.05,1050.48 L 883.57,1046.34 L 890.02,1042.10 L 896.41,1037.77 L 902.74,1033.35 L 909.00,1028.84 L 915.19,1024.24 L 921.31,1019.54 L 927.37,1014.76 L 933.35,1009.89 L 939.26,1004.94 L 945.10,999.90 L 950.86,994.78 L 956.55,989.57 L 962.15,984.28 L 967.68,978.91 L 973.14,973.46 L 978.51,967.94 L 983.79,962.33 L 989.00,956.65 L 994.12,950.90 L 999.16,945.07 L 1004.11,939.17 L 1008.97,933.19 L 1013.74,927.15 L 1018.43,921.04 L 1023.02,914.87 L 1027.53,908.62 L 1031.94,902.32 L 1036.26,895.95 L 1040.48,889.51 L 1044.61,883.02 L 1048.65,876.47 L 1052.58,869.86 L 1056.43,863.20 L 1060.17,856.48 L 1063.81,849.71 L 1067.35,842.88 L 1070.80,836.01 L 1074.14,829.09 L 1077.38,822.12 L 1080.52,815.10 L 1083.55,808.04 L 1086.49,800.94 L 1089.31,793.79 L 1092.04,786.61 L 1094.65,779.39 L 1097.16,772.13 L 1099.57,764.83 L 1101.86,757.51 L 1104.05,750.15 L 1106.14,742.76 L 1108.11,735.34 L 1109.97,727.89 L 1111.73,720.42 L 1113.38,712.93 L 1114.91,705.41 L 1116.34,697.87 L 1117.66,690.31 L 1118.86,682.74 L 1119.96,675.15 L 1120.94,667.54 L 1121.81,659.92 L 1122.57,652.29 L 1123.22,644.65 L 1123.76,637.01 L 1124.19,629.35 L 1124.50,621.70 L 1124.70,614.04 L 1124.79,606.38 L 1124.77,598.71 L 1124.64,591.05 L 1124.40,583.40 L 1124.04,575.75 L 1123.57,568.11 L 1122.99,560.47 L 1122.30,552.85 L 1121.50,545.23 L 1120.59,537.63 L 1119.56,530.05 L 1118.43,522.48 L 1117.18,514.93 L 1115.83,507.40 L 1114.37,499.89 L 1112.79,492.41 L 1111.11,484.94 L 1109.32,477.51 L 1107.42,470.10 L 1105.41,462.72 L 1103.30,455.38 L 1101.08,448.06 L 1098.75,440.78 L 1096.32,433.54 L 1093.78,426.33 L 1091.14,419.16 L 1088.39,412.03 L 1085.54,404.94 L 1082.59,397.90 L 1079.54,390.90 L 1076.38,383.95 L 1073.12,377.04 L 1069.76,370.18 L 1066.31,363.38 L 1062.75,356.62 L 1059.10,349.92 L 1055.35,343.27 L 1051.50,336.68 L 1047.56,330.15 L 1043.52,323.68 L 1039.39,317.26 L 1035.17,310.91 L 1030.86,304.62 L 1026.45,298.40 L 1021.96,292.24 L 1017.37,286.15 L 1012.70,280.13 L 1007.94,274.17 L 1003.10,268.29 L 998.17,262.48 L 993.15,256.74 L 988.06,251.08 L 982.88,245.49 L 977.62,239.98 L 972.28,234.54 L 966.87,229.19 L 961.38,223.92 L 955.81,218.72 L 950.17,213.61 L 944.45,208.59 L 938.66,203.65 L 932.80,198.79 L 926.87,194.02 L 920.88,189.34 L 914.81,184.74 L 908.68,180.24 L 902.49,175.83 L 896.23,171.50 L 889.91,167.27 L 883.53,163.14 L 877.10,159.09 L 870.60,155.15 L 864.05,151.29 L 857.44,147.54 L 850.78,143.88 L 844.07,140.32 L 837.30,136.86 L 830.49,133.49 L 823.63,130.23 L 816.73,127.07 L 809.78,124.01 L 802.78,121.05 L 795.75,118.20 L 788.67,115.45 L 781.56,112.80 L 774.41,110.25 L 767.22,107.82 L 760.00,105.48 L 752.75,103.26 L 745.47,101.13 L 738.15,99.12 L 730.81,97.21 L 723.45,95.41 L 716.05,93.72 L 708.64,92.14 L 701.20,90.67 L 693.75,89.30 L 686.27,88.04 L 678.78,86.90 L 671.27,85.86 L 663.75,84.93 L 656.22,84.11 L 648.68,83.41 L 641.13,82.81 L 633.57,82.32 L 626.01,81.94 L 618.44,81.68 L 610.87,81.52 L 603.30,81.48 L 595.73,81.54 L 588.17,81.72 L 580.60,82.00 L 573.05,82.40 L 565.50,82.91 L 557.96,83.52 L 550.43,84.25 L 542.91,85.09 L 535.41,86.03 L 527.92,87.09 L 520.45,88.25 L 513.00,89.53 L 505.57,90.91 L 498.16,92.40 L 490.77,94.00 L 483.41,95.70 L 476.08,97.51 L 468.77,99.43 L 461.49,101.46 L 454.24,103.59 L 447.03,105.83 L 439.85,108.17 L 432.71,110.61 L 425.60,113.16 L 418.53,115.81 L 411.51,118.57 L 404.52,121.42 L 397.58,124.38 L 390.68,127.44 L 383.83,130.60 L 377.03,133.86 L 370.27,137.22 L 363.57,140.67 L 356.92,144.22 L 350.32,147.87 L 343.77,151.61 L 337.28,155.45 L 330.85,159.38 L 324.48,163.41 L 318.17,167.53 L 311.92,171.73 L 305.73,176.03 L 299.61,180.42 L 293.55,184.90 L 287.56,189.46 L 281.63,194.11 L 275.78,198.85 L 270.00,203.67 L 264.28,208.57 L 258.64,213.56 L 253.08,218.63 L 247.59,223.77 L 242.17,229.00 L 236.84,234.30 L 231.58,239.69 L 226.40,245.14 L 221.30,250.67 L 216.29,256.28 L 211.36,261.95 L 206.51,267.70 L 201.74,273.52 L 197.07,279.40 L 192.48,285.35 L 187.97,291.37 L 183.56,297.45 L 179.23,303.60 L 175.00,309.80 L 170.86,316.07 L 166.81,322.40 L 162.85,328.78 L 158.99,335.22 L 155.22,341.71 L 151.55,348.26 L 147.97,354.86 L 144.50,361.52 L 141.12,368.22 L 137.83,374.97 L 134.65,381.76 L 131.57,388.60 L 128.58,395.48 L 125.70,402.41 L 122.92,409.38 L 120.25,416.38 L 117.67,423.42 L 115.20,430.50 L 112.83,437.62 L 110.57,444.76 L 108.41,451.94 L 106.36,459.15 L 104.41,466.38 L 102.57,473.65 L 100.84,480.94 L 99.21,488.25 L 97.69,495.58 L 96.27,502.94 L 94.97,510.31 L 93.77,517.70 L 92.68,525.11 L 91.70,532.53 L 90.83,539.96 L 90.06,547.41 L 89.41,554.86 L 88.86,562.32 L 88.42,569.79 L 88.10,577.27 L 87.88,584.74 L 87.77,592.22 L 87.77,599.70 L 87.88,607.18 L 88.09,614.65 L 88.42,622.12 L 88.86,629.58 L 89.40,637.03 L 90.05,644.48 L 90.81,651.91 L 91.68,659.33 L 92.66,666.74 L 93.75,674.13 L 94.94,681.50 L 96.24,688.85 L 97.65,696.19 L 99.17,703.50 L 100.79,710.79 L 102.51,718.05 L 104.35,725.28 L 106.28,732.49 L 108.33,739.67 L 110.47,746.81 L 112.73,753.93 L 115.08,761.00 L 117.54,768.05 L 120.10,775.05 L 122.76,782.02 L 125.52,788.94 L 128.38,795.83 L 131.34,802.67 L 134.41,809.46 L 137.57,816.21 L 140.82,822.91 L 144.18,829.57 L 147.63,836.17 L 151.18,842.72 L 154.82,849.22 L 158.55,855.66 L 162.38,862.05 L 166.30,868.37 L 170.32,874.65 L 174.42,880.86 L 178.61,887.01 L 182.90,893.09 L 187.27,899.12 L 191.72,905.07 L 196.27,910.97 L 200.89,916.79 L 205.61,922.55 L 210.40,928.23 L 215.28,933.84 L 220.24,939.39 L 225.27,944.85 L 230.39,950.25 L 235.58,955.56 L 240.85,960.80 L 246.20,965.97 L 251.62,971.05 L 257.11,976.05 L 262.68,980.97 L 268.31,985.81 L 274.02,990.57 L 279.79,995.24 L 285.63,999.83 L 291.53,1004.33 L 297.50,1008.74 L 303.54,1013.06 L 309.63,1017.30 L 315.79,1021.45 L 322.00,1025.50 L 328.27,1029.46 L 334.60,1033.34 L 340.98,1037.11 L 347.42,1040.80 L 353.91,1044.39 L 360.45,1047.88 L 367.04,1051.28 L 373.68,1054.58 L 380.37,1057.78 L 387.10,1060.88 L 393.87,1063.89 L 400.69,1066.80 L 407.54,1069.60 L 414.44,1072.31 L 421.38,1074.91 L 428.35,1077.41 L 435.35,1079.81 L 442.39,1082.11 L 449.46,1084.30 L 456.57,1086.39 L 463.70,1088.38 L 470.86,1090.26 L 478.04,1092.04 L 485.25,1093.71 L 492.48,1095.27 L 499.73,1096.73 L 507.01,1098.08 L 514.30,1099.33 L 521.60,1100.47 L 528.93,1101.51 L 536.26,1102.43 L 543.61,1103.25 L 550.97,1103.96 L 558.33,1104.57 L 565.71,1105.06 L 573.09,1105.45 L 580.47,1105.73 L 587.86,1105.90 L 595.24,1105.97 L 602.63,1105.93 L 610.01,1105.78 L 617.39,1105.52 L 624.77,1105.15 L 632.13,1104.68 L 639.49,1104.10 L 646.84,1103.41 L 654.18,1102.61 L 661.50,1101.71 L 668.81,1100.70 L 676.10,1099.59 L 683.38,1098.36 L 690.64,1097.04 L 697.87,1095.60 L 705.08,1094.07 L 712.27,1092.42 L 719.43,1090.67 L 726.57,1088.82 L 733.67,1086.87 L 740.75,1084.81 L 747.80,1082.64 L 754.81,1080.38 L 761.78,1078.01 L 768.73,1075.55 L 775.63,1072.98 L 782.49,1070.31 L 789.32,1067.54 L 796.10,1064.67 L 802.84,1061.71 L 809.53,1058.65 L 816.18,1055.49 L 822.78,1052.23 L 829.33,1048.88 L 835.83,1045.43 L 842.28,1041.89 L 848.68,1038.25 L 855.02,1034.53 L 861.30,1030.71 L 867.53,1026.80 L 873.70,1022.80 L 879.81,1018.71 L 885.86,1014.53 L 891.85,1010.27 L 897.77,1005.92 L 903.63,1001.48 L 909.42,996.96 L 915.15,992.36 L 920.80,987.67 L 926.39,982.90 L 931.91,978.05 L 937.35,973.12 L 942.72,968.12 L 948.02,963.03 L 953.24,957.87 L 958.38,952.64 L 963.45,947.33 L 968.44,941.94 L 973.35,936.49 L 978.18,930.97 L 982.92,925.37 L 987.59,919.71 L 992.17,913.98 L 996.66,908.19 L 1001.07,902.33 L 1005.40,896.41 L 1009.63,890.43 L 1013.78,884.38 L 1017.84,878.28 L 1021.81,872.12 L 1025.69,865.90 L 1029.47,859.63 L 1033.17,853.30 L 1036.77,846.93 L 1040.27,840.50 L 1043.68,834.02 L 1047.00,827.49 L 1050.22,820.91 L 1053.35,814.29 L 1056.37,807.63 L 1059.30,800.92 L 1062.13,794.17 L 1064.86,787.38 L 1067.49,780.56 L 1070.03,773.69 L 1072.46,766.79 L 1074.78,759.86 L 1077.01,752.89 L 1079.14,745.90 L 1081.16,738.87 L 1083.08,731.82 L 1084.90,724.74 L 1086.61,717.63 L 1088.22,710.50 L 1089.72,703.35 L 1091.12,696.18 L 1092.41,688.99 L 1093.60,681.79 L 1094.69,674.56 L 1095.67,667.33 L 1096.54,660.08 L 1097.30,652.82 L 1097.96,645.55 L 1098.52,638.27 L 1098.96,630.98 L 1099.30,623.69 L 1099.54,616.40 L 1099.67,609.11 L 1099.69,601.81 L 1099.60,594.52 L 1099.41,587.23 L 1099.11,579.94 L 1098.71,572.66 L 1098.20,565.39 L 1097.58,558.12 L 1096.86,550.87 L 1096.03,543.63 L 1095.10,536.40 L 1094.06,529.19 L 1092.92,521.99 L 1091.67,514.82 L 1090.31,507.66 L 1088.86,500.52 L 1087.30,493.41 L 1085.63,486.32 L 1083.86,479.26 L 1081.99,472.22 L 1080.02,465.22 L 1077.95,458.24 L 1075.77,451.30 L 1073.49,444.39 L 1071.12,437.51 L 1068.64,430.67 L 1066.06,423.87 L 1063.39,417.10 L 1060.61,410.38 L 1057.74,403.70 L 1054.78,397.06 L 1051.71,390.47 L 1048.55,383.93 L 1045.30,377.43 L 1041.95,370.98 L 1038.51,364.58 L 1034.97,358.23 L 1031.35,351.94 L 1027.63,345.70 L 1023.82,339.51 L 1019.93,333.38 L 1015.94,327.31 L 1011.87,321.30 L 1007.71,315.35 L 1003.46,309.47 L 999.13,303.64 L 994.72,297.88 L 990.22,292.19 L 985.64,286.56 L 980.98,281.01 L 976.24,275.52 L 971.42,270.10 L 966.52,264.75 L 961.54,259.48 L 956.49,254.28 L 951.37,249.15 L 946.17,244.10 L 940.89,239.13 L 935.55,234.23 L 930.14,229.42 L 924.65,224.68 L 919.10,220.03 L 913.48,215.45 L 907.80,210.96 L 902.05,206.56 L 896.24,202.24 L 890.37,198.00 L 884.44,193.86 L 878.45,189.80 L 872.40,185.82 L 866.29,181.94 L 860.13,178.15 L 853.92,174.45 L 847.65,170.83 L 841.33,167.32 L 834.96,163.89 L 828.54,160.56 L 822.07,157.32 L 815.56,154.18 L 809.01,151.13 L 802.41,148.18 L 795.77,145.33 L 789.09,142.58 L 782.37,139.92 L 775.61,137.36 L 768.82,134.90 L 762.00,132.54 L 755.14,130.28 L 748.25,128.12 L 741.33,126.06 L 734.38,124.11 L 727.40,122.25 L 720.40,120.50 L 713.37,118.85 L 706.33,117.30 L 699.26,115.86 L 692.17,114.52 L 685.06,113.29 L 677.94,112.15 L 670.80,111.13 L 663.65,110.20 L 656.49,109.38 L 649.31,108.67 L 642.13,108.06 L 634.94,107.55 L 627.74,107.16 L 620.54,106.86 L 613.34,106.67 L 606.14,106.59 L 598.94,106.61 L 591.73,106.74 L 584.54,106.97 L 577.34,107.30 L 570.16,107.75 L 562.98,108.29 L 555.81,108.94 L 548.65,109.70 L 541.51,110.56 L 534.38,111.52 L 527.26,112.59 L 520.17,113.76 L 513.09,115.03 L 506.03,116.41 L 498.99,117.89 L 491.98,119.48 L 484.99,121.16 L 478.02,122.95 L 471.09,124.83 L 464.18,126.82 L 457.31,128.91 L 450.46,131.10 L 443.65,133.39 L 436.88,135.78 L 430.14,138.26 L 423.44,140.84 L 416.78,143.52 L 410.15,146.30 L 403.58,149.17 L 397.04,152.14 L 390.55,155.21 L 384.10,158.36 L 377.71,161.61 L 371.36,164.96 L 365.06,168.39 L 358.81,171.92 L 352.62,175.54 L 346.48,179.24 L 340.39,183.04 L 334.37,186.92 L 328.40,190.89 L 322.49,194.95 L 316.64,199.09 L 310.85,203.31 L 305.13,207.62 L 299.47,212.02 L 293.87,216.49 L 288.34,221.05 L 282.88,225.68 L 277.49,230.39 L 272.17,235.18 L 266.92,240.05 L 261.74,244.99 L 256.63,250.01 L 251.60,255.10 L 246.65,260.26 L 241.77,265.50 L 236.97,270.80 L 232.24,276.17 L 227.60,281.62 L 223.04,287.12 L 218.55,292.70 L 214.16,298.33 L 209.84,304.03 L 205.61,309.79 L 201.46,315.62 L 197.40,321.50 L 193.43,327.44 L 189.54,333.43 L 185.74,339.48 L 182.03,345.59 L 178.41,351.75 L 174.89,357.96 L 171.45,364.21 L 168.10,370.52 L 164.85,376.88 L 161.69,383.28 L 158.63,389.73 L 155.66,396.22 L 152.79,402.75 L 150.01,409.32 L 147.33,415.93 L 144.74,422.58 L 142.26,429.26 L 139.87,435.98 L 137.58,442.74 L 135.39,449.52 L 133.29,456.34 L 131.30,463.18 L 129.41,470.05 L 127.62,476.95 L 125.93,483.87 L 124.34,490.82 L 122.86,497.79 L 121.47,504.77 L 120.19,511.78 L 119.01,518.80 L 117.94,525.84 L 116.96,532.89 L 116.09,539.96 L 115.33,547.04 L 114.66,554.12 L 114.10,561.22 L 113.65,568.32 L 113.30,575.42 L 113.05,582.53 L 112.90,589.64 L 112.86,596.76 L 112.92,603.87 L 113.09,610.97 L 113.36,618.08 L 113.73,625.18 L 114.21,632.27 L 114.79,639.35 L 115.48,646.43 L 116.26,653.49 L 117.15,660.54 L 118.15,667.57 L 119.24,674.59 L 120.44,681.59 L 121.74,688.57 L 123.14,695.53 L 124.64,702.47 L 126.25,709.38 L 127.95,716.27 L 129.75,723.14 L 131.66,729.97 L 133.66,736.78 L 135.76,743.55 L 137.96,750.30 L 140.26,757.01 L 142.66,763.68 L 145.15,770.32 L 147.74,776.92 L 150.42,783.48 L 153.20,790.00 L 156.08,796.48 L 159.05,802.91 L 162.11,809.30 L 165.26,815.65 L 168.51,821.94 L 171.85,828.19 L 175.27,834.39 L 178.79,840.53 L 182.40,846.63 L 186.09,852.67 L 189.87,858.65 L 193.74,864.58 L 197.70,870.45 L 201.73,876.26 L 205.86,882.01 L 210.06,887.70 L 214.35,893.32 L 218.72,898.89 L 223.17,904.38 L 227.70,909.81 L 232.30,915.18 L 236.99,920.47 L 241.75,925.70 L 246.58,930.85 L 251.49,935.94 L 256.47,940.95 L 261.53,945.88 L 266.65,950.75 L 271.85,955.53 L 277.11,960.24 L 282.44,964.87 L 287.84,969.42 L 293.30,973.90 L 298.83,978.29 L 304.42,982.60 L 310.07,986.82 L 315.78,990.97 L 321.55,995.03 L 327.38,999.00 L 333.27,1002.89 L 339.21,1006.69 L 345.20,1010.41 L 351.25,1014.03 L 357.35,1017.57 L 363.50,1021.01 L 369.70,1024.37 L 375.95,1027.64 L 382.24,1030.81 L 388.58,1033.89 L 394.96,1036.88 L 401.38,1039.77 L 407.85,1042.57 L 414.35,1045.27 L 420.89,1047.88 L 427.47,1050.39 L 434.08,1052.81 L 440.73,1055.13 L 447.41,1057.35 L 454.12,1059.47 L 460.86,1061.50 L 467.62,1063.42 L 474.42,1065.25 L 481.24,1066.98 L 488.08,1068.60 L 494.94,1070.13 L 501.83,1071.56 L 508.74,1072.88 L 515.66,1074.11 L 522.60,1075.23 L 529.55,1076.25 L 536.52,1077.17 L 543.50,1077.99 L 550.49,1078.70 L 557.49,1079.32 L 564.49,1079.83 L 571.50,1080.24 L 578.52,1080.55 L 585.54,1080.75 L 592.56,1080.85 L 599.58,1080.85 L 606.60,1080.75 L 613.61,1080.54 L 620.62,1080.23 L 627.63,1079.82 L 634.62,1079.31 L 641.61,1078.69 L 648.59,1077.98 L 655.55,1077.16 L 662.51,1076.24 L 669.44,1075.22 L 676.36,1074.10 L 683.26,1072.88 L 690.15,1071.55 L 697.01,1070.13 L 703.85,1068.61 L 710.67,1066.98 L 717.46,1065.26 L 724.22,1063.44 L 730.96,1061.52 L 737.66,1059.51 L 744.34,1057.39 L 750.98,1055.18 L 757.59,1052.87 L 764.16,1050.47 L 770.70,1047.97 L 777.20,1045.38 L 783.66,1042.69 L 790.08,1039.91 L 796.46,1037.03 L 802.79,1034.06 L 809.08,1031.01 L 815.32,1027.86 L 821.52,1024.62 L 827.67,1021.29 L 833.76,1017.87 L 839.81,1014.36 L 845.80,1010.76 L 851.74,1007.08 L 857.63,1003.32 L 863.45,999.46 L 869.22,995.53 L 874.93,991.51 L 880.59,987.40 L 886.18,983.22 L 891.70,978.96 L 897.17,974.61 L 902.57,970.19 L 907.90,965.69 L 913.17,961.11 L 918.37,956.46 L 923.50,951.73 L 928.56,946.93 L 933.55,942.05 L 938.46,937.11 L 943.31,932.09 L 948.07,927.00 L 952.77,921.85 L 957.38,916.62 L 961.92,911.33 L 966.39,905.98 L 970.77,900.56 L 975.07,895.08 L 979.29,889.54 L 983.43,883.94 L 987.49,878.28 L 991.46,872.56 L 995.35,866.78 L 999.15,860.95 L 1002.87,855.07 L 1006.50,849.13 L 1010.04,843.14 L 1013.50,837.10 L 1016.86,831.01 L 1020.14,824.87 L 1023.33,818.69 L 1026.42,812.46 L 1029.42,806.18 L 1032.34,799.87 L 1035.15,793.51 L 1037.88,787.12 L 1040.51,780.68 L 1043.05,774.21 L 1045.49,767.71 L 1047.83,761.17 L 1050.08,754.59 L 1052.24,747.99 L 1054.29,741.35 L 1056.25,734.69 L 1058.11,728.00 L 1059.88,721.28 L 1061.54,714.54 L 1063.11,707.78 L 1064.57,701.00 L 1065.94,694.19 L 1067.21,687.37 L 1068.38,680.53 L 1069.45,673.68 L 1070.41,666.81 L 1071.28,659.93 L 1072.05,653.04 L 1072.71,646.13 L 1073.28,639.22 L 1073.74,632.31 L 1074.10,625.38 L 1074.37,618.46 L 1074.53,611.53 L 1074.59,604.60 L 1074.54,597.67 L 1074.40,590.75 L 1074.16,583.83 L 1073.81,576.91 L 1073.37,570.00 L 1072.82,563.10 L 1072.17,556.20 L 1071.43,549.32 L 1070.58,542.45 L 1069.63,535.60 L 1068.58,528.76 L 1067.43,521.94 L 1066.19,515.13 L 1064.84,508.35 L 1063.40,501.58 L 1061.85,494.84 L 1060.21,488.13 L 1058.48,481.43 L 1056.64,474.77 L 1054.71,468.13 L 1052.68,461.53 L 1050.55,454.95 L 1048.33,448.41 L 1046.02,441.90 L 1043.61,435.43 L 1041.10,428.99 L 1038.50,422.59 L 1035.81,416.23 L 1033.03,409.91 L 1030.16,403.64 L 1027.19,397.40 L 1024.14,391.21 L 1020.99,385.07 L 1017.76,378.98 L 1014.44,372.93 L 1011.03,366.93 L 1007.53,360.99 L 1003.95,355.09 L 1000.28,349.25 L 996.53,343.47 L 992.69,337.74 L 988.78,332.07 L 984.78,326.46 L 980.69,320.90 L 976.53,315.41 L 972.29,309.98 L 967.97,304.61 L 963.58,299.31 L 959.11,294.07 L 954.56,288.90 L 949.94,283.80 L 945.24,278.76 L 940.47,273.80 L 935.63,268.91 L 930.72,264.08 L 925.74,259.33 L 920.70,254.66 L 915.58,250.06 L 910.40,245.53 L 905.16,241.08 L 899.85,236.71 L 894.48,232.42 L 889.04,228.20 L 883.55,224.07 L 878.00,220.02 L 872.39,216.05 L 866.72,212.16 L 861.00,208.36 L 855.22,204.64 L 849.39,201.01 L 843.51,197.46 L 837.58,194.00 L 831.60,190.62 L 825.57,187.34 L 819.50,184.14 L 813.38,181.03 L 807.21,178.01 L 801.00,175.09 L 794.76,172.25 L 788.47,169.51 L 782.14,166.85 L 775.78,164.30 L 769.38,161.83 L 762.94,159.46 L 756.48,157.18 L 749.98,155.00 L 743.45,152.92 L 736.89,150.92 L 730.30,149.03 L 723.69,147.23 L 717.05,145.53 L 710.39,143.93 L 703.71,142.42 L 697.01,141.01 L 690.29,139.70 L 683.55,138.49 L 676.79,137.38 L 670.02,136.37 L 663.24,135.45 L 656.44,134.64 L 649.64,133.92 L 642.82,133.30 L 636.00,132.79 L 629.18,132.37 L 622.34,132.05 L 615.51,131.83 L 608.67,131.71 L 601.83,131.70 L 595.00,131.78 L 588.17,131.96 L 581.34,132.24 L 574.51,132.62 L 567.70,133.10 L 560.89,133.68 L 554.09,134.36 L 547.31,135.14 L 540.54,136.01 L 533.78,136.99 L 527.03,138.06 L 520.31,139.23 L 513.60,140.50 L 506.92,141.87 L 500.25,143.33 L 493.61,144.90 L 486.99,146.55 L 480.40,148.31 L 473.83,150.16 L 467.30,152.10 L 460.79,154.14 L 454.31,156.28 L 447.87,158.51 L 441.46,160.83 L 435.09,163.25 L 428.75,165.75 L 422.46,168.35 L 416.20,171.05 L 409.98,173.83 L 403.80,176.70 L 397.67,179.66 L 391.58,182.71 L 385.54,185.85 L 379.54,189.08 L 373.60,192.39 L 367.70,195.79 L 361.85,199.27 L 356.06,202.84 L 350.32,206.49 L 344.63,210.23 L 339.00,214.05 L 333.43,217.95 L 327.92,221.93 L 322.46,225.98 L 317.07,230.12 L 311.73,234.34 L 306.46,238.63 L 301.26,243.00 L 296.12,247.44 L 291.04,251.96 L 286.03,256.55 L 281.09,261.21 L 276.22,265.94 L 271.42,270.75 L 266.69,275.62 L 262.03,280.56 L 257.45,285.57 L 252.94,290.64 L 248.51,295.78 L 244.15,300.98 L 239.87,306.24 L 235.66,311.56 L 231.54,316.95 L 227.49,322.39 L 223.52,327.89 L 219.64,333.45 L 215.84,339.07 L 212.12,344.73 L 208.48,350.45 L 204.93,356.23 L 201.47,362.05 L 198.08,367.92 L 194.79,373.84 L 191.58,379.81 L 188.47,385.82 L 185.43,391.88 L 182.49,397.98 L 179.64,404.12 L 176.88,410.30 L 174.21,416.52 L 171.63,422.77 L 169.14,429.07 L 166.75,435.40 L 164.45,441.76 L 162.24,448.15 L 160.12,454.58 L 158.10,461.03 L 156.18,467.51 L 154.35,474.02 L 152.61,480.55 L 150.97,487.11 L 149.43,493.69 L 147.98,500.29 L 146.63,506.91 L 145.38,513.55 L 144.22,520.21 L 143.16,526.88 L 142.20,533.56 L 141.34,540.26 L 140.58,546.97 L 139.91,553.69 L 139.34,560.41 L 138.87,567.15 L 138.50,573.88 L 138.22,580.63 L 138.05,587.37 L 137.97,594.12 L 137.99,600.86 L 138.11,607.60 L 138.33,614.34 L 138.65,621.08 L 139.06,627.81 L 139.58,634.53 L 140.19,641.24 L 140.90,647.94 L 141.70,654.63 L 142.61,661.31 L 143.61,667.97 L 144.71,674.62 L 145.90,681.24 L 147.19,687.85 L 148.58,694.44 L 150.07,701.01 L 151.64,707.55 L 153.32,714.07 L 155.09,720.56 L 156.95,727.03 L 158.91,733.47 L 160.96,739.87 L 163.10,746.25 L 165.34,752.59 L 167.67,758.90 L 170.09,765.17 L 172.60,771.41 L 175.20,777.61 L 177.89,783.77 L 180.67,789.88 L 183.54,795.96 L 186.50,801.99 L 189.54,807.98 L 192.68,813.92 L 195.89,819.82 L 199.20,825.67 L 202.58,831.46 L 206.05,837.21 L 209.61,842.90 L 213.24,848.54 L 216.96,854.13 L 220.76,859.66 L 224.64,865.14 L 228.60,870.55 L 232.63,875.91 L 236.74,881.21 L 240.93,886.45 L 245.20,891.62 L 249.54,896.73 L 253.95,901.78 L 258.44,906.76 L 262.99,911.67 L 267.62,916.52 L 272.32,921.29 L 277.08,926.00 L 281.92,930.64 L 286.82,935.20 L 291.78,939.70 L 296.81,944.11 L 301.91,948.46 L 307.06,952.73 L 312.28,956.92 L 317.56,961.04 L 322.89,965.08 L 328.29,969.04 L 333.74,972.91 L 339.24,976.71 L 344.80,980.43 L 350.41,984.07 L 356.08,987.62 L 361.79,991.09 L 367.55,994.48 L 373.37,997.78 L 379.23,1000.99 L 385.13,1004.12 L 391.08,1007.16 L 397.07,1010.11 L 403.10,1012.98 L 409.18,1015.76 L 415.29,1018.45 L 421.44,1021.04 L 427.63,1023.55 L 433.85,1025.97 L 440.11,1028.29 L 446.39,1030.53 L 452.71,1032.67 L 459.06,1034.72 L 465.44,1036.67 L 471.85,1038.53 L 478.28,1040.30 L 484.73,1041.97 L 491.21,1043.55 L 497.71,1045.04 L 504.23,1046.43 L 510.77,1047.72 L 517.32,1048.92 L 523.89,1050.02 L 530.48,1051.02 L 537.08,1051.93 L 543.69,1052.75 L 550.31,1053.46 L 556.94,1054.08 L 563.58,1054.60 L 570.22,1055.03 L 576.87,1055.35 L 583.52,1055.59 L 590.18,1055.72 L 596.83,1055.76 L 603.48,1055.70 L 610.13,1055.54 L 616.78,1055.28 L 623.42,1054.93 L 630.06,1054.48 L 636.68,1053.94 L 643.30,1053.30 L 649.91,1052.56 L 656.50,1051.72 L 663.08,1050.79 L 669.64,1049.77 L 676.19,1048.64 L 682.72,1047.43 L 689.23,1046.11 L 695.72,1044.71 L 702.19,1043.20 L 708.64,1041.61 L 715.06,1039.92 L 721.45,1038.14 L 727.82,1036.26 L 734.15,1034.29 L 740.46,1032.23 L 746.74,1030.08 L 752.98,1027.84 L 759.19,1025.51 L 765.36,1023.08 L 771.50,1020.57 L 777.60,1017.97 L 783.65,1015.28 L 789.67,1012.50 L 795.65,1009.63 L 801.58,1006.68 L 807.47,1003.64 L 813.31,1000.52 L 819.11,997.31 L 824.86,994.02 L 830.55,990.65 L 836.20,987.19 L 841.80,983.65 L 847.34,980.03 L 852.83,976.33 L 858.26,972.55 L 863.64,968.70 L 868.96,964.76 L 874.22,960.75 L 879.42,956.66 L 884.56,952.50 L 889.64,948.27 L 894.65,943.96 L 899.60,939.57 L 904.49,935.12 L 909.31,930.60 L 914.06,926.01 L 918.75,921.35 L 923.36,916.62 L 927.91,911.82 L 932.38,906.96 L 936.78,902.04 L 941.11,897.05 L 945.37,892.01 L 949.55,886.90 L 953.65,881.73 L 957.68,876.50 L 961.63,871.21 L 965.51,865.87 L 969.30,860.47 L 973.01,855.02 L 976.65,849.52 L 980.20,843.96 L 983.67,838.35 L 987.06,832.70 L 990.37,826.99 L 993.59,821.24 L 996.72,815.45 L 999.77,809.61 L 1002.74,803.72 L 1005.62,797.79 L 1008.41,791.83 L 1011.11,785.82 L 1013.73,779.78 L 1016.25,773.70 L 1018.69,767.58 L 1021.04,761.43 L 1023.30,755.25 L 1025.46,749.03 L 1027.54,742.79 L 1029.52,736.51 L 1031.41,730.21 L 1033.21,723.88 L 1034.92,717.53 L 1036.53,711.16 L 1038.05,704.76 L 1039.47,698.34 L 1040.80,691.90 L 1042.04,685.45 L 1043.19,678.98 L 1044.23,672.49 L 1045.19,665.99 L 1046.04,659.47 L 1046.81,652.95 L 1047.47,646.42 L 1048.05,639.87 L 1048.52,633.32 L 1048.90,626.77 L 1049.19,620.21 L 1049.38,613.65 L 1049.47,607.09 L 1049.47,600.53 L 1049.37,593.97 L 1049.17,587.41 L 1048.88,580.86 L 1048.50,574.31 L 1048.02,567.77 L 1047.44,561.24 L 1046.77,554.72 L 1046.00,548.21 L 1045.14,541.71 L 1044.19,535.23 L 1043.13,528.76 L 1041.99,522.31 L 1040.75,515.87 L 1039.42,509.46 L 1037.99,503.07 L 1036.48,496.70 L 1034.86,490.35 L 1033.16,484.03 L 1031.37,477.74 L 1029.48,471.47 L 1027.50,465.23 L 1025.43,459.02 L 1023.28,452.85 L 1021.03,446.71 L 1018.69,440.60 L 1016.27,434.52 L 1013.75,428.49 L 1011.15,422.49 L 1008.46,416.53 L 1005.69,410.61 L 1002.83,404.73 L 999.88,398.90 L 996.85,393.11 L 993.74,387.37 L 990.54,381.67 L 987.26,376.02 L 983.90,370.43 L 980.46,364.88 L 976.94,359.38 L 973.34,353.93 L 969.66,348.54 L 965.90,343.21 L 962.06,337.93 L 958.15,332.71 L 954.17,327.54 L 950.11,322.44 L 945.97,317.39 L 941.77,312.41 L 937.49,307.49 L 933.14,302.63 L 928.72,297.84 L 924.23,293.12 L 919.67,288.46 L 915.05,283.86 L 910.36,279.34 L 905.61,274.89 L 900.79,270.50 L 895.91,266.19 L 890.97,261.95 L 885.96,257.79 L 880.90,253.69 L 875.78,249.68 L 870.60,245.73 L 865.37,241.87 L 860.08,238.08 L 854.73,234.37 L 849.34,230.74 L 843.89,227.19 L 838.39,223.72 L 832.84,220.33 L 827.24,217.02 L 821.60,213.79 L 815.91,210.65 L 810.18,207.59 L 804.40,204.62 L 798.58,201.73 L 792.72,198.92 L 786.82,196.21 L 780.88,193.58 L 774.91,191.03 L 768.89,188.58 L 762.85,186.21 L 756.77,183.93 L 750.66,181.74 L 744.52,179.64 L 738.35,177.63 L 732.15,175.71 L 725.93,173.89 L 719.68,172.15 L 713.41,170.50 L 707.11,168.95 L 700.79,167.49 L 694.46,166.12 L 688.10,164.85 L 681.73,163.66 L 675.34,162.57 L 668.94,161.58 L 662.52,160.68 L 656.10,159.87 L 649.66,159.15 L 643.21,158.54 L 636.76,158.01 L 630.30,157.58 L 623.84,157.24 L 617.37,157.00 L 610.90,156.85 L 604.43,156.80 L 597.96,156.84 L 591.49,156.97 L 585.03,157.20 L 578.57,157.53 L 572.11,157.95 L 565.67,158.46 L 559.23,159.06 L 552.81,159.76 L 546.39,160.56 L 539.99,161.44 L 533.60,162.43 L 527.23,163.50 L 520.88,164.66 L 514.54,165.92 L 508.23,167.27 L 501.94,168.72 L 495.66,170.25 L 489.42,171.88 L 483.19,173.59 L 477.00,175.40 L 470.83,177.30 L 464.69,179.28 L 458.58,181.36 L 452.51,183.52 L 446.46,185.77 L 440.45,188.11 L 434.48,190.54 L 428.54,193.05 L 422.65,195.65 L 416.79,198.34 L 410.97,201.11 L 405.19,203.96 L 399.46,206.90 L 393.77,209.92 L 388.12,213.02 L 382.53,216.21 L 376.98,219.47 L 371.47,222.82 L 366.02,226.25 L 360.62,229.75 L 355.28,233.33 L 349.98,236.99 L 344.75,240.73 L 339.56,244.54 L 334.44,248.43 L 329.37,252.39 L 324.36,256.42 L 319.41,260.52 L 314.52,264.70 L 309.70,268.95 L 304.94,273.26 L 300.24,277.65 L 295.60,282.10 L 291.04,286.62 L 286.54,291.20 L 282.11,295.85 L 277.74,300.56 L 273.45,305.34 L 269.23,310.18 L 265.07,315.07 L 261.00,320.03 L 256.99,325.04 L 253.06,330.12 L 249.20,335.25 L 245.42,340.43 L 241.72,345.67 L 238.09,350.96 L 234.55,356.30 L 231.08,361.69 L 227.69,367.13 L 224.38,372.62 L 221.15,378.16 L 218.00,383.74 L 214.94,389.37 L 211.95,395.04 L 209.05,400.75 L 206.24,406.51 L 203.51,412.30 L 200.87,418.13 L 198.31,424.00 L 195.83,429.91 L 193.45,435.84 L 191.15,441.82 L 188.94,447.82 L 186.82,453.86 L 184.78,459.92 L 182.84,466.02 L 180.98,472.14 L 179.22,478.29 L 177.54,484.46 L 175.96,490.65 L 174.46,496.87 L 173.06,503.10 L 171.75,509.36 L 170.53,515.63 L 169.40,521.92 L 168.36,528.22 L 167.42,534.54 L 166.57,540.87 L 165.81,547.21 L 165.14,553.56 L 164.57,559.92 L 164.09,566.28 L 163.70,572.65 L 163.40,579.03 L 163.20,585.40 L 163.09,591.78 L 163.08,598.16 L 163.16,604.54 L 163.33,610.91 L 163.59,617.28 L 163.95,623.65 L 164.40,630.01 L 164.94,636.36 L 165.58,642.70 L 166.30,649.03 L 167.12,655.35 L 168.04,661.65 L 169.04,667.94 L 170.13,674.22 L 171.32,680.47 L 172.60,686.71 L 173.97,692.93 L 175.43,699.12 L 176.97,705.30 L 178.61,711.45 L 180.34,717.57 L 182.16,723.67 L 184.06,729.73 L 186.06,735.77 L 188.14,741.78 L 190.31,747.76 L 192.56,753.70 L 194.90,759.61 L 197.33,765.49 L 199.84,771.33 L 202.44,777.13 L 205.12,782.89 L 207.88,788.60 L 210.73,794.28 L 213.66,799.92 L 216.67,805.51 L 219.76,811.05 L 222.94,816.55 L 226.19,822.00 L 229.52,827.41 L 232.93,832.76 L 236.41,838.06 L 239.97,843.31 L 243.61,848.51 L 247.32,853.65 L 251.11,858.73 L 254.97,863.76 L 258.90,868.74 L 262.91,873.65 L 266.98,878.50 L 271.13,883.30 L 275.34,888.03 L 279.62,892.70 L 283.97,897.30 L 288.39,901.84 L 292.87,906.32 L 297.42,910.73 L 302.02,915.07 L 306.69,919.34 L 311.43,923.55 L 316.22,927.68 L 321.07,931.74 L 325.98,935.74 L 330.94,939.65 L 335.97,943.50 L 341.04,947.27 L 346.17,950.97 L 351.36,954.59 L 356.59,958.13 L 361.88,961.60 L 367.21,964.98 L 372.60,968.29 L 378.03,971.52 L 383.50,974.67 L 389.02,977.74 L 394.59,980.73 L 400.20,983.64 L 405.84,986.46 L 411.53,989.20 L 417.26,991.86 L 423.02,994.43 L 428.82,996.92 L 434.65,999.32 L 440.52,1001.64 L 446.42,1003.87 L 452.35,1006.01 L 458.32,1008.07 L 464.31,1010.04 L 470.32,1011.92 L 476.37,1013.71 L 482.44,1015.42 L 488.53,1017.03 L 494.64,1018.56 L 500.78,1020.00 L 506.93,1021.34 L 513.10,1022.60 L 519.29,1023.77 L 525.50,1024.84 L 531.71,1025.83 L 537.95,1026.72 L 544.19,1027.52 L 550.44,1028.23 L 556.70,1028.85 L 562.97,1029.38 L 569.25,1029.82 L 575.53,1030.16 L 581.82,1030.42 L 588.10,1030.58 L 594.39,1030.65 L 600.68,1030.62 L 606.96,1030.51 L 613.24,1030.30 L 619.52,1030.01 L 625.79,1029.62 L 632.06,1029.14 L 638.31,1028.57 L 644.56,1027.90 L 650.79,1027.15 L 657.01,1026.30 L 663.22,1025.37 L 669.42,1024.34 L 675.59,1023.23 L 681.75,1022.02 L 687.89,1020.73 L 694.01,1019.34 L 700.11,1017.87 L 706.18,1016.31 L 712.23,1014.65 L 718.26,1012.92 L 724.26,1011.09 L 730.23,1009.18 L 736.17,1007.18 L 742.08,1005.09 L 747.95,1002.92 L 753.80,1000.66 L 759.61,998.32 L 765.39,995.89 L 771.12,993.38 L 776.82,990.79 L 782.48,988.12 L 788.10,985.36 L 793.68,982.52 L 799.22,979.60 L 804.71,976.60 L 810.16,973.52 L 815.56,970.36 L 820.91,967.13 L 826.22,963.81 L 831.47,960.42 L 836.68,956.96 L 841.83,953.42 L 846.93,949.80 L 851.97,946.11 L 856.96,942.35 L 861.90,938.52 L 866.78,934.61 L 871.60,930.64 L 876.36,926.59 L 881.05,922.48 L 885.69,918.30 L 890.27,914.05 L 894.78,909.74 L 899.23,905.36 L 903.62,900.92 L 907.93,896.41 L 912.19,891.85 L 916.37,887.22 L 920.48,882.53 L 924.53,877.79 L 928.51,872.98 L 932.41,868.12 L 936.24,863.20 L 940.00,858.23 L 943.69,853.21 L 947.30,848.13 L 950.84,843.00 L 954.30,837.82 L 957.68,832.59 L 960.99,827.31 L 964.22,821.99 L 967.37,816.62 L 970.45,811.21 L 973.44,805.75 L 976.35,800.25 L 979.18,794.71 L 981.93,789.12 L 984.60,783.50 L 987.18,777.85 L 989.68,772.15 L 992.10,766.42 L 994.44,760.66 L 996.68,754.86 L 998.85,749.03 L 1000.93,743.18 L 1002.92,737.29 L 1004.82,731.38 L 1006.64,725.44 L 1008.37,719.47 L 1010.02,713.48 L 1011.58,707.47 L 1013.04,701.43 L 1014.42,695.38 L 1015.71,689.31 L 1016.92,683.22 L 1018.03,677.12 L 1019.05,670.99 L 1019.99,664.86 L 1020.83,658.72 L 1021.59,652.56 L 1022.25,646.39 L 1022.82,640.22 L 1023.31,634.04 L 1023.70,627.85 L 1024.01,621.66 L 1024.22,615.47 L 1024.34,609.27 L 1024.37,603.08 L 1024.31,596.88 L 1024.16,590.69 L 1023.93,584.50 L 1023.60,578.32 L 1023.18,572.14 L 1022.67,565.97 L 1022.07,559.81 L 1021.38,553.66 L 1020.60,547.52 L 1019.73,541.39 L 1018.77,535.28 L 1017.72,529.19 L 1016.59,523.11 L 1015.36,517.04 L 1014.05,511.00 L 1012.65,504.98 L 1011.16,498.98 L 1009.59,493.00 L 1007.93,487.05 L 1006.18,481.13 L 1004.34,475.23 L 1002.42,469.36 L 1000.42,463.51 L 998.33,457.70 L 996.16,451.92 L 993.90,446.18 L 991.56,440.47 L 989.13,434.79 L 986.63,429.15 L 984.04,423.55 L 981.37,417.99 L 978.62,412.47 L 975.79,406.99 L 972.88,401.55 L 969.89,396.16 L 966.83,390.81 L 963.68,385.50 L 960.46,380.25 L 957.17,375.04 L 953.80,369.88 L 950.35,364.78 L 946.83,359.72 L 943.24,354.72 L 939.58,349.77 L 935.84,344.87 L 932.04,340.03 L 928.16,335.25 L 924.22,330.53 L 920.20,325.86 L 916.12,321.25 L 911.98,316.71 L 907.77,312.22 L 903.49,307.80 L 899.15,303.44 L 894.75,299.15 L 890.29,294.92 L 885.76,290.76 L 881.18,286.66 L 876.54,282.64 L 871.84,278.68 L 867.08,274.79 L 862.27,270.97 L 857.40,267.22 L 852.48,263.55 L 847.51,259.95 L 842.49,256.42 L 837.41,252.96 L 832.29,249.58 L 827.12,246.28 L 821.90,243.05 L 816.63,239.90 L 811.33,236.83 L 805.97,233.83 L 800.58,230.91 L 795.14,228.08 L 789.67,225.32 L 784.15,222.64 L 778.60,220.05 L 773.01,217.54 L 767.38,215.10 L 761.72,212.76 L 756.03,210.49 L 750.31,208.31 L 744.56,206.21 L 738.77,204.20 L 732.96,202.27 L 727.12,200.43 L 721.26,198.67 L 715.37,197.00 L 709.46,195.41 L 703.53,193.91 L 697.58,192.50 L 691.61,191.18 L 685.62,189.94 L 679.61,188.79 L 673.59,187.73 L 667.56,186.76 L 661.51,185.88 L 655.45,185.08 L 649.38,184.37 L 643.30,183.75 L 637.21,183.22 L 631.12,182.78 L 625.02,182.43 L 618.92,182.17 L 612.82,182.00 L 606.72,181.91 L 600.61,181.92 L 594.51,182.01 L 588.41,182.19 L 582.32,182.47 L 576.23,182.83 L 570.14,183.28 L 564.07,183.81 L 558.00,184.44 L 551.95,185.16 L 545.91,185.96 L 539.88,186.85 L 533.86,187.83 L 527.86,188.90 L 521.88,190.05 L 515.91,191.29 L 509.97,192.62 L 504.05,194.04 L 498.14,195.54 L 492.27,197.12 L 486.41,198.79 L 480.58,200.55 L 474.78,202.39 L 469.01,204.32 L 463.27,206.33 L 457.56,208.42 L 451.88,210.60 L 446.23,212.85 L 440.62,215.19 L 435.04,217.61 L 429.50,220.12 L 424.00,222.70 L 418.53,225.36 L 413.11,228.10 L 407.73,230.92 L 402.39,233.82 L 397.09,236.79 L 391.84,239.84 L 386.64,242.97 L 381.48,246.17 L 376.37,249.45 L 371.31,252.80 L 366.30,256.22 L 361.34,259.72 L 356.43,263.29 L 351.57,266.93 L 346.77,270.63 L 342.03,274.41 L 337.34,278.26 L 332.71,282.17 L 328.14,286.15 L 323.62,290.19 L 319.17,294.30 L 314.78,298.48 L 310.45,302.72 L 306.18,307.02 L 301.98,311.38 L 297.84,315.80 L 293.76,320.28 L 289.76,324.82 L 285.82,329.41 L 281.95,334.07 L 278.14,338.77 L 274.41,343.54 L 270.75,348.35 L 267.16,353.22 L 263.64,358.14 L 260.19,363.11 L 256.82,368.13 L 253.52,373.19 L 250.29,378.30 L 247.14,383.46 L 244.07,388.67 L 241.07,393.91 L 238.15,399.20 L 235.31,404.54 L 232.55,409.91 L 229.87,415.32 L 227.26,420.76 L 224.74,426.25 L 222.30,431.77 L 219.93,437.32 L 217.65,442.91 L 215.46,448.53 L 213.34,454.18 L 211.31,459.86 L 209.36,465.57 L 207.49,471.30 L 205.71,477.06 L 204.02,482.85 L 202.40,488.66 L 200.88,494.49 L 199.44,500.34 L 198.08,506.21 L 196.81,512.10 L 195.63,518.01 L 194.53,523.93 L 193.52,529.87 L 192.60,535.82 L 191.76,541.78 L 191.02,547.75 L 190.35,553.73 L 189.78,559.72 L 189.29,565.72 L 188.90,571.72 L 188.59,577.73 L 188.36,583.74 L 188.23,589.75 L 188.18,595.76 L 188.22,601.78 L 188.35,607.79 L 188.56,613.79 L 188.87,619.79 L 189.26,625.79 L 189.74,631.78 L 190.30,637.76 L 190.96,643.73 L 191.70,649.69 L 192.52,655.63 L 193.44,661.57 L 194.44,667.49 L 195.52,673.39 L 196.69,679.27 L 197.95,685.14 L 199.29,690.99 L 200.72,696.81 L 202.23,702.62 L 203.83,708.40 L 205.51,714.15 L 207.27,719.88 L 209.12,725.58 L 211.05,731.26 L 213.06,736.90 L 215.16,742.52 L 217.33,748.10 L 219.59,753.65 L 221.93,759.16 L 224.34,764.64 L 226.84,770.08 L 229.42,775.48 L 232.07,780.85 L 234.80,786.17 L 237.61,791.46 L 240.49,796.70 L 243.45,801.90 L 246.49,807.05 L 249.60,812.16 L 252.78,817.22 L 256.04,822.24 L 259.37,827.20 L 262.77,832.12 L 266.24,836.98 L 269.78,841.79 L 273.39,846.55 L 277.07,851.26 L 280.82,855.91 L 284.64,860.50 L 288.52,865.04 L 292.46,869.52 L 296.47,873.94 L 300.55,878.30 L 304.68,882.60 L 308.88,886.84 L 313.14,891.02 L 317.46,895.14 L 321.84,899.19 L 326.28,903.17 L 330.77,907.09 L 335.32,910.94 L 339.92,914.73 L 344.58,918.45 L 349.29,922.10 L 354.06,925.67 L 358.87,929.18 L 363.73,932.62 L 368.65,935.99 L 373.61,939.28 L 378.62,942.50 L 383.67,945.64 L 388.77,948.71 L 393.91,951.71 L 399.10,954.63 L 404.32,957.47 L 409.59,960.24 L 414.90,962.93 L 420.24,965.54 L 425.62,968.07 L 431.04,970.53 L 436.49,972.90 L 441.97,975.19 L 447.48,977.41 L 453.03,979.54 L 458.61,981.59 L 464.21,983.56 L 469.84,985.44 L 475.50,987.25 L 481.19,988.97 L 486.89,990.60 L 492.62,992.16 L 498.37,993.63 L 504.14,995.01 L 509.93,996.31 L 515.74,997.53 L 521.56,998.66 L 527.40,999.70 L 533.25,1000.66 L 539.12,1001.54 L 544.99,1002.32 L 550.88,1003.03 L 556.77,1003.64 L 562.67,1004.17 L 568.58,1004.62 L 574.50,1004.97 L 580.41,1005.24 L 586.33,1005.43 L 592.25,1005.53 L 598.17,1005.54 L 604.09,1005.46 L 610.01,1005.30 L 615.92,1005.05 L 621.83,1004.72 L 627.73,1004.30 L 633.63,1003.79 L 639.51,1003.20 L 645.39,1002.52 L 651.25,1001.76 L 657.10,1000.91 L 662.94,999.98 L 668.76,998.96 L 674.57,997.86 L 680.35,996.67 L 686.12,995.40 L 691.87,994.04 L 697.60,992.60 L 703.31,991.08 L 708.99,989.47 L 714.65,987.78 L 720.28,986.01 L 725.88,984.16 L 731.46,982.23 L 737.00,980.21 L 742.52,978.12 L 748.00,975.94 L 753.45,973.69 L 758.86,971.35 L 764.25,968.94 L 769.59,966.45 L 774.89,963.89 L 780.16,961.24 L 785.39,958.52 L 790.58,955.73 L 795.72,952.85 L 800.82,949.91 L 805.88,946.89 L 810.89,943.80 L 815.85,940.63 L 820.77,937.40 L 825.64,934.09 L 830.46,930.71 L 835.23,927.27 L 839.95,923.75 L 844.61,920.17 L 849.22,916.52 L 853.78,912.80 L 858.28,909.02 L 862.73,905.17 L 867.11,901.26 L 871.44,897.29 L 875.71,893.25 L 879.92,889.15 L 884.07,884.99 L 888.16,880.77 L 892.19,876.50 L 896.15,872.16 L 900.05,867.77 L 903.88,863.33 L 907.65,858.82 L 911.35,854.27 L 914.98,849.66 L 918.55,845.00 L 922.04,840.29 L 925.47,835.53 L 928.82,830.72 L 932.11,825.86 L 935.32,820.96 L 938.46,816.01 L 941.53,811.01 L 944.52,805.98 L 947.44,800.90 L 950.29,795.77 L 953.06,790.61 L 955.75,785.41 L 958.37,780.17 L 960.90,774.90 L 963.37,769.59 L 965.75,764.24 L 968.05,758.86 L 970.28,753.45 L 972.43,748.00 L 974.49,742.53 L 976.48,737.03 L 978.38,731.50 L 980.21,725.94 L 981.95,720.36 L 983.61,714.76 L 985.19,709.13 L 986.68,703.48 L 988.10,697.81 L 989.43,692.12 L 990.67,686.42 L 991.84,680.69 L 992.91,674.95"
        marker-end="url(#fleche)"/>

  <!-- ═══ POINT NOIR au bout extérieur ═══ -->
  <!-- Changez cx= cy= pour déplacer, r= pour la taille -->
  <circle class="point" cx="1175.00" cy="600" r="8"/>

  <!-- ═══ MOT MOFTAL au centre ═══ -->
  <!-- Changez font-size= pour la taille, fill= pour la couleur -->
  <!-- Changez y= pour monter (moins) ou descendre (plus) -->
  <text class="texte" x="600" y="630">Moftal</text>

</svg>